<?xml version="1.0" encoding="UTF-8"?>
<svg id="Layer_1" xmlns="http://www.w3.org/2000/svg" version="1.1" viewBox="0 0 1594.557 1306.449">
  <!-- Generator: Adobe Illustrator 29.1.0, SVG Export Plug-In . SVG Version: 2.1.0 Build 142)  -->
  <defs>
    <style>
      .st0 {
        fill: #fff;
      }

      .st1 {
        fill: #1a2e35;
      }

      .st2 {
        fill: #ff725e;
      }

      .st3 {
        fill: #155169;
      }

      .st4 {
        fill: #d4ac6f;
      }

      .st5 {
        fill: #ececec;
      }
    </style>
  </defs>
  <path class="st5" d="M1210.537,192.75c1.6,5.33,1.94,11.68-2.92,15.03-1.6,1.093-4.677,1.997-9.23,2.71-9.833,1.547-18.73,2.933-26.69,4.16-3.14.487-5.353.567-6.64.24-4.4-1.13-6.77-5.42-7.47-9.75-2.033-12.393-3.717-23.477-5.05-33.25-.667-4.887-.697-8.44-.09-10.66,2.07-7.54,7.65-12.42,15.36-14.2,2.767-.64,4.787-1.113,6.06-1.42,13.38-3.253,22.437-10.41,27.17-21.47,5.72-13.35,3.68-27.32-6.19-38.19-9.05-9.98-21.98-11.91-34.58-8.21-15.14,4.47-23.03,15.67-23.52,31.42-.093,2.913-.473,4.997-1.14,6.25-1.7,3.187-4.197,5.047-7.49,5.58-20.253,3.24-31.987,5.053-35.2,5.44-4.88.587-8.43-1.587-10.65-6.52-.58-1.28-1.003-4.437-1.27-9.47-.1-1.893-.137-6.023-.11-12.39.027-6.94,1.637-15.257,4.83-24.95,1.74-5.273,4.583-10.753,8.53-16.44,8.88-12.8,22.14-22.21,36.74-28.02,10.7-4.26,21.187-6.81,31.46-7.65,33.5-2.74,67.53,9.92,85.19,39.62,3.093,5.207,5.66,11.173,7.7,17.9,4.9,16.18,5.987,32.133,3.26,47.86-3,17.42-11.44,32.91-24.2,45.77-7.64,7.69-13.96,12.46-22.35,17.36-1.15.67-1.97,1.69-1.51,3.25Z"/>
  <path class="st5" d="M769.786,130.081l.03-1.09c.027-1.167.34-1.26.94-.28.087.147.027.447-.18.9-.067.14-.33.297-.79.47Z"/>
  <ellipse class="st5" cx="1191.607" cy="247.38" rx="27.68" ry="26.35" transform="translate(-23.355 176.727) rotate(-8.4)"/>
  <rect class="st2" x="1418.402" y="409.519" width="21.5" height="23.06" rx=".81" ry=".81" transform="translate(1005.609 1849.464) rotate(-89.9)"/>
  <path class="st5" d="M756.423,268.092c11.576-12.423,13.33-25.862,5.262-40.318.324-4.664.814-8.382,1.47-11.153,1.75-7.458,3.396-14.941,4.938-22.45.353-1.733.869-3.294,1.547-4.682.157-.304.528-.427.829-.276.118.06.214.156.271.276,1.701,3.482,3.153,6.867,4.357,10.155,5.728,15.607,10.011,30.928,12.847,45.964,3.017,15.959,5.011,30.943,5.98,44.952,2.518,36.408,1.015,73.879-4.512,112.412-.604,4.229-2.01,12.641-4.221,25.238-1.687,9.618-3.844,19.058-6.473,28.321-.358,1.259-.199,4.09.477,8.494.039.24-.128.465-.373.503-.073.011-.148.004-.218-.019l-.633-.219c-.359-.125-.616-.44-.661-.811-1.283-10.413-1.614-17.65-4.114-26.167-2.722-9.314-6.531-23.405-8.777-35.316-1.024-5.477-2.162-10.474-3.153-16.108-4.04-22.804-6.257-46.271-6.649-70.401-.034-1.818.006-10.683.119-26.595.041-5.517.603-12.783,1.686-21.798Z"/>
  <path class="st5" d="M836.793,462.715l-38.035,2.999c1.266-5.876,2.645-11.61,4.137-17.203,3.667-13.768,6.891-26.165,11.065-38.128,5.993-17.185,13.262-34.785,21.808-52.801,2.31-4.858,5.406-10.763,9.288-17.716,8.604-15.413,13.779-24.43,15.526-27.049,3.508-5.283,7.485-11.346,11.928-18.188.178-.279.549-.361.829-.183.107.068.19.169.236.287.34.873.511,1.722.514,2.549,0,3.93.039,7.009.114,9.236.115,3.172.096,6.213-.058,9.123-1.195,22.988-4.465,45.391-9.812,67.209-1.15,4.667-2.169,8.403-3.055,11.207-1.569,4.928-2.653,9.801-4.268,14.83-5.852,18.243-12.59,36.186-20.216,53.828Z"/>
  <g>
    <path class="st1" d="M229.412,411.278c-.267.353-.41.69-.43,1.01-.48-4.63-.56-9.66-1.21-13.88-3.967-25.753-15.003-47.58-33.11-65.48-32.26-31.88-80.72-41.48-122.36-24.38-37.6,15.44-64.09,49.13-69.72,89.57-7.13,51.31,21.34,100.5,68.9,120.35,36.88,15.38,80.78,10.1,112.51-14.75,24.307-19.047,38.883-43.85,43.73-74.41.68-4.3.76-9.27,1.24-13.92l.42,1.82c-.391,12.744-2.905,25.337-7.44,37.26-8.333,21.895-23.168,40.714-42.51,53.93-11.985,8.186-25.408,14.026-39.56,17.21-26.37,5.922-53.982,2.349-77.97-10.09-20.589-10.682-37.457-27.348-48.38-47.8-11.505-21.549-15.832-46.209-12.35-70.39,3.365-23.376,13.866-45.146,30.07-62.34,14.088-14.946,31.929-25.835,51.66-31.53,28.714-8.285,59.529-5.038,85.89,9.05,22.196,11.863,39.874,30.697,50.31,53.6,6.472,14.198,9.98,29.568,10.31,45.17Z"/>
    <path class="st2" d="M125.552,434.488l.02,10.07c0,.381-.304.69-.68.69h0l-20.32.04c-.326,0-.59-.269-.59-.6l-.06-30.91c0-.282.228-.51.51-.51.034,0,.067.003.1.01,12.09,2.29,24.8-1.83,28.09-14.92,1.99-7.92-1.77-17.04-9.19-20.76-7.11-3.54-16.9-2.25-22.34,3.63-2.847,3.08-4.493,7.133-4.94,12.16-.042.498-.455.881-.95.88l-20.5.04c-.316,0-.575-.258-.58-.58-.24-19.54,8.56-34.21,28.18-38.83,20.98-4.94,45.21,3.56,51.67,25.53,1.867,6.36,2.183,13.187.95,20.48-2.73,16.06-13.34,27.1-28.72,32.64-.394.147-.654.523-.65.94Z"/>
    <rect class="st2" x="104.512" y="452.488" width="20.6" height="22.12" rx=".79" ry=".79" transform="translate(-348.936 577.55) rotate(-89.9)"/>
    <path class="st1" d="M234.672,520.548c0,9.947-8.063,18.01-18.01,18.01h0c-9.947,0-18.01-8.063-18.01-18.01s8.063-18.01,18.01-18.01,18.01,8.063,18.01,18.01h0ZM233.822,520.538c0-9.289-7.531-16.82-16.82-16.82s-16.82,7.531-16.82,16.82h0c0,9.289,7.531,16.82,16.82,16.82h0c9.289,0,16.82-7.531,16.82-16.82Z"/>
  </g>
  <path class="st5" d="M903.898,479.468l-25.77-9.958c11.421-10.288,20.592-17.834,27.514-22.637,4.827-3.353,9.983-7.087,15.468-11.204,1.565-1.176,2.178-.799,1.841,1.131-.376,2.16-1.161,4.689-2.354,7.588-.932,2.242-3.716,8.984-8.353,20.225-1.494,3.627-4.276,8.578-8.345,14.855Z"/>
  <path class="st5" d="M672.733,370.325c3.846,2.524,7.385,5.281,10.619,8.27,27.491,25.393,52.294,53.179,74.41,83.357.037.055.636.792,1.796,2.209,1.147,1.413,1.955,2.963,2.422,4.649l-29.43,2.476c-1.265-.869-2.599-1.634-3.999-2.295-1.621-.759-2.953-1.495-3.997-2.21-11.892-8.097-21.37-15.034-28.436-20.81-7.863-6.427-14.005-11.601-18.425-15.523-21.753-19.269-42.399-40.937-59.321-62.724-1.293-1.675-2.237-3.717-3.529-5.518,2.195-2.937,3.723-6.055,4.584-9.355.192-.738.445-.756.76-.054,3.936,8.926,10.471,15.461,19.604,19.604,11.258,5.098,22.239,4.406,32.942-2.075Z"/>
  <path class="st5" d="M700.414,481.089l-52.522,25.08c-19.309-8.363-33.526-15.216-42.651-20.559-9.083-5.313-16.62-9.656-22.611-13.028-.248-.145-.331-.463-.186-.711.047-.08.114-.146.195-.191.611-.343,1.299-.553,2.062-.632,38.586-4.021,76.823-.079,114.442,8.736.292.067.491.24.597.521s.331.542.675.786Z"/>
  <path class="st5" d="M773.222,186.554c-.79,5.63-3.19,11.68-9.14,12.71-1.953.333-5.197-.14-9.73-1.42-9.793-2.767-18.65-5.28-26.57-7.54-3.12-.893-5.207-1.767-6.26-2.62-3.61-2.93-3.98-7.92-2.78-12.25,3.407-12.38,6.58-23.393,9.52-33.04,1.467-4.82,2.957-8.13,4.47-9.93,5.14-6.13,12.41-8.27,20.33-6.63,2.847.587,4.927,1.01,6.24,1.27,13.813,2.693,25.283-.087,34.41-8.34,11.01-9.96,15.09-23.8,10.56-38.12-4.14-13.13-15.32-20.45-28.61-22.39-15.97-2.32-28.09,4.71-35.27,19.13-1.333,2.667-2.577,4.44-3.73,5.32-2.94,2.233-6.053,2.893-9.34,1.98-20.2-5.64-31.873-8.967-35.02-9.98-4.78-1.54-7.15-5.077-7.11-10.61.013-1.433.97-4.547,2.87-9.34.713-1.8,2.443-5.65,5.19-11.55,2.993-6.433,8.043-13.47,15.15-21.11,3.867-4.16,8.847-8.037,14.94-11.63,13.72-8.1,30.06-11.17,46.1-10.33,11.76.613,22.59,2.723,32.49,6.33,32.29,11.77,58.49,38.07,62.2,73.2.653,6.16.49,12.8-.49,19.92-2.36,17.12-8.167,32.403-17.42,45.85-10.23,14.89-24.69,25.68-42.04,32.17-10.38,3.88-18.29,5.61-28.17,6.58-1.36.13-2.55.72-2.79,2.37Z"/>
  <path class="st5" d="M365.434,241.343c-.27,6.05-4.52,11.04-11.03,9.08-10.353-3.107-18.913-5.943-25.68-8.51-3.34-1.26-2.14-8.3-1.34-10.79,2.873-8.953,5.32-16.797,7.34-23.53.94-3.13,5.5-8.57,9.25-9.32,4.3-.86,8.28.04,12.99,1.12,2.753.627,4.853.93,6.3.91,5.567-.08,10.473-1.43,14.72-4.05,9.97-6.16,14.69-17.55,11.49-29.06-1.233-4.44-3.613-8.077-7.14-10.91-4.54-3.647-9.747-5.65-15.62-6.01-8.88-.54-15.653,2.697-20.32,9.71-3.72,5.59-5.31,10.51-12.34,8.38-9.587-2.907-16.883-5.037-21.89-6.39-.587-.16-1.41-.503-2.47-1.03-8.8-4.38-2.53-14.08.23-19.96,1.407-2.993,2.613-5.27,3.62-6.83,5.913-9.16,13.267-15.797,22.06-19.91,9.313-4.353,19.75-6.05,31.31-5.09,14.973,1.247,28.503,6.347,40.59,15.3,2.89,2.14,5.8,5.26,8.61,7.96,18.19,17.45,19.79,44.27,10.09,66.96-3.573,8.347-7.733,14.987-12.48,19.92-10.2,10.613-22.57,17.157-37.11,19.63-2.973.5-6.417,1-10.33,1.5-.54.073-.823.38-.85.92Z"/>
  <path class="st2" d="M1097.971,708.59c-.09-.044-.18-.087-.27-.131.073.016.147.038.222.072-25.812-142.899-150.825-251.297-301.162-251.297-51.968,0-100.9,12.969-143.765,35.822-.011-.006-.023-.011-.034-.017-78.556,39.076-121.969,120.079-129.05,205.08-.68,9.82-1.98,20.1-1.99,30.26-.007,7.187,2.387,14.043,7.18,20.57,2.28,3.107,5.033,5.647,8.26,7.62.82.5,3.203,1.317,7.15,2.45l22.15,2.17c33.366-.132,66.785-.28,100.32-.28,17.588.1,30.981-11.811,33.31-29.5,7.2-45.83,32.63-80.48,79.21-91.259,51.438-12.508,103.378,5.292,127.29,54.319,20.93,41.11,13.35,89.94-15.23,125.12-24.02,29.57-62.32,42.43-99.52,43.88-5,.2-12.76.08-18.68,1.28-30.94,6.25-52.04,32.07-52,63.62.067,57.98.09,95.827.07,113.54-.01,8.65-.08,15.59,4.17,23.09,4.213,7.42,10.413,12.44,18.6,15.06,3.193,1.02,9.61,1.51,19.25,1.47,8.04-.033,41.553-.04,100.54-.02,16.16,0,29.76-11.22,32.27-27.25.69-6.096.493-19.605.47-30.66,0-.606.385-1.147.96-1.35,11.94-4.026,24.571-9.909,36.93-15.77,39.213-19.66,72.827-46.29,100.84-79.89,49.761-60.497,69.174-140.347,62.51-218Z"/>
  <ellipse class="st5" cx="335.654" cy="271.393" rx="19.18" ry="20.15" transform="translate(-30.63 499.765) rotate(-70.9)"/>
  <ellipse class="st5" cx="732.522" cy="229.084" rx="26.88" ry="28.25" transform="translate(309.284 869.347) rotate(-73.9)"/>
  <path class="st5" d="M1379.877,679.089c.973,1.88,1.56,3.237,1.76,4.07,1.8,7.46,3.13,14.123,3.99,19.99.84,5.76,1.94,10.67,2.5,16.16.84,8.273,1.543,15.547,2.11,21.82,1.107,12.307,1.463,26.063,1.07,41.27-.35,13.78-.41,21.32-1.27,31.74-.693,8.393-1.38,15.63-2.06,21.71-1.967,17.587-4.92,35.93-8.86,55.03-2.013,9.78-4.14,18.337-6.38,25.67-.18.593.03.807.63.64.087-.027.267-.203.54-.53,2.093-2.54,5.19-6.22,9.29-11.04,3.593-4.213,6.65-7.923,9.17-11.13,4.267-5.407,8.66-10.793,13.18-16.16,2.153-2.553,4.39-5.977,6.71-10.27,2.067-3.813,4.153-7.31,6.26-10.49,4.5-6.78,8.72-13.93,14.18-21.62,8.893-12.52,14.963-20.7,18.21-24.54,4.04-4.767,6.197-7.347,6.47-7.74,1.627-2.28,3.26-4.183,4.9-5.71,2.07-1.93,4.38-5.34,6.53-7.71,19.46-21.5,40.56-41.05,63.3-58.65,5.353-4.14,12.607-9.42,21.76-15.84,7.507-5.26,13.037-8.97,16.59-11.13,7.267-4.427,14.697-8.78,22.29-13.06,1.767-.993,2.24-.567,1.42,1.28-2.52,5.66-5.637,12.227-9.35,19.7-2.5,5.047-5.847,10.803-10.04,17.27-8.227,12.707-15.427,22.913-21.6,30.62-7.693,9.62-16.553,19.753-26.58,30.4-9.087,9.653-21.14,21.023-36.16,34.11-9.44,8.22-22.03,17.79-31,24.74-10.893,8.453-27.537,19.633-49.93,33.54-2.66,1.65-4.25,2.08-6.65,3.13-2.63,1.16-4.97,4.76-6.1,5.65-.28.227-4.377,5.127-12.29,14.7-.06.067-11.19,14.073-33.39,42.02-.153.193-.134.363.06.51l.28.22c.227.173.443.163.65-.03,1.86-1.72,3.953-3.397,6.28-5.03,5.33-3.74,11.97-9.72,15.58-12.22,7.77-5.36,16.41-11.75,23.98-16.63,4.786-3.093,11.933-7.407,21.44-12.94,18.11-10.55,36.97-19.79,57.37-28.38,35.72-15.06,72.867-25.51,111.44-31.35.307-.047.637-.013.99.1.325.108.501.458.394.783-.032.098-.089.186-.164.257-4.813,4.54-9.663,9.083-14.55,13.63-5.33,4.95-9.66,8.28-17.2,14.42-3.133,2.553-5.933,4.603-8.4,6.15-3.96,2.49-7.78,5.58-11.45,7.89-17.507,10.993-29.793,18.26-36.86,21.8-30.78,15.4-60.99,27.583-90.63,36.55-17.373,5.26-36.253,10-56.64,14.22-3.68.767-7.027,1.28-10.04,1.54-.822.07-1.577.484-2.08,1.14l-15.61,20.4c-.427.56-.867.573-1.32.04-.12-.147-.19-.337-.21-.57-.051-.912.116-1.689.46-2.15,9.72-13,15.647-20.813,17.78-23.44,9.76-11.993,19.083-23.627,27.97-34.9.513-.654.501-1.576-.03-2.21-.327-.393-.66-1.06-1-2-1.373-3.833-3.533-11.49-6.48-22.97-3.247-12.62-5.847-24.957-7.8-37.01-.633-3.9-1.853-12.537-3.66-25.91-.833-6.2-1.463-12.843-1.89-19.93-1.747-29.12-1.583-55.87.49-80.25,1.227-14.473,3.657-31.017,7.29-49.63,8.28,1.527,15.733.947,22.36-1.74Z"/>
  <path class="st5" d="M1317.187,872.979c-3.42-8.17-7.77-16.73-8.78-25.54-3.207-28.16-6.393-56.327-9.56-84.5l3.22,2.55c.28.22.473.497.58.83,3.68,11.11,6.16,25.29,7.94,33.35,1.313,5.96,2.28,11.27,2.9,15.93,1.05,7.89,2.83,17.58,3.65,27.03.607,7,1.143,14.29,1.61,21.87.24,3.927-.28,6.753-1.56,8.48Z"/>
  <path class="st5" d="M222.296,974.383c-.717,13.24-.944,26.458-.681,39.656-1.5-1.569-2.556-2.788-3.168-3.655-4.723-6.603-9.503-13.164-14.341-19.681-1.583-2.13-5.761-8.257-12.532-18.38-4.232-6.317-7.772-11.965-10.621-16.944-9.712-16.978-16.501-29.574-20.368-37.786-8.946-18.985-16.399-37.013-22.359-54.086-3.21-9.175-7.086-21.828-11.626-37.96-.913-3.257-1.689-6.461-2.329-9.613-1.332-6.613-3.336-13.502-4.681-20.579-1.293-6.811-2.34-10.381-2.249-12.785.009-.337.289-.602.626-.593.154.004.301.066.411.174,7.957,7.892,14.585,14.943,21.566,23.76,12.322,15.568,22.644,30.748,30.966,45.538,3.002,5.339,7.903,14.638,14.704,27.897,2.031,3.955,4.082,8.313,6.153,13.072,2.535,5.843,5.336,11.572,7.683,17.566,9.222,23.579,15.914,41.152,21.016,61.198.202.798.391,1.598.567,2.401.084.398.164.625.241.68.275.199.616.239,1.022.12Z"/>
  <path class="st5" d="M1324.497,1054.159l.66-28.51c3.233-1.18,6.357-2.52,9.37-4.02,5.327-2.66,8.367-4.157,9.12-4.49,16.247-7.267,28.74-12.35,37.48-15.25,9.27-3.08,21.48-7.28,32.21-10.22,10.867-2.967,17.267-4.677,19.2-5.13,3.86-.92,10.6-2.343,20.22-4.27,25-5.02,50.54-7.71,75.71-8.66.447-.02.54.153.28.52-.92,1.287-2.377,2.7-4.37,4.24-7.293,5.627-13.75,10.243-19.37,13.85-12.48,8.02-25.65,15.55-39.4,21.96-16.7,7.787-31.9,13.933-45.6,18.44-7.17,2.36-18.11,6.04-26.05,8.3-21.853,6.233-44.023,11.077-66.51,14.53-.32.053-.623,0-.91-.16l-2.04-1.13Z"/>
  <path class="st5" d="M234.208,1026.414l1.52,18.85c-11.04-2.56-21.703-5.697-31.99-9.41-2.047-.74-4.203-1.52-6.47-2.34-8.347-3.013-17.113-6.61-26.3-10.79-26.07-11.87-47.04-23.52-68.06-38.05-8.06-5.58-16.21-11.03-21.5-15.37-11.23-9.2-18.57-14.99-27.13-22.83-5.67-5.2-12.56-11.51-18.65-17.88-1.98-2.06-3.68-3.64-5.1-4.74-.224-.171-.267-.491-.096-.715.062-.082.148-.143.246-.175,1.773-.56,4.12-.587,7.04-.08,18.62,3.23,35.2,7.03,52.09,13.3,22.927,8.507,44.157,18.617,63.69,30.33,11.113,6.66,18.44,11.243,21.98,13.75,4.733,3.347,9.403,6.57,14.01,9.67,5.253,3.54,9.847,6.847,13.78,9.92,10.66,8.327,20.037,16.08,28.13,23.26.247.22.423.487.53.8.627,1.96,1.387,2.793,2.28,2.5Z"/>
  <path class="st5" d="M1258.637,1139.749l2.53-42.73c24.073-8.107,48.44-14.42,73.1-18.94,5.667-1.04,12.253-2.07,19.76-3.09,13.1-1.78,22.06-2.79,26.88-3.03,9.227-.46,16.057-.837,20.49-1.13.633-.04,1.027-.033,1.18.02.88.34.963.817.25,1.43-8.12,6.99-18.51,13.81-26.26,18.96-14.36,9.55-30.15,17.67-45.46,24.32-8.55,3.71-13.79,6.13-21.14,8.73-4.167,1.473-7.833,2.833-11,4.08-9.24,3.62-20.6,6.41-28.24,9.12-4.34,1.547-8.37,2.3-12.09,2.26Z"/>
  <path class="st5" d="M253.008,1104.398l5.27,34.14c-5.387-.687-12.453-2.26-21.2-4.72-34.94-9.833-68.273-23.827-100-41.98-18.013-10.3-35.22-21.647-51.62-34.04-7.95-6.01-16.76-13.88-24.76-20.17-.887-.693-.767-1.037.36-1.03,19.107.1,38.383,2.607,57.83,7.52,4.47,1.13,10.76,2.44,15.91,4.14,11.92,3.92,22.63,7.12,33.2,11.67,1.627.7,5.643,2.363,12.05,4.99,22.21,9.1,44.97,21.86,66.82,34.88.793.473,1.76,1.26,2.9,2.36,1.067,1.027,2.147,1.773,3.24,2.24Z"/>
  <path class="st2" d="M804.307,1125.699c.347,0,.657-.003.93-.01,47.85-1.54,87.76,35.53,87.76,83.93s-39.9,85.47-87.75,83.95c-.273-.013-.583-.02-.93-.02-.34,0-.647.007-.92.02-47.85,1.53-87.76-35.54-87.76-83.94-.01-48.4,39.89-85.47,87.75-83.94.273.007.58.01.92.01Z"/>
  <path class="st5" d="M1253.007,1224.759l2.77-40.94c28.6-6.193,57.213-9.787,85.84-10.78,1.687-.06,1.93.503.73,1.69-4.44,4.39-11.49,8.66-15.42,11.56-2.927,2.153-5.63,4.023-8.11,5.61-4.54,2.89-7.37,4.85-11.18,6.99-9.767,5.493-19.203,10.477-28.31,14.95-8.347,4.1-17.12,7.74-26.32,10.92Z"/>
  <path class="st5" d="M242.731,1198.365l7.65,40.62c.077.413-.195.81-.607.887-.047.009-.095.013-.143.013l-20.18.09c.173-.913,0-1.507-.52-1.78-1-.527-2.027-.99-3.08-1.39-21.46-8.247-42.717-18.267-63.77-30.06-2.76-1.547-7.99-4.693-15.69-9.44-18.74-11.56-36.57-24.85-53.51-38.8-1.7-1.4-4.47-4.16-7.06-5.74-.88-.54-.81-.886.21-1.04,3.507-.5,6.837-.523,9.99-.07,4.38.63,7.83.4,12.09.88,12.767,1.46,25.52,3.737,38.26,6.83,7.3,1.773,13.703,3.613,19.21,5.52,10.21,3.54,18.26,5.82,28.23,9.9,13.507,5.533,25.993,11.243,37.46,17.13,4.013,2.06,6.61,3.43,7.79,4.11.687.4,1.323,1.01,1.91,1.83.207.28.48.43.82.45l.94.06Z"/>
  <g>
    <g>
      <path class="st0" d="M1274.873,571.969c-.099.177-.196.355-.33.504.022-.024.053-.034.075-.059.112-.133.173-.295.256-.445Z"/>
      <path class="st0" d="M942.347,652.67c-.1-1.213-1.165-2.115-2.378-2.015-.464.039-.903.222-1.255.526-10.682,9.53-15.03,19.557-13.044,30.08,1.946,10.483,9.61,18.226,22.991,23.23,1.137.435,2.411-.134,2.846-1.271.165-.432.19-.904.072-1.35-3.177-11.396-5.222-19.517-6.135-24.362s-1.946-13.124-3.097-24.838Z"/>
      <path class="st0" d="M1041.997,1272.429c5.229,6.26,12.994,9.881,21.205,9.887h41.158c3.256,0,4.884-1.648,4.884-4.944v-16.261c0-2.899-1.449-4.348-4.348-4.348h-65.163c-7.187,0-8.478,2.78-3.872,8.339l6.135,7.326Z"/>
      <path class="st0" d="M1138.847,1282.316l41.159.179c8.226.018,16.018-3.605,21.264-9.888l6.135-7.267c4.646-5.52,3.356-8.299-3.871-8.339l-65.163-.179c-2.899-.04-4.348,1.409-4.348,4.348l-.06,16.261c0,3.256,1.628,4.884,4.884,4.884Z"/>
      <path class="st0" d="M972.424,574.116c-.2.036-.4.075-.602.065.033.001.06.02.093.02.175.003.34-.053.509-.085Z"/>
      <path class="st0" d="M1269.708,607.402c-29.861-36.691-72.648-57.479-128.359-62.363-56.943-5.003-106.043,8.915-147.301,41.754-19.735,15.724-28.928,35.162-27.578,58.313,3.931,66.989,36.215,114.362,96.85,142.118,15.248,6.949,29.305,10.602,42.171,10.96,1.826.04,7.962-1.727,18.405-5.301,15.665-5.42,37.168,2.383,56.943-6.611,56.744-25.811,88.65-69.928,95.718-132.35.914-8.061.894-15.943-.059-23.647-1.35-11.357-3.614-18.981-6.79-22.873Z"/>
      <path class="st0" d="M1175.419,963.473c-59.802.198-118.63.099-176.487-.298-2.382-.04-3.574-1.251-3.574-3.634v-34.904c0-3.415,1.708-5.122,5.122-5.122h8.399c2.74,0,4.11,1.39,4.11,4.17v18.524c0,2.007,1.653,3.633,3.693,3.633h71.297c2.025.002,3.966-.766,5.42-2.144,10.364-10.046,25.672-12.627,45.924-7.743,1.87.46,3.477,1.638,4.467,3.276,3.653,5.877,9.51,7.842,17.571,5.897,3.256-.754,4.11-2.621,2.561-5.599-6.194-12.032-13.66-21.582-22.396-28.65-1.549-1.271-3.316-1.966-5.301-2.085-3.296-.238-13.004-.159-29.126.238-7.465.198-10.94-4.368-10.424-13.7.317-5.996,3.474-9.252,9.47-9.769l14.236-1.251c1.016-.088,1.768-.984,1.679-2-.036-.41-.207-.796-.488-1.097-11.496-12.866-22.991-25.196-28.114-39.312-.427-1.239-.468-2.588-.119-3.871l3.395-12.389c.755-2.7-.238-4.308-2.978-4.825-24.362-4.486-46.161-12.62-65.433-24.351-1.668,2.092-3.719,4.402-6.078,6.76-1.107,1.107-2.197,2.126-3.269,3.097.915,1.399,1.683,3.01,2.172,5.023,1.295,5.474-2.093,10.962-7.567,12.257-.019.004-.038.009-.057.013-12.687,2.978-30.556,4.944-41.039,10.721-23.031,12.627-34.745,33.494-35.142,62.601-.477,35.579-.695,58.372-.655,68.379.06,23.587,14.534,57.181,42.528,57.538,1.39,0,68.776.457,202.159,1.37,11.277.079,20.232-4.607,26.863-14.057,2.802-3.978,2.849-9.286.119-13.342-6.969-10.364-19.954-33.415-32.939-33.355Z"/>
      <path class="st0" d="M1193.229,808.727c-1.906.913-2.382,2.303-1.429,4.169,10.324,20.093,17.591,32.78,21.8,38.061,18.901,23.667,39.153,51.344,60.755,83.032,2.581,3.812,1.708,7.942-2.621,12.389-.357.357-1.132.437-2.323.238-7.426-1.31-11.456-2.343-12.092-3.097-29.305-35.897-59.941-76.658-91.906-122.284-8.696-12.389-20.093-15.189-34.189-8.399l-.834.477c-13.342,8.141-15.864,18.525-7.565,31.152,22.912,34.785,46.4,66.076,70.464,93.872,27.935,32.224,47.055,66.473,76.837,100.722,4.586,5.242,14.117,7.028,21.502,4.348,16.32-5.837,14.712-16.44,14.712-31.449.08-52.416.02-84.68-.179-96.791-.357-24.54-2.641-41.576-6.85-51.106-13.342-30.437-39.55-33.534-69.451-40.384-5.519-1.25-8.979-6.736-7.73-12.254.015-.065.03-.13.046-.194.513-2.007,1.279-3.653,2.256-4.995-1.04-.945-2.095-1.934-3.167-3.006-2.341-2.341-4.377-4.633-6.038-6.712-7.004,4.423-14.293,8.54-21.999,12.212Z"/>
      <path class="st0" d="M1258.731,1060.637c-.465-.388-.964-.737-1.352-1.208l-30.735-36.81c-1.311-1.549-2.641-1.588-3.991-.119-11.317,12.151-21.74,18.822-39.61,18.643-59.246-.437-115.156-.377-167.731.179-2.184.04-3.355,1.132-3.514,3.276l-15.01,184.825c-.099,1.015.644,1.918,1.659,2.017.062.006.125.009.187.009h245.461c1.415.003,2.564-1.14,2.567-2.555,0-.062-.002-.123-.006-.185l-11.496-146.705c-.675-8.219,2.76-13.521,10.304-15.903l.417-.179c3.034-.521,5.51-.439,7.456.217,1.011-1.122,2.074-2.263,3.236-3.425.725-.725,1.443-1.408,2.156-2.077Z"/>
      <path class="st0" d="M1305.029,651.598c-.921-.797-2.312-.697-3.109.224-.293.339-.477.759-.525,1.206-1.231,11.754-2.323,20.073-3.276,24.957-.953,4.844-3.058,12.965-6.314,24.361-.334,1.171.345,2.39,1.515,2.724.441.126.911.111,1.344-.043,13.461-4.924,21.224-12.647,23.289-23.17,2.025-10.562-2.283-20.649-12.925-30.258Z"/>
    </g>
    <path class="st3" d="M1222.613,1022.628c-11.317,12.151-21.741,18.822-39.61,18.643-59.246-.437-115.156-.377-167.731.179-2.184.04-3.355,1.132-3.514,3.276l-15.01,184.826c-.099,1.015.644,1.918,1.659,2.017.062.006.125.009.187.009h245.461c1.415.003,2.564-1.14,2.568-2.555,0-.062-.002-.123-.006-.185l-11.496-146.705c-.675-8.22,2.76-13.521,10.304-15.903l.417-.179c7.862-1.35,12.072,1.251,12.627,7.803l14.653,169.458c.55,6.609-4.352,12.417-10.96,12.985l-23.051,1.966c-1.747.159-2.859,1.072-3.336,2.74-5.242,18.187-15.228,31.033-29.96,38.538-8.895,4.487-23.667,6.711-44.315,6.671-11.992-.04-41.039.04-87.141.238-37.882.159-60.04-15.228-66.473-46.162-.371-1.875-2.02-3.224-3.931-3.216h-23.706c-5-.017-9.042-4.058-9.027-9.025,0-.248.012-.496.033-.743l15.844-195.607c.238-2.78-1.032-4.15-3.812-4.11-26.148.715-50.629-18.762-63.971-39.967-4.845-7.624-7.287-18.107-7.326-31.45-.079-24.898.119-47.333.596-67.307.596-26.248,3.852-45.05,9.768-56.407,16.916-32.363,45.685-49.319,86.308-50.867,6.631-.278,10.781,3.018,12.449,9.888,1.295,5.474-2.093,10.962-7.567,12.257-.019.005-.038.009-.057.013-12.687,2.978-30.556,4.944-41.039,10.721-23.031,12.627-34.745,33.495-35.142,62.601-.476,35.579-.695,58.372-.655,68.379.06,23.587,14.534,57.181,42.528,57.538,1.39,0,68.776.457,202.159,1.37,11.277.079,20.232-4.606,26.863-14.057,2.802-3.979,2.849-9.286.119-13.342-6.969-10.364-19.954-33.415-32.939-33.356-59.802.199-118.631.099-176.487-.298-2.383-.04-3.574-1.251-3.574-3.633v-34.904c0-3.415,1.707-5.123,5.122-5.122h8.398c2.74,0,4.11,1.39,4.11,4.169v18.524c0,2.007,1.653,3.633,3.693,3.633h71.298c2.025.002,3.965-.766,5.42-2.144,10.364-10.046,25.672-12.627,45.924-7.743,1.87.46,3.477,1.638,4.467,3.276,3.653,5.877,9.51,7.843,17.571,5.897,3.256-.754,4.11-2.621,2.561-5.599-6.195-12.032-13.66-21.582-22.396-28.65-1.549-1.271-3.316-1.966-5.301-2.085-3.296-.238-13.005-.159-29.127.238-7.465.199-10.94-4.368-10.424-13.7.318-5.996,3.475-9.252,9.471-9.768l14.236-1.251c1.016-.089,1.768-.984,1.679-2-.036-.41-.207-.796-.488-1.097-11.496-12.866-22.992-25.195-28.114-39.312-.427-1.239-.468-2.588-.119-3.872l3.395-12.389c.755-2.7-.238-4.308-2.978-4.825-54.56-10.046-96.354-38.26-125.381-84.64-1.037-1.689-2.669-2.94-4.586-3.514-5.718-1.668-11.933-3.117-18.643-4.348-52.297-9.59-59.206-74.454-17.095-98.22,2.78-1.549,6.751-3.693,11.913-6.433,1.827-.953,2.799-2.462,2.919-4.527,1.985-37.724,3.733-67.108,5.242-88.154,4.05-56.824,77.254-90.179,127.823-95.183,75.884-7.505,150.457-2.442,202.456,55.632,10.841,12.111,17.015,31.191,18.524,57.241,1.787,31.37,3.375,55.156,4.765,71.357.159,1.946,1.092,3.415,2.799,4.408.596.318,3.832,2.144,9.709,5.48,25.731,14.593,36.334,43.541,23.349,70.225-10.602,21.622-31.867,27.518-55.99,31.39-1.946.318-3.435,1.31-4.467,2.978-20.569,32.641-48.524,57.38-83.865,74.216-1.906.913-2.383,2.303-1.43,4.169,10.324,20.093,17.591,32.78,21.8,38.061,18.901,23.667,39.153,51.344,60.755,83.032,2.581,3.812,1.707,7.942-2.621,12.389-.357.357-1.132.437-2.323.238-7.426-1.31-11.456-2.343-12.091-3.097-29.305-35.897-59.941-76.658-91.906-122.284-8.696-12.389-20.093-15.189-34.189-8.398l-.834.477c-13.342,8.14-15.864,18.524-7.565,31.152,22.912,34.785,46.4,66.076,70.464,93.872,27.935,32.224,47.055,66.473,76.837,100.722,4.586,5.242,14.117,7.028,21.502,4.348,16.32-5.837,14.712-16.44,14.712-31.45.079-52.416.02-84.679-.179-96.791-.357-24.54-2.641-41.575-6.85-51.106-13.342-30.437-39.55-33.534-69.451-40.384-5.518-1.249-8.979-6.736-7.73-12.254.015-.065.03-.13.046-.194,2.085-8.16,8.279-10.483,16.38-9.768,42.687,3.891,70.642,22.376,83.865,55.454,5.758,14.414,8.677,43.303,8.756,86.665.079,44.871.298,73.998.655,87.38.278,10.642-6.81,19.835-21.264,27.578-14.573,7.862-30.655,9.232-48.246,4.11-1.941-.544-3.666-1.667-4.944-3.216l-30.735-36.81c-1.31-1.549-2.641-1.588-3.991-.119ZM1122.069,520.388c55.811-.179,106.38,16.261,148.73,52.475,1.132.954,2.823.81,3.777-.322.415-.493.639-1.119.631-1.763-.238-21.681-.119-48.783-14.653-65.46-33.594-38.24-89.167-50.033-138.664-49.914-49.497.119-105.011,12.27-138.366,50.689-14.474,16.737-14.176,43.839-14.295,65.52-.02,1.48,1.165,2.696,2.645,2.715.644.008,1.27-.215,1.763-.631,42.171-36.453,92.621-53.19,148.432-53.309ZM1123.856,793.01c15.665-5.42,37.168,2.383,56.943-6.612,56.744-25.811,88.65-69.928,95.719-132.35.913-8.061.894-15.943-.06-23.647-1.35-11.357-3.613-18.981-6.79-22.872-29.861-36.691-72.648-57.479-128.359-62.363-56.943-5.003-106.043,8.915-147.301,41.754-19.735,15.725-28.928,35.162-27.578,58.313,3.931,66.989,36.215,114.362,96.85,142.119,15.248,6.949,29.305,10.602,42.171,10.96,1.827.04,7.962-1.727,18.405-5.301ZM925.629,681.388c1.946,10.483,9.61,18.226,22.992,23.23,1.137.435,2.411-.134,2.846-1.271.165-.431.19-.904.073-1.35-3.177-11.396-5.222-19.517-6.135-24.361-.913-4.844-1.946-13.124-3.097-24.838-.1-1.213-1.165-2.115-2.378-2.015-.463.038-.903.222-1.255.525-10.682,9.53-15.03,19.557-13.044,30.08ZM1317.914,681.984c2.025-10.563-2.283-20.649-12.925-30.258-.92-.797-2.312-.696-3.109.224-.293.339-.477.76-.525,1.205-1.231,11.754-2.323,20.073-3.276,24.957-.953,4.845-3.058,12.965-6.314,24.362-.334,1.17.345,2.39,1.515,2.724.442.126.912.111,1.344-.043,13.461-4.924,21.224-12.647,23.289-23.17ZM1104.856,1256.891h-65.163c-7.187,0-8.478,2.78-3.872,8.339l6.135,7.326c5.229,6.26,12.994,9.881,21.205,9.888h41.158c3.256,0,4.884-1.648,4.884-4.944v-16.261c0-2.899-1.449-4.348-4.348-4.348ZM1138.33,1256.951c-2.899-.04-4.348,1.41-4.348,4.348l-.06,16.261c0,3.256,1.628,4.884,4.884,4.884l41.158.179c8.226.018,16.018-3.605,21.264-9.888l6.135-7.267c4.646-5.52,3.355-8.299-3.872-8.339l-65.163-.179Z"/>
    <path class="st4" d="M1121.891,455.404c49.497-.119,105.07,11.674,138.664,49.914,14.534,16.678,14.414,43.779,14.653,65.46.02,1.48-1.165,2.696-2.645,2.715-.644.008-1.27-.215-1.763-.631-42.35-36.215-92.919-52.654-148.73-52.475-55.811.119-106.261,16.856-148.432,53.309-1.132.954-2.823.81-3.777-.322-.415-.493-.639-1.119-.631-1.763.119-21.681-.179-48.783,14.295-65.52,33.356-38.418,88.869-50.569,138.366-50.689Z"/>
  </g>
  <g>
    <path class="st1" d="M1549.562,368.519c0,66.572-53.968,120.54-120.54,120.54h0c-66.572,0-120.54-53.968-120.54-120.54h0c0-66.572,53.968-120.54,120.54-120.54h0c66.572,0,120.54,53.968,120.54,120.54h0ZM1548.682,368.519c0-65.888-53.412-119.3-119.3-119.3h0c-65.888,0-119.3,53.412-119.3,119.3s53.412,119.3,119.3,119.3,119.3-53.412,119.3-119.3h0Z"/>
    <path class="st2" d="M1440.332,390.399v10.59c0,.398-.318.72-.71.72h-21.36c-.342,0-.62-.282-.62-.63v-32.48c0-.298.242-.54.541-.539.033,0,.067.003.099.009,12.7,2.43,26.07-1.87,29.55-15.62,2.11-8.32-1.83-17.91-9.62-21.83-7.46-3.74-17.75-2.4-23.48,3.77-3,3.227-4.737,7.483-5.21,12.77-.047.522-.481.922-1,.92h-21.55c-.333,0-.605-.272-.61-.61-.21-20.53,9.07-35.93,29.69-40.75,22.06-5.15,47.51,3.83,54.25,26.93,1.953,6.687,2.273,13.86.96,21.52-2.9,16.87-14.07,28.45-30.24,34.25-.414.151-.69.543-.69.98Z"/>
    <path class="st1" d="M1317.952,471.939c0,10.449-8.471,18.92-18.92,18.92h0c-10.449,0-18.92-8.471-18.92-18.92h0c0-10.449,8.471-18.92,18.92-18.92h0c10.449,0,18.92,8.471,18.92,18.92h0ZM1317.078,470.008c-1.048-9.647-9.816-16.607-19.583-15.546-9.768,1.061-16.836,9.742-15.788,19.388,1.048,9.647,9.816,16.607,19.583,15.546,9.768-1.061,16.836-9.742,15.788-19.388Z"/>
  </g>
  <g>
    <path class="st0" d="M424.508,801.288c-.484-.363-.746-.545-.787-.545-14.684-7.907-26.242-6.213-34.673,5.083l-87.501,116.667c-3.469,4.599-8.008,5.688-13.615,3.268-1.492-.605-3.066-2.441-4.72-5.506-2.098-3.873-1.836-7.544.787-11.013l20.09-26.746c3.389-4.559,3.268-9.037-.363-13.434l-22.45-26.867c-4.922-5.89-10.186-6.212-15.794-.968-13.877,12.95-20.958,33.968-21.24,63.054-.242,27.231-.424,62.126-.545,104.686,0,13.858,4.418,18.275,15.733,23.6,4.478,2.138,10.045,1.129,16.701-3.026,6.293-3.953,11.054-8.008,14.281-12.163,20.009-25.536,66.382-86.936,139.118-184.199,9.037-12.102,7.362-22.732-5.023-31.89Z"/>
    <path class="st0" d="M384.025,781.379c17.226-9.843,35.48-9.541,54.764.908,9.198,4.962,13.494,14.22,17.246,21.361,2.017,3.752,5.043,4.962,9.077,3.631,55.994-18.436,87.985-55.046,95.972-109.83,4.478-30.781,1.271-60.109-9.621-87.985-1.404-3.646-4.466-6.393-8.23-7.383-64.587-17.468-129.436-19.586-194.547-6.354-25.113,5.083-36.247,4.297-41.996,29.591-15.249,66.261-1.573,124.171,54.582,165.017,1.743,1.259,4.031,1.446,5.93.484,1.573-.807,7.181-3.953,16.822-9.44Z"/>
    <path class="st0" d="M516.365,1252.044l-67.592.605c-3.026.04-4.538,1.553-4.538,4.538l.182,16.883c.04,3.389,1.755,5.083,5.143,5.083l42.661-.424c8.534-.063,16.584-3.899,21.966-10.468l6.293-7.625c4.72-5.809,3.348-8.674-4.115-8.593Z"/>
    <path class="st0" d="M268.06,1143.031c-5.938,21.574-13.339,48.182-22.244,79.966-.401,1.484.477,3.012,1.961,3.413.229.062.465.094.702.096h367.491c1.37-.017,2.468-1.141,2.451-2.511-.003-.215-.033-.429-.091-.636l-53.372-190.311c-.508-1.717-2.082-2.898-3.873-2.905-126.309-1.008-190.19-1.512-191.642-1.513-9.44-.04-17.569-2.924-24.387-8.653-5.809-4.921-10.852-9.278-15.128-13.07-1.815-1.654-3.409-1.473-4.78.544-4.397,6.455-12.849,17.912-25.355,34.371-1.64,2.164-3.349,4.292-5.268,6.138-5.625,21.005-14.366,52.734-26.19,95.069h-.275Z"/>
    <path class="st0" d="M589.068,836.718c-.118.124-.228.255-.33.393-27.432,36.388-59.463,67.37-96.093,92.947-3.026,2.098-2.683,3.147,1.029,3.147h51.315c2.057,0,3.086-1.049,3.086-3.147v-14.523c0-2.138.888-3.812,2.663-5.022,3.268-2.219,7.1-2.663,11.497-1.331,2.083.638,3.506,2.577,3.51,4.781v32.676c0,2.501-1.231,3.772-3.691,3.812-65.757.888-124.918.948-177.482.182-13.111-.202-22.612,5.103-28.501,15.915-6.354,11.679-12.224,20.635-5.628,31.769,5.648,9.48,14.523,14.14,26.626,13.978,44.497-.605,108.74-.686,192.731-.242,20.271.061,36.489-4.296,45.263-22.268,3.147-6.495,4.68-18.335,4.599-35.521-.302-49.801,6.717-87.38-24.689-117.696-1.672-1.588-4.315-1.52-5.903.152Z"/>
    <path class="st0" d="M415.068,1252.528h-66.866c-7.383,0-8.714,2.844-3.994,8.532l6.293,7.503c5.364,6.442,13.346,10.167,21.784,10.166h42.238c3.348,0,5.022-1.674,5.022-5.023v-16.701c0-2.985-1.492-4.478-4.478-4.478Z"/>
    <path class="st3" d="M616.088,1226.931c1.37-.017,2.467-1.141,2.451-2.511-.003-.215-.033-.429-.091-.636l-53.372-190.311c-.508-1.717-2.082-2.898-3.873-2.905-126.309-1.009-190.19-1.513-191.642-1.513-9.44-.04-17.569-2.925-24.386-8.653-5.809-4.922-10.852-9.279-15.128-13.071-1.815-1.654-3.409-1.472-4.78.545-4.397,6.455-12.849,17.912-25.355,34.371-4.357,5.749-9.198,11.255-17.185,11.86-24.205,1.936-43.508.06-56.821-19.364-4.438-6.535-6.576-16.943-6.414-31.224.121-7.06.02-42.944-.303-107.651-.161-33.685,12.143-60.048,36.912-79.089,2.622-2.017,3.005-4.397,1.15-7.14-48.652-71.707-59.726-154.911-28.622-236.3,30.438-79.574,97.546-135.547,182.444-139.662,20.453-.968,40.099-.363,58.939,1.815,66.806,7.746,124.655,54.098,153.943,113.339,43.629,88.408,37.215,178.511-17.367,260.384-1.615,2.422-1.117,5.676,1.15,7.504,29.288,23.781,36.852,49.378,36.852,88.348,0,22.632.101,45.223.303,67.774.363,32.314-22.269,46.715-49.741,64.688-1.815,1.21-2.42,2.864-1.815,4.962l54.098,192.974c2.005,7.108-2.132,14.496-9.24,16.502-1.187.335-2.415.504-3.649.502h-82.781c-1.896,0-3.086.928-3.57,2.784-4.357,16.742-13.474,29.893-27.352,39.454-9.157,6.334-23.418,9.541-42.782,9.621-30.014.202-59.988.242-89.921.121-20.09-.121-34.613-2.945-43.569-8.472-14.684-9.158-24.003-22.208-27.957-39.151-.639-2.59-2.96-4.412-5.628-4.417h-85.322c-5.748,0-10.415-4.632-10.424-10.348-.002-.941.126-1.877.379-2.783l46.413-167.074c2.1-7.599,9.921-12.092,17.468-10.033,1.887.515,3.645,1.417,5.163,2.651,2.017,1.654,2.38,5.708,1.089,12.163-2.017,10.085-15.289,58.899-39.817,146.44-.401,1.484.477,3.012,1.961,3.413.229.062.465.094.702.096h367.491ZM381.24,521.177c1.228,4.749.162,9.257-2.663,11.255-20.776,14.442-34.996,26.545-42.661,36.307-3.51,4.478-2.461,6.213,3.147,5.204,16.217-2.864,28.945-4.962,38.183-6.293,50.306-7.14,98.857-5.244,145.653,5.688,8.835,2.057,10.065-.141,3.691-6.596-8.472-8.633-22.349-20.07-41.632-34.31-4.357-3.268-4.821-7.766-1.392-13.494.403-.645,1.049-1.19,1.936-1.634,5.406-2.542,9.843-2.703,13.313-.484,64.788,40.826,93.471,99.18,86.048,175.062-7.261,74.107-47.139,120.359-119.633,138.755-4.034,1.009-7.322,3.187-9.863,6.535l-64.325,85.867c-.939,1.301-.645,3.116.656,4.055.446.322.974.51,1.523.544,13.313.686,27.755.766,43.327.242,10.892-.403,23.68-5.365,38.365-14.886,92.886-60.331,173.125-174.638,149.647-290.58-20.756-102.084-95.549-171.794-201.808-167.316-108.377,4.599-176.696,87.077-188.072,190.553-8.169,74.612,34.855,152.733,84.838,206.468,2.743,2.905,5.325,2.763,7.746-.424l22.995-30.74c2.824-3.752,2.32-6.979-1.513-9.682-54.259-38.405-77.657-92.039-70.194-160.902,6.334-58.293,35.198-102.83,86.593-133.611,3.417-2.055,9.149-1.127,14.583,2.36.766.484,1.271,1.17,1.513,2.057ZM438.908,782.711c9.198,4.962,13.494,14.22,17.246,21.361,2.017,3.752,5.043,4.962,9.077,3.631,55.994-18.436,87.985-55.046,95.972-109.83,4.478-30.781,1.271-60.109-9.621-87.985-1.404-3.646-4.466-6.393-8.23-7.382-64.587-17.468-129.436-19.586-194.547-6.354-25.113,5.083-36.247,4.296-41.995,29.591-15.249,66.261-1.573,124.171,54.582,165.017,1.742,1.259,4.03,1.446,5.93.484,1.573-.807,7.181-3.953,16.822-9.44,17.226-9.843,35.48-9.541,54.764.908ZM283.331,920.679c-2.098-3.873-1.836-7.544.787-11.013l20.09-26.746c3.389-4.559,3.268-9.036-.363-13.434l-22.45-26.867c-4.922-5.89-10.186-6.213-15.794-.968-13.877,12.95-20.957,33.968-21.24,63.054-.242,27.231-.424,62.126-.545,104.686,0,13.857,4.417,18.275,15.733,23.6,4.478,2.138,10.045,1.13,16.701-3.026,6.293-3.953,11.054-8.008,14.281-12.163,20.009-25.536,66.382-86.936,139.118-184.199,9.036-12.102,7.362-22.732-5.023-31.89-.484-.363-.746-.545-.787-.545-14.684-7.907-26.242-6.213-34.674,5.083l-87.501,116.668c-3.469,4.599-8.008,5.688-13.615,3.268-1.493-.605-3.066-2.441-4.72-5.507ZM562.171,950.874c-65.757.888-124.917.948-177.482.182-13.111-.202-22.611,5.103-28.501,15.915-6.354,11.679-12.223,20.635-5.628,31.769,5.648,9.48,14.523,14.14,26.625,13.978,44.497-.605,108.741-.686,192.731-.242,20.272.061,36.489-4.296,45.263-22.269,3.147-6.495,4.68-18.335,4.599-35.521-.303-49.802,6.717-87.38-24.689-117.696-1.672-1.588-4.315-1.52-5.903.152-.118.124-.228.255-.33.393-27.432,36.388-59.463,67.37-96.093,92.947-3.026,2.098-2.683,3.147,1.029,3.147h51.314c2.057,0,3.086-1.049,3.086-3.147v-14.523c0-2.138.888-3.812,2.663-5.023,3.268-2.219,7.1-2.663,11.497-1.331,2.083.638,3.506,2.577,3.51,4.78v32.677c0,2.501-1.23,3.772-3.691,3.812ZM415.187,1252.951h-66.866c-7.383,0-8.714,2.844-3.994,8.532l6.293,7.503c5.364,6.443,13.346,10.167,21.784,10.166h42.238c3.348,0,5.023-1.674,5.023-5.023v-16.701c0-2.985-1.493-4.478-4.478-4.478ZM448.892,1253.072c-3.026.04-4.538,1.553-4.538,4.538l.182,16.883c.04,3.389,1.755,5.083,5.144,5.083l42.661-.424c8.534-.063,16.583-3.899,21.966-10.469l6.293-7.625c4.72-5.809,3.348-8.673-4.115-8.593l-67.592.605Z"/>
    <path class="st4" d="M381.24,521.177c-.242-.888-.746-1.573-1.513-2.057-5.434-3.487-11.167-4.415-14.583-2.36-51.395,30.781-80.259,75.318-86.593,133.611-7.463,68.863,15.935,122.497,70.194,160.902,3.832,2.703,4.337,5.93,1.513,9.682l-22.995,30.74c-2.42,3.187-5.002,3.328-7.746.424-49.983-53.735-93.007-131.856-84.838-206.468,11.376-103.476,79.695-185.954,188.072-190.553,106.259-4.478,181.053,65.232,201.808,167.316,23.479,115.941-56.76,230.249-149.647,290.58-14.684,9.521-27.473,14.483-38.365,14.886-15.572.524-30.014.444-43.327-.242-1.601-.098-2.82-1.475-2.722-3.076.033-.549.222-1.077.544-1.523l64.325-85.867c2.542-3.348,5.829-5.527,9.863-6.535,72.494-18.396,112.371-64.647,119.633-138.755,7.423-75.882-21.26-134.236-86.048-175.062-3.469-2.219-7.907-2.057-13.313.484-.888.444-1.533.988-1.936,1.634-3.429,5.728-2.965,10.227,1.392,13.494,19.283,14.241,33.161,25.677,41.632,34.31,6.374,6.455,5.144,8.653-3.691,6.596-46.796-10.933-95.347-12.829-145.653-5.688-9.238,1.331-21.966,3.429-38.183,6.293-5.607,1.009-6.656-.726-3.147-5.204,7.665-9.763,21.885-21.865,42.661-36.307,2.824-1.998,3.891-6.506,2.663-11.255Z"/>
  </g>
  <path class="st5" d="M645.041,310.189c4.85,3.627,6.584,9.948,1.301,14.227-8.393,6.812-15.554,12.292-21.483,16.443-2.921,2.052-8.066-2.9-9.674-4.963-5.785-7.413-10.893-13.848-15.323-19.306-2.059-2.538-3.991-9.369-2.501-12.891,1.708-4.039,4.691-6.823,8.234-10.109,2.067-1.924,3.499-3.489,4.297-4.696,3.066-4.647,4.71-9.463,4.933-14.448.517-11.708-6.244-22.018-17.56-25.848-4.365-1.478-8.71-1.557-13.037-.235-5.569,1.702-10.155,4.879-13.757,9.532-5.442,7.038-6.577,14.458-3.405,22.262,2.528,6.22,5.701,10.303-.015,14.916-7.796,6.29-13.663,11.124-17.598,14.502-.462.395-1.209.883-2.241,1.463-8.572,4.811-13.064-5.83-16.372-11.42-1.683-2.847-2.887-5.125-3.61-6.835-4.246-10.042-5.596-19.855-4.049-29.439,1.641-10.149,6.11-19.732,13.407-28.748,9.455-11.677,21.283-19.994,35.485-24.949,3.395-1.185,7.612-1.836,11.425-2.64,24.66-5.221,47.733,8.546,61.034,29.33,4.89,7.65,8.039,14.825,9.447,21.525,3.036,14.404,1.486,28.312-4.65,41.724-1.259,2.739-2.783,5.867-4.572,9.384-.243.488-.149.894.282,1.22Z"/>
  <ellipse class="st5" cx="653.129" cy="351.715" rx="20.15" ry="19.18" transform="translate(-80.796 459.581) rotate(-36.664)"/>
</svg>