<?xml version="1.0" encoding="UTF-8"?>
<svg id="Layer_1" data-name="Layer 1" xmlns="http://www.w3.org/2000/svg" viewBox="0 0 493.07 534.37">
  <defs>
    <style>
      .cls-1, .cls-2 {
        fill: #d8ac6b;
      }

      .cls-1, .cls-3 {
        fill-rule: evenodd;
      }

      .cls-4, .cls-3 {
        fill: #0e526e;
      }
    </style>
  </defs>
  <path class="cls-3" d="M246.4,381.14c-59.14-31.95-143.2-10.97-162.43,3.46l24.69-59.31,32.3-8.34-18.5,41.48c28.26-8.92,81.52-9.45,123.93,22.71h0Z"/>
  <path class="cls-1" d="M259.16,439.8c-1.63,1.43-3.2,2.7-4.37,3.87-1.16-1.16-2.81-2.39-4.37-3.87-50.13-41.04-117.08-55.18-179.52-37.92,92.15-56.95,183.85,1.76,183.9,1.73,1.18.76,89.66-59.96,183.9-1.73-62.45-17.26-129.39-3.12-179.52,37.92h0Z"/>
  <path class="cls-1" d="M203.8,57.8c3.59-5.9,8.33-10.9,13.61-15.32,3.31-2.78,6.81-5.31,10.37-7.78,2.73-1.89,5.51-3.72,8.18-5.68.89-.65,2.55-1.82,3.32-2.7L254.79,0l15.52,26.33c.77.88,2.43,2.04,3.32,2.7,2.67,1.97,5.45,3.8,8.18,5.68,3.56,2.46,7.06,4.99,10.37,7.78,5.27,4.43,10.02,9.42,13.61,15.32,6.69-1.62,13.62-1.81,20.46-1.21,4.31.38,8.58,1.06,12.83,1.84,3.27.6,6.52,1.27,9.8,1.77,1.09.17,3.09.52,4.25.44l29.59-7.64-7.64,29.59c-.08,1.17.27,3.16.44,4.25.5,3.28,1.17,6.54,1.77,9.8.78,4.25,1.46,8.52,1.84,12.83.6,6.84.41,13.76-1.21,20.46,5.9,3.59,10.89,8.33,15.32,13.61,2.78,3.31,5.32,6.81,7.77,10.37,1.89,2.73,3.72,5.51,5.68,8.18.65.89,1.82,2.55,2.7,3.32l26.33,15.52-26.33,15.52c-.88.77-2.04,2.43-2.7,3.32-1.97,2.67-3.8,5.45-5.68,8.18-2.46,3.56-4.99,7.06-7.77,10.37-4.43,5.27-9.42,10.01-15.32,13.61,1.62,6.69,1.81,13.62,1.21,20.46-.38,4.31-1.06,8.58-1.84,12.83-.6,3.27-1.27,6.52-1.77,9.8-.17,1.09-.52,3.09-.44,4.25l7.64,29.59-29.59-7.64c-1.17-.08-3.16.27-4.25.44-3.28.5-6.54,1.17-9.8,1.77-4.25.78-8.52,1.46-12.83,1.84-6.84.6-13.76.41-20.46-1.21-3.59,5.9-8.33,10.89-13.61,15.32-3.31,2.78-6.81,5.32-10.37,7.77-2.73,1.89-5.51,3.71-8.18,5.68-.89.65-2.55,1.82-3.32,2.7l-15.52,26.33-15.52-26.33c-.77-.88-2.43-2.04-3.32-2.7-2.67-1.97-5.45-3.8-8.18-5.68-3.56-2.46-7.06-4.99-10.37-7.77-5.27-4.43-10.01-9.42-13.61-15.32-6.69,1.62-13.62,1.81-20.46,1.21-4.31-.38-8.58-1.06-12.83-1.84-3.26-.6-6.52-1.27-9.8-1.77-1.09-.17-3.09-.52-4.25-.44l-29.59,7.64,7.64-29.59c.08-1.17-.27-3.16-.44-4.25-.5-3.28-1.17-6.54-1.77-9.8-.78-4.25-1.46-8.52-1.84-12.83-.6-6.84-.41-13.76,1.21-20.46-5.9-3.59-10.9-8.33-15.32-13.61-2.78-3.31-5.32-6.81-7.77-10.37-1.89-2.73-3.71-5.51-5.68-8.18-.65-.89-1.82-2.55-2.7-3.32l-26.33-15.52,26.33-15.52c.88-.77,2.04-2.43,2.7-3.32,1.97-2.67,3.8-5.45,5.68-8.18,2.46-3.56,4.99-7.06,7.77-10.37,4.43-5.27,9.42-10.01,15.32-13.61-1.62-6.69-1.81-13.62-1.21-20.46.38-4.31,1.06-8.58,1.84-12.83.6-3.26,1.27-6.52,1.77-9.8.17-1.09.52-3.09.44-4.25l-7.64-29.59,29.59,7.64c1.17.08,3.16-.27,4.25-.44,3.28-.5,6.54-1.17,9.8-1.77,4.25-.78,8.52-1.46,12.83-1.84,6.84-.6,13.76-.41,20.46,1.21h0ZM209.98,72.72c.77-2.86,1.96-5.71,3.64-8.52,2.94-4.92,6.95-9.08,11.32-12.75,3.03-2.55,6.25-4.86,9.5-7.11,2.83-1.95,5.7-3.85,8.46-5.88,2.04-1.5,5.01-3.73,6.32-5.94l5.57-9.44,5.56,9.44c1.31,2.22,4.29,4.44,6.32,5.94,2.77,2.04,5.64,3.93,8.46,5.88,3.26,2.25,6.47,4.56,9.5,7.11,4.37,3.67,8.38,7.82,11.32,12.75,1.68,2.82,2.87,5.66,3.64,8.52,2.57-1.48,5.42-2.64,8.6-3.45,5.55-1.4,11.34-1.51,17.01-1.01,3.95.35,7.85.98,11.75,1.69,3.38.62,6.75,1.31,10.15,1.82,2.5.38,6.18.91,8.67.27l10.61-2.74-2.74,10.61c-.64,2.49-.11,6.17.27,8.67.52,3.4,1.21,6.77,1.83,10.15.71,3.89,1.35,7.8,1.69,11.75.5,5.68.39,11.47-1.01,17.01-.8,3.18-1.97,6.03-3.45,8.6,2.86.77,5.71,1.96,8.52,3.64,4.92,2.94,9.08,6.95,12.75,11.32,2.55,3.03,4.86,6.25,7.11,9.5,1.95,2.83,3.85,5.7,5.88,8.46,1.5,2.04,3.73,5.01,5.94,6.32l9.44,5.57-9.44,5.57c-2.22,1.31-4.44,4.29-5.94,6.32-2.04,2.77-3.93,5.64-5.88,8.46-2.25,3.26-4.57,6.47-7.11,9.5-3.67,4.37-7.82,8.38-12.75,11.32-2.82,1.68-5.66,2.87-8.52,3.64,1.48,2.57,2.65,5.42,3.45,8.6,1.4,5.55,1.51,11.34,1.01,17.01-.35,3.95-.98,7.85-1.69,11.75-.62,3.38-1.31,6.75-1.83,10.15-.38,2.5-.91,6.18-.27,8.67l2.74,10.61-10.61-2.74c-2.49-.64-6.17-.11-8.67.27-3.4.52-6.77,1.21-10.15,1.82-3.89.71-7.8,1.35-11.75,1.69-5.68.5-11.46.39-17.02-1.01-3.18-.8-6.03-1.97-8.6-3.45-.77,2.86-1.96,5.71-3.64,8.52-2.94,4.92-6.95,9.08-11.32,12.75-3.03,2.55-6.25,4.86-9.5,7.11-2.83,1.95-5.7,3.85-8.46,5.88-2.04,1.5-5.02,3.73-6.32,5.94l-5.57,9.44-5.57-9.44c-1.31-2.22-4.29-4.44-6.32-5.94-2.77-2.04-5.64-3.93-8.46-5.88-3.26-2.25-6.47-4.57-9.5-7.11-4.37-3.67-8.38-7.82-11.32-12.75-1.68-2.82-2.87-5.66-3.64-8.52-2.57,1.48-5.42,2.64-8.6,3.45-5.55,1.4-11.34,1.51-17.01,1.01-3.95-.35-7.85-.98-11.75-1.69-3.38-.62-6.75-1.31-10.15-1.82-2.5-.38-6.18-.91-8.67-.27l-10.61,2.74,2.74-10.61c.64-2.49.11-6.17-.27-8.67-.52-3.4-1.21-6.77-1.82-10.15-.71-3.89-1.35-7.8-1.69-11.75-.5-5.68-.39-11.46,1.01-17.01.8-3.18,1.97-6.03,3.45-8.6-2.86-.77-5.71-1.96-8.52-3.64-4.92-2.94-9.08-6.95-12.75-11.32-2.55-3.03-4.86-6.25-7.11-9.5-1.95-2.83-3.85-5.7-5.88-8.46-1.5-2.04-3.73-5.01-5.94-6.32l-9.44-5.57,9.44-5.57c2.22-1.31,4.44-4.29,5.94-6.32,2.04-2.77,3.93-5.64,5.88-8.46,2.25-3.26,4.57-6.47,7.11-9.5,3.67-4.37,7.82-8.38,12.75-11.32,2.82-1.68,5.66-2.87,8.52-3.64-1.48-2.57-2.65-5.42-3.45-8.6-1.4-5.55-1.51-11.34-1.01-17.01.35-3.94.98-7.85,1.69-11.75.62-3.38,1.31-6.75,1.82-10.15.38-2.5.91-6.18.27-8.67l-2.74-10.61,10.61,2.74c2.49.64,6.17.11,8.67-.27,3.4-.52,6.77-1.21,10.15-1.82,3.89-.71,7.8-1.35,11.75-1.69,5.68-.5,11.46-.39,17.01,1.01,3.18.8,6.03,1.97,8.6,3.45h0ZM198.77,157.71v16.47l-16.47-9.51c-4.69-2.71-10.74-5.51-15.91-2.42-2.28,1.36-4.31,3.48-6,5.5-3.46,4.12-6.32,8.78-9.46,13.17,3.14,4.38,6.01,9.05,9.46,13.17,1.7,2.02,3.72,4.14,6,5.5,5.18,3.09,11.22.29,15.91-2.42l16.47-9.51v16.47l11.64,11.64-18.37,4.92c-5.23,1.4-11.49,3.7-12.96,9.54-.65,2.57-.58,5.51-.35,8.13.47,5.36,1.74,10.68,2.62,16,5.32.88,10.64,2.15,16,2.62,2.63.23,5.56.3,8.13-.35,5.85-1.48,8.14-7.73,9.54-12.96l4.92-18.37,11.64,11.64h16.47l-9.51,16.47c-2.71,4.69-5.51,10.74-2.42,15.91,1.36,2.28,3.48,4.31,5.5,6,4.12,3.46,8.78,6.32,13.17,9.46,4.38-3.14,9.05-6.01,13.17-9.46,2.02-1.7,4.14-3.72,5.5-6,3.09-5.18.29-11.22-2.42-15.91l-9.51-16.47h16.47l11.64-11.64,4.92,18.37c1.4,5.23,3.7,11.49,9.54,12.97,2.58.65,5.51.58,8.13.35,5.36-.47,10.68-1.74,16-2.62.88-5.32,2.15-10.64,2.62-16,.23-2.63.3-5.56-.36-8.13-1.48-5.85-7.73-8.14-12.96-9.54l-18.36-4.92,11.64-11.64v-16.47l16.47,9.51c4.69,2.71,10.73,5.51,15.91,2.42,2.28-1.36,4.31-3.48,6-5.5,3.46-4.12,6.32-8.78,9.46-13.17-3.14-4.38-6.01-9.05-9.46-13.17-1.7-2.02-3.72-4.14-6-5.5-5.18-3.09-11.22-.29-15.91,2.42l-16.47,9.51v-16.47l-11.64-11.64,18.36-4.92c5.23-1.4,11.49-3.7,12.96-9.54.65-2.57.58-5.5.36-8.13-.47-5.36-1.74-10.68-2.62-16-5.32-.88-10.64-2.15-16-2.62-2.63-.23-5.56-.3-8.13.36-5.85,1.48-8.14,7.73-9.54,12.97l-4.92,18.37-11.64-11.64h-16.47l9.51-16.47c2.71-4.69,5.51-10.74,2.42-15.91-1.36-2.28-3.48-4.31-5.5-6-4.12-3.46-8.78-6.32-13.17-9.46-4.38,3.14-9.05,6-13.17,9.46-2.02,1.7-4.14,3.72-5.5,6-3.09,5.18-.29,11.22,2.42,15.91l9.51,16.47h-16.47l-11.64,11.64-4.92-18.36c-1.4-5.23-3.7-11.49-9.54-12.97-2.57-.65-5.51-.58-8.13-.36-5.36.47-10.68,1.74-16,2.62-.88,5.32-2.15,10.64-2.62,16-.23,2.63-.3,5.56.35,8.13,1.48,5.85,7.73,8.14,12.96,9.54l18.37,4.92-11.64,11.64h0ZM165.15,180.91c1.34,1.94,2.73,3.85,4.22,5.63.6.72,1.61,1.89,2.5,2.6,1.35-.32,3.72-1.64,4.58-2.13l10.56-6.1-10.56-6.1c-.86-.5-3.23-1.82-4.58-2.13-.89.71-1.9,1.88-2.5,2.6-1.49,1.78-2.88,3.69-4.22,5.63h0ZM210.49,167.35v31.91l12.98,12.98,12.98,12.98h36.7l12.98-12.98,12.98-12.98v-36.7l-12.98-12.98-12.98-12.98h-36.7l-12.98,12.98-12.98,12.98v4.79h0ZM206.86,228.84l-11.78,3.15c-.96.26-3.57,1-4.74,1.73-.13,1.13-.01,2.67.07,3.61.2,2.32.57,4.64,1,6.97,2.32.42,4.65.8,6.97,1,.93.08,2.47.19,3.61.07.73-1.18,1.47-3.79,1.73-4.74l3.15-11.78h0ZM254.79,248.7l-6.1,10.56c-.5.86-1.82,3.23-2.13,4.58.71.89,1.88,1.9,2.6,2.5,1.78,1.49,3.69,2.88,5.63,4.22,1.94-1.34,3.85-2.73,5.63-4.22.72-.6,1.89-1.61,2.6-2.5-.32-1.35-1.64-3.72-2.13-4.58l-6.1-10.56h0ZM302.72,228.84l3.15,11.78c.26.96,1,3.57,1.73,4.74,1.14.13,2.67.01,3.61-.07,2.32-.2,4.64-.57,6.97-1,.42-2.32.8-4.65,1-6.97.08-.93.2-2.47.07-3.61-1.18-.73-3.79-1.47-4.74-1.73l-11.78-3.15h0ZM322.58,180.91l10.56,6.1c.86.5,3.23,1.82,4.58,2.13.89-.71,1.9-1.88,2.5-2.6,1.49-1.78,2.88-3.69,4.22-5.63-1.34-1.94-2.73-3.85-4.22-5.63-.6-.72-1.61-1.89-2.5-2.6-1.35.32-3.72,1.64-4.58,2.13l-10.56,6.1h0ZM302.72,132.98l11.78-3.15c.96-.26,3.57-1,4.74-1.73.13-1.14.01-2.67-.07-3.61-.2-2.32-.58-4.64-1-6.97-2.32-.42-4.65-.8-6.97-1-.93-.08-2.47-.19-3.61-.07-.73,1.18-1.47,3.79-1.73,4.75l-3.15,11.78h0ZM254.79,113.13l6.1-10.56c.5-.86,1.82-3.23,2.13-4.58-.71-.89-1.88-1.9-2.6-2.5-1.78-1.5-3.69-2.88-5.63-4.22-1.94,1.34-3.85,2.72-5.63,4.22-.72.6-1.89,1.61-2.6,2.5.32,1.35,1.64,3.72,2.13,4.58l6.1,10.56h0ZM206.86,132.98l-3.15-11.78c-.26-.96-1-3.57-1.73-4.75-1.13-.13-2.67-.01-3.61.07-2.32.2-4.64.57-6.97,1-.42,2.32-.8,4.65-1,6.97-.08.93-.2,2.47-.07,3.61,1.18.73,3.79,1.47,4.74,1.73l11.78,3.15h0Z"/>
  <path class="cls-3" d="M392.04,172.86c-2.07-2.82-4-5.75-5.99-8.62-2.14-3.09-4.33-6.15-6.75-9.03-3.18-3.79-6.82-7.37-11.1-9.92-6.43-3.83-13.03-4.51-19.51-3.27,5.46-3.7,9.65-8.85,11.48-16.1,1.22-4.83,1.27-9.93.84-14.87-.33-3.75-.94-7.46-1.61-11.15-.63-3.44-1.33-6.88-1.86-10.34-.5-3.28-1.07-7.64-.13-11.26-3.62.94-7.98.37-11.26-.13-3.46-.53-6.9-1.23-10.34-1.86-3.69-.67-7.4-1.28-11.15-1.61-4.94-.43-10.03-.38-14.87.84-7.25,1.83-12.4,6.02-16.1,11.48,1.24-6.48.56-13.08-3.27-19.51-2.55-4.28-6.12-7.92-9.92-11.1-2.88-2.42-5.94-4.61-9.03-6.75-2.87-1.99-5.8-3.92-8.62-5.99-2.67-1.97-6.16-4.65-8.05-7.87-1.9,3.22-5.39,5.9-8.06,7.87-2.82,2.07-5.75,4-8.62,5.99-3.09,2.14-6.15,4.33-9.02,6.75-3.8,3.18-7.37,6.82-9.93,11.1-3.83,6.43-4.51,13.03-3.27,19.51-3.7-5.46-8.85-9.65-16.1-11.48-4.83-1.22-9.93-1.27-14.87-.84-3.74.33-7.46.94-11.15,1.61-3.44.63-6.88,1.33-10.33,1.86-3.29.5-7.65,1.07-11.26.13.93,3.62.36,7.98-.14,11.26-.53,3.46-1.23,6.9-1.86,10.34-.67,3.69-1.28,7.4-1.61,11.15-.43,4.94-.38,10.04.84,14.87,1.84,7.25,6.02,12.4,11.49,16.11-6.48-1.25-13.08-.57-19.51,3.26-4.28,2.55-7.92,6.13-11.11,9.92-2.41,2.88-4.61,5.94-6.75,9.03-1.98,2.87-3.92,5.8-5.99,8.62-1.97,2.67-4.65,6.16-7.87,8.05,3.22,1.9,5.9,5.39,7.87,8.06,2.07,2.82,4.01,5.75,5.99,8.62,2.14,3.09,4.34,6.15,6.75,9.02,3.19,3.8,6.83,7.37,11.11,9.93,6.43,3.83,13.03,4.51,19.51,3.26-5.47,3.71-9.65,8.86-11.49,16.11-1.22,4.83-1.27,9.93-.84,14.87.33,3.74.94,7.46,1.61,11.15.63,3.44,1.33,6.88,1.86,10.33.5,3.29,1.07,7.65.14,11.26,3.61-.93,7.97-.36,11.26.14,3.45.53,6.89,1.23,10.33,1.86,3.69.67,7.41,1.28,11.15,1.61,4.94.43,10.04.38,14.87-.84,7.25-1.84,12.4-6.02,16.1-11.48-1.24,6.48-.56,13.08,3.27,19.5,2.56,4.28,6.13,7.92,9.93,11.11,2.87,2.41,5.93,4.61,9.02,6.75,2.87,1.98,5.8,3.92,8.62,5.99,2.67,1.97,6.16,4.65,8.06,7.87,1.89-3.22,5.38-5.9,8.05-7.87,2.82-2.07,5.75-4.01,8.62-5.99,3.09-2.14,6.15-4.34,9.03-6.75,3.8-3.19,7.37-6.83,9.92-11.11,3.83-6.42,4.51-13.02,3.27-19.5,3.7,5.46,8.85,9.64,16.1,11.48,4.84,1.22,9.93,1.27,14.87.84,3.75-.33,7.46-.94,11.15-1.61,3.44-.63,6.88-1.33,10.34-1.86,3.28-.5,7.64-1.07,11.26-.14-.94-3.61-.37-7.97.13-11.26.53-3.45,1.23-6.89,1.86-10.33.67-3.69,1.28-7.41,1.61-11.15.43-4.94.38-10.04-.84-14.87-1.83-7.25-6.02-12.4-11.48-16.1,6.48,1.24,13.08.56,19.51-3.27,4.28-2.56,7.92-6.13,11.1-9.93,2.42-2.87,4.61-5.93,6.75-9.02,1.99-2.87,3.92-5.8,5.99-8.62,1.97-2.67,4.65-6.16,7.87-8.06-3.22-1.89-5.9-5.38-7.87-8.05h0ZM310.53,78.45c4.5-1.14,9.27-1.16,13.87-.76,7.19.63,14.18,2.36,21.3,3.45,2.26.34,4.56.62,6.86.66h1.34s.01,1.35.01,1.35c.04,2.3.32,4.6.66,6.87,1.09,7.11,2.82,14.1,3.45,21.29.4,4.6.38,9.37-.76,13.87-1.82,7.18-6.22,12.02-11.86,15.39.69-1.48,1.25-3.07,1.68-4.77,1.14-4.51,1.22-9.21.82-13.82-.29-3.26-.82-6.5-1.4-9.72-.52-2.85-1.11-5.69-1.54-8.55-.36-2.32-.8-5.5-.2-7.81l1.73-6.68-6.68,1.73c-2.31.6-5.49.16-7.81-.2-2.86-.43-5.7-1.02-8.55-1.54-3.22-.58-6.46-1.11-9.72-1.4-4.61-.4-9.31-.32-13.82.82-1.7.43-3.28.99-4.76,1.67,3.37-5.63,8.21-10.03,15.38-11.85ZM221.75,69.05c2.38-3.99,5.74-7.37,9.28-10.34,5.52-4.64,11.69-8.36,17.49-12.62,1.85-1.37,3.67-2.79,5.32-4.39l.96-.93.96.93c1.64,1.6,3.47,3.02,5.32,4.39,5.79,4.26,11.96,7.98,17.49,12.62,3.53,2.97,6.89,6.35,9.27,10.34,3.79,6.35,4.1,12.89,2.5,19.26-.56-1.53-1.29-3.05-2.19-4.56-2.38-3.99-5.65-7.36-9.19-10.34-2.51-2.11-5.17-4.02-7.87-5.88-2.38-1.65-4.8-3.25-7.13-4.96-1.89-1.4-4.45-3.33-5.66-5.39l-3.5-5.93-3.5,5.93c-1.22,2.06-3.77,3.99-5.67,5.39-2.33,1.71-4.75,3.31-7.13,4.96-2.69,1.86-5.35,3.77-7.86,5.88-3.55,2.98-6.82,6.35-9.2,10.34-.9,1.51-1.62,3.02-2.18,4.55-1.6-6.36-1.3-12.9,2.49-19.25h0ZM152.33,125.18c-1.13-4.5-1.16-9.27-.75-13.87.62-7.19,2.36-14.18,3.44-21.29.34-2.27.63-4.57.66-6.87l.02-1.34h1.34c2.29-.05,4.59-.33,6.86-.67,7.11-1.09,14.11-2.82,21.29-3.45,4.6-.4,9.37-.38,13.87.76,7.17,1.82,12.01,6.22,15.39,11.85-1.48-.68-3.06-1.24-4.77-1.67-4.5-1.14-9.21-1.22-13.81-.82-3.27.29-6.51.82-9.73,1.4-2.85.52-5.68,1.11-8.55,1.54-2.32.36-5.49.8-7.81.2l-6.67-1.73,1.72,6.68c.6,2.31.16,5.49-.2,7.81-.43,2.86-1.01,5.7-1.53,8.55-.59,3.22-1.12,6.46-1.4,9.72-.41,4.61-.33,9.31.81,13.82.43,1.7.99,3.29,1.68,4.77-5.64-3.37-10.04-8.21-11.86-15.39h0ZM142.93,213.96c-3.98-2.38-7.37-5.74-10.34-9.28-4.64-5.52-8.36-11.69-12.62-17.49-1.36-1.85-2.79-3.67-4.39-5.32l-.93-.96.93-.96c1.6-1.64,3.03-3.47,4.39-5.31,4.26-5.8,7.98-11.97,12.62-17.5,2.97-3.53,6.36-6.89,10.34-9.27,6.36-3.79,12.9-4.1,19.26-2.5-1.52.56-3.04,1.29-4.55,2.19-4,2.38-7.37,5.65-10.35,9.19-2.1,2.51-4.02,5.17-5.88,7.87-1.65,2.38-3.24,4.8-4.96,7.13-1.39,1.89-3.32,4.45-5.38,5.66l-5.94,3.5,5.94,3.5c2.06,1.22,3.99,3.77,5.38,5.67,1.72,2.33,3.31,4.75,4.96,7.13,1.86,2.69,3.78,5.35,5.88,7.86,2.98,3.55,6.35,6.82,10.35,9.2,1.51.9,3.02,1.62,4.54,2.18-6.36,1.6-12.9,1.29-19.25-2.49h0ZM199.06,283.38c-4.5,1.13-9.27,1.16-13.87.75-7.18-.62-14.18-2.36-21.29-3.44-2.27-.34-4.57-.63-6.86-.66l-1.34-.02-.02-1.34c-.03-2.29-.32-4.59-.66-6.86-1.08-7.11-2.82-14.11-3.44-21.29-.41-4.6-.38-9.37.75-13.87,1.82-7.17,6.22-12.01,11.85-15.38-.68,1.47-1.24,3.06-1.67,4.76-1.14,4.5-1.22,9.21-.81,13.82.28,3.26.81,6.5,1.4,9.72.52,2.85,1.1,5.68,1.53,8.55.36,2.32.8,5.49.2,7.81l-1.72,6.67,6.67-1.72c2.32-.6,5.49-.16,7.81.2,2.87.43,5.7,1.01,8.55,1.53,3.22.59,6.46,1.12,9.73,1.4,4.6.41,9.31.33,13.81-.81,1.71-.43,3.29-.99,4.77-1.67-3.38,5.63-8.22,10.03-15.39,11.85h0ZM287.84,292.78c-2.38,3.98-5.74,7.37-9.27,10.34-5.53,4.64-11.7,8.36-17.49,12.62-1.85,1.36-3.68,2.79-5.32,4.39l-.96.93-.96-.93c-1.65-1.6-3.47-3.03-5.32-4.39-5.8-4.26-11.97-7.98-17.49-12.62-3.54-2.97-6.9-6.36-9.28-10.34-3.78-6.35-4.09-12.89-2.49-19.25.56,1.52,1.28,3.03,2.18,4.54,2.38,4,5.65,7.37,9.2,10.35,2.51,2.1,5.17,4.02,7.86,5.88,2.38,1.65,4.8,3.24,7.13,4.96,1.9,1.39,4.45,3.32,5.67,5.38l3.5,5.94,3.5-5.94c1.21-2.06,3.77-3.99,5.66-5.38,2.33-1.72,4.75-3.31,7.13-4.96,2.7-1.86,5.36-3.78,7.87-5.88,3.54-2.98,6.81-6.35,9.19-10.35.9-1.51,1.63-3.03,2.19-4.55,1.6,6.36,1.29,12.9-2.5,19.26h0ZM288.32,245.33l-2.02-7.56-5.62,5.62h-7.96l3.92,6.78c4.02,6.97,6.85,14.95,2.37,22.45-1.75,2.94-4.29,5.46-6.9,7.64-4.54,3.81-9.68,6.91-14.46,10.42-.97.72-1.93,1.45-2.85,2.22-.93-.77-1.89-1.5-2.86-2.22-4.77-3.51-9.92-6.61-14.46-10.42-2.61-2.18-5.15-4.7-6.9-7.64-4.47-7.5-1.65-15.48,2.38-22.45l3.91-6.78h-7.95l-5.63-5.62-2.02,7.56c-2.08,7.77-5.73,15.41-14.2,17.55-3.32.84-6.89.83-10.28.53-5.91-.52-11.73-1.97-17.59-2.86-1.2-.18-2.39-.34-3.59-.45-.11-1.2-.27-2.39-.45-3.59-.89-5.86-2.34-11.68-2.86-17.59-.3-3.39-.31-6.96.53-10.28,2.14-8.47,9.78-12.12,17.55-14.2l7.56-2.02-5.62-5.63v-7.95l-6.78,3.91c-6.97,4.03-14.95,6.85-22.45,2.38-2.94-1.75-5.46-4.29-7.64-6.9-3.81-4.54-6.91-9.69-10.42-14.46-.72-.97-1.45-1.93-2.22-2.86.77-.92,1.5-1.88,2.22-2.85,3.51-4.78,6.61-9.92,10.42-14.46,2.18-2.61,4.7-5.15,7.64-6.9,7.5-4.48,15.48-1.65,22.45,2.37l6.78,3.92v-7.96l5.62-5.62-7.56-2.02c-7.77-2.09-15.41-5.73-17.55-14.2-.84-3.32-.83-6.89-.53-10.28.52-5.91,1.97-11.74,2.86-17.6.18-1.19.34-2.39.45-3.59,1.2-.1,2.39-.26,3.59-.45,5.86-.89,11.68-2.34,17.59-2.85,3.39-.3,6.96-.31,10.28.52,8.47,2.15,12.12,9.79,14.2,17.56l2.02,7.56,5.63-5.62h7.95l-3.91-6.78c-4.03-6.97-6.85-14.95-2.38-22.45,1.75-2.94,4.29-5.46,6.9-7.64,4.54-3.82,9.69-6.91,14.46-10.43.97-.71,1.93-1.45,2.86-2.22.92.77,1.88,1.51,2.85,2.22,4.78,3.52,9.92,6.61,14.46,10.43,2.61,2.18,5.15,4.7,6.9,7.64,4.48,7.5,1.65,15.48-2.37,22.45l-3.92,6.78h7.96l5.62,5.62,2.02-7.56c2.09-7.77,5.73-15.41,14.2-17.56,3.32-.83,6.89-.82,10.28-.52,5.91.51,11.74,1.96,17.6,2.85,1.19.19,2.39.35,3.59.45.1,1.2.26,2.4.45,3.59.89,5.86,2.34,11.69,2.85,17.6.3,3.39.31,6.96-.52,10.28-2.15,8.47-9.79,12.11-17.56,14.2l-7.56,2.02,5.62,5.62v7.96l6.78-3.92c6.97-4.02,14.95-6.85,22.45-2.37,2.94,1.75,5.46,4.29,7.65,6.9,3.81,4.54,6.9,9.68,10.42,14.46.71.97,1.45,1.93,2.22,2.85-.77.93-1.51,1.89-2.22,2.86-3.52,4.77-6.61,9.92-10.42,14.46-2.19,2.61-4.71,5.15-7.65,6.9-7.5,4.47-15.48,1.65-22.45-2.38l-6.78-3.91v7.95l-5.62,5.63,7.56,2.02c7.77,2.08,15.41,5.73,17.56,14.2.83,3.32.82,6.89.52,10.28-.51,5.91-1.96,11.73-2.85,17.59-.19,1.2-.35,2.39-.45,3.59-1.2.11-2.4.27-3.59.45-5.86.89-11.69,2.34-17.6,2.86-3.39.3-6.96.31-10.28-.53-8.47-2.14-12.11-9.78-14.2-17.55ZM357.26,236.65c1.14,4.5,1.16,9.27.76,13.87-.63,7.18-2.36,14.18-3.45,21.29-.34,2.27-.62,4.57-.66,6.86v1.34s-1.35.02-1.35.02c-2.3.03-4.6.32-6.86.66-7.12,1.08-14.11,2.82-21.3,3.44-4.6.41-9.37.38-13.87-.75-7.17-1.82-12.01-6.22-15.38-11.85,1.48.68,3.06,1.24,4.76,1.67,4.51,1.14,9.21,1.22,13.82.81,3.26-.28,6.5-.81,9.72-1.4,2.85-.52,5.69-1.1,8.55-1.53,2.32-.36,5.5-.8,7.81-.2l6.68,1.72-1.73-6.67c-.6-2.32-.16-5.49.2-7.81.43-2.87,1.02-5.7,1.54-8.55.58-3.22,1.11-6.46,1.4-9.72.4-4.61.32-9.32-.82-13.82-.43-1.7-.99-3.29-1.67-4.76,5.63,3.37,10.03,8.21,11.85,15.38h0ZM394.01,181.87c-1.6,1.65-3.02,3.47-4.38,5.32-4.27,5.8-7.99,11.97-12.63,17.49-2.97,3.54-6.35,6.9-10.34,9.28-6.35,3.79-12.89,4.09-19.25,2.49,1.53-.56,3.04-1.28,4.55-2.18,3.99-2.38,7.36-5.65,10.34-9.2,2.11-2.51,4.02-5.17,5.88-7.86,1.65-2.38,3.25-4.8,4.96-7.13,1.4-1.9,3.33-4.45,5.39-5.67l5.93-3.5-5.93-3.5c-2.06-1.21-3.99-3.77-5.39-5.66-1.71-2.33-3.31-4.75-4.96-7.13-1.86-2.7-3.77-5.36-5.88-7.87-2.98-3.54-6.35-6.81-10.34-9.19-1.51-.9-3.03-1.63-4.56-2.19,6.37-1.6,12.91-1.29,19.26,2.5,3.99,2.38,7.37,5.74,10.34,9.27,4.64,5.53,8.36,11.7,12.63,17.5,1.36,1.84,2.78,3.67,4.38,5.31l.93.96-.93.96h0Z"/>
  <path class="cls-3" d="M425.62,384.6c-34.3-20.25-102.27-28.86-158.45-5.53,50.86-38.1,118.3-20.81,119.95-20.64l-18.5-41.48,32.3,8.34,24.69,59.31h0Z"/>
  <g>
    <path class="cls-4" d="M29.16,492.67H10.62c-1.07,3.36-3.12,5.93-6.14,7.7L0,497.8c2.09-.58,3.8-1.73,5.14-3.46,1.33-1.73,2-3.69,2-5.9v-.04h.04v-8.4c0-1.36.49-2.54,1.46-3.52.97-.99,2.15-1.48,3.55-1.48h1.74c3.57.06,6.64,1.31,9.23,3.74,2.58,2.44,4.03,5.42,4.35,8.96v.17c0,.06,0,.16.02.3.01.15.02.25.02.3h1.61v4.18h0ZM11.36,488.49h10.75c.7,0,1.1-.27,1.22-.83-.32-2.35-1.36-4.34-3.13-5.96-1.77-1.62-3.84-2.46-6.22-2.52-1.74.03-2.61.96-2.61,2.78v6.53h0Z"/>
    <path class="cls-4" d="M37.77,492.67h-9.53v-4.18h6.31c.84,0,1.26-.4,1.26-1.22v-12.32h4.18v15.49c0,.61-.22,1.13-.65,1.57s-.96.65-1.57.65h0ZM32.24,498.93c-.55,0-1.01-.18-1.37-.54-.36-.36-.54-.82-.54-1.37,0-.52.18-.96.54-1.33.36-.36.82-.54,1.37-.54.52,0,.96.18,1.33.54s.54.8.54,1.33c0,.55-.18,1.01-.54,1.37-.36.36-.81.54-1.33.54ZM38.38,497.02c0,.55-.19,1.01-.56,1.37-.38.36-.83.54-1.35.54s-.97-.18-1.33-.54-.54-.82-.54-1.37c0-.52.18-.96.54-1.33.36-.36.81-.54,1.33-.54s.97.18,1.35.54c.38.36.56.8.56,1.33Z"/>
    <path class="cls-4" d="M58.79,492.67h-3.31c-.81,0-1.58-.2-2.31-.61-.67,1.86-1.67,3.5-3.02,4.92s-2.92,2.51-4.72,3.26l-5.35-3.09v-.04c2.7,0,4.99-.95,6.88-2.85,1.88-1.9,2.83-4.18,2.83-6.85v-12.49h4.18v10.92c.03,1.77.97,2.65,2.83,2.65h2v4.18h0Z"/>
    <path class="cls-4" d="M85.38,492.67h-27.46v-4.18h21.41v-.61c0-1.86-.93-2.78-2.79-2.78h-12.01v-4.18h.04c.2-3.65,1.64-6.75,4.31-9.29s5.85-3.81,9.53-3.81h.04v4.18h-.04c-2.52,0-4.71.86-6.57,2.57-1.86,1.71-2.89,3.83-3.09,6.35h9.75c1.39,0,2.57.49,3.55,1.48s1.46,2.16,1.46,3.52v2.57h1.87v4.18h0Z"/>
    <path class="cls-4" d="M93.12,492.67h-8.27v-4.18h5.09c.84,0,1.26-.4,1.26-1.22v-19.58h4.13v22.76c0,.61-.22,1.13-.65,1.57-.43.43-.96.65-1.57.65h0Z"/>
    <path class="cls-4" d="M103.91,492.67h-4.13v-24.8h4.13v24.8Z"/>
    <path class="cls-4" d="M132.89,500.28h-2.22c-3.74-.03-6.95-1.35-9.62-3.96s-4.06-5.77-4.18-9.49v-3.7c0-.64.22-1.18.65-1.61.44-.44.96-.65,1.57-.65h5.26v.04c1.31,0,2.33.35,3.09,1.04.75.7,1.17,1.39,1.26,2.09l.17,1h-6.57c-.84,0-1.26.42-1.26,1.26v.13c0,2.64.96,4.9,2.87,6.79,1.92,1.89,4.21,2.86,6.88,2.92h.13c1.86,0,2.79-.94,2.79-2.83v-18.36h4.18v20.36c0,1.36-.49,2.53-1.48,3.5-.99.97-2.16,1.46-3.52,1.46h0ZM127.72,471.56c0,.52-.19.96-.57,1.33-.38.36-.83.54-1.35.54s-.97-.18-1.35-.54c-.38-.36-.57-.8-.57-1.33,0-.55.19-1.01.57-1.37.38-.36.83-.54,1.35-.54s.97.18,1.35.54c.38.36.57.82.57,1.37Z"/>
    <path class="cls-4" d="M149.17,469.78h-9.79v-1.87h9.79v1.87ZM146.51,492.67h-4.09v-21.23h4.09v21.23Z"/>
    <path class="cls-4" d="M166.14,492.67h-3.31c-.81,0-1.58-.2-2.31-.61-.67,1.86-1.68,3.5-3.02,4.92s-2.92,2.51-4.72,3.26l-5.35-3.09v-.04c2.7,0,4.99-.95,6.88-2.85,1.88-1.9,2.83-4.18,2.83-6.85v-12.49h4.18v10.92c.03,1.77.97,2.65,2.83,2.65h2v4.18h0Z"/>
    <path class="cls-4" d="M194.9,492.67h-29.63v-4.18h6.53c.03-.14.04-.35.04-.61v-.17c.32-3.54,1.78-6.53,4.37-8.96,2.6-2.44,5.68-3.68,9.25-3.74h1.74c1.36,0,2.53.49,3.5,1.46.97.97,1.46,2.15,1.46,3.55v8.48h2.74v4.18h0ZM188.03,487.23v-5.27c0-1.83-.87-2.76-2.61-2.78-2.41.06-4.5.9-6.27,2.52-1.77,1.62-2.8,3.61-3.09,5.96.09.55.49.83,1.22.83h9.49c.84,0,1.26-.42,1.26-1.26h0ZM181.89,472c-.55,0-1.01-.18-1.37-.54-.36-.36-.54-.82-.54-1.37,0-.52.18-.96.54-1.33s.82-.54,1.37-.54c.52,0,.96.18,1.33.54.36.36.54.8.54,1.33,0,.55-.18,1.01-.54,1.37s-.8.54-1.33.54ZM188.03,470.08c0,.55-.19,1.01-.57,1.37-.38.36-.83.54-1.35.54s-.96-.18-1.33-.54c-.36-.36-.54-.82-.54-1.37,0-.52.18-.96.54-1.33s.8-.54,1.33-.54.97.18,1.35.54c.38.36.57.8.57,1.33Z"/>
    <path class="cls-4" d="M207.04,492.67h-12.66v-4.18h5.09c.84,0,1.26-.4,1.26-1.22v-19.58h4.13v20.8h2.18v4.18Z"/>
    <path class="cls-4" d="M214.75,492.67h-8.27v-4.18h5.09c.84,0,1.26-.4,1.26-1.22v-19.58h4.13v22.76c0,.61-.22,1.13-.65,1.57-.43.43-.96.65-1.57.65h0Z"/>
    <path class="cls-4" d="M254.6,492.67h-2.79c-.78,0-1.52-.19-2.22-.57-.43.38-.93.57-1.48.57h-15.84c-.61,0-1.13-.22-1.57-.65-.43-.44-.65-.96-.65-1.57v-2.78c.32-3.51,1.76-6.48,4.33-8.9,2.57-2.42,5.62-3.68,9.16-3.76h1.35c.64,0,1.28.12,1.91.35v-.43h3.57v10.75c0,1.89.94,2.83,2.83,2.83h1.39v4.18h0ZM246.12,487.79v-5.83c0-1.8-.86-2.74-2.57-2.83-2.38.09-4.45.94-6.2,2.55s-2.79,3.59-3.11,5.94c.12.58.52.87,1.22.87h9.49c.67,0,1.06-.23,1.18-.7h0ZM239.77,472c-.55,0-1.01-.18-1.37-.54-.36-.36-.54-.82-.54-1.37,0-.52.18-.96.54-1.33s.82-.54,1.37-.54c.52,0,.96.18,1.33.54.36.36.54.8.54,1.33,0,.55-.18,1.01-.54,1.37s-.8.54-1.33.54ZM245.9,470.08c0,.55-.19,1.01-.57,1.37-.38.36-.83.54-1.35.54s-.96-.18-1.33-.54c-.36-.36-.54-.82-.54-1.37,0-.52.18-.96.54-1.33.36-.36.8-.54,1.33-.54s.97.18,1.35.54c.38.36.57.8.57,1.33Z"/>
    <path class="cls-4" d="M268.75,492.67h-15.01v-4.18h6.31c.84,0,1.26-.4,1.26-1.22v-12.32h4.18v13.53h3.26v4.18h0ZM258.78,498.93c-.55,0-1.01-.18-1.37-.54-.36-.36-.55-.82-.55-1.37,0-.52.18-.96.55-1.33.36-.36.82-.54,1.37-.54.52,0,.96.18,1.33.54.36.36.55.8.55,1.33,0,.55-.18,1.01-.55,1.37-.36.36-.8.54-1.33.54ZM264.92,497.02c0,.55-.19,1.01-.57,1.37-.38.36-.83.54-1.35.54s-.96-.18-1.33-.54c-.36-.36-.54-.82-.54-1.37,0-.52.18-.96.54-1.33.36-.36.8-.54,1.33-.54s.97.18,1.35.54c.38.36.57.8.57,1.33Z"/>
    <path class="cls-4" d="M277.36,492.67h-9.53v-4.18h6.31c.84,0,1.26-.4,1.26-1.22v-12.32h4.18v15.49c0,.61-.22,1.13-.65,1.57s-.96.65-1.57.65h0ZM278.71,471.43c-.35.38-.78.57-1.31.57s-.97-.19-1.35-.57-.57-.83-.57-1.35.19-.97.57-1.35c.38-.38.83-.57,1.35-.57s.96.19,1.33.57c.36.38.54.83.54,1.35s-.19.97-.57,1.35Z"/>
    <path class="cls-4" d="M292.64,492.67h-6.4c-.64,0-1.17-.22-1.61-.65-.43-.44-.65-.96-.65-1.57v-22.67h4.18v19.45c0,.84.42,1.26,1.26,1.26h3.22v4.18h0Z"/>
    <path class="cls-4" d="M320.92,492.67h-1.52c-.67,0-1.36-.14-2.09-.44-.12.76-.33,1.49-.65,2.22h-.04c-.2.46-.54.82-1,1.07-.46.25-.96.31-1.48.2l-13.01-2.79v-1.3c-.44.7-1.07,1.04-1.92,1.04h-7.14v-4.18h3.92c.81,0,1.23-.36,1.26-1.09v-7.4c0-1.36.49-2.54,1.48-3.52.98-.99,2.16-1.48,3.52-1.48h1.74c3.54.03,6.61,1.23,9.2,3.61,2.6,2.38,4.08,5.31,4.46,8.79.38.73,1.19,1.09,2.44,1.09h.83v4.18h0ZM301.43,488.75l10.44,2.22c.81.17,1.3-.14,1.48-.96l.22-1.13c0-2.64-.92-4.9-2.76-6.79-1.84-1.89-4.08-2.86-6.72-2.92-1.77.03-2.65.96-2.65,2.78v6.79h0Z"/>
    <path class="cls-4" d="M328.62,492.67h-8.27v-4.18h5.09c.84,0,1.26-.4,1.26-1.22v-19.58h4.14v22.76c0,.61-.22,1.13-.65,1.57s-.96.65-1.57.65h0Z"/>
    <path class="cls-4" d="M346.81,492.67h-10.57l-.96-4.18h3.31c-1.42-2.15-2.18-4.54-2.26-7.18v-8.62h4.18v8.18c0,3.1,1.2,5.63,3.61,7.57.52-.15.78-.55.78-1.22v-19.32h4.13v22.54c0,.61-.22,1.13-.65,1.57s-.96.65-1.57.65h0ZM339.42,472.04h-3.05v-.65h2.79c.4,0,.61-.17.61-.52v-.04c0-.32-.2-.48-.61-.48h-1.78c-.29,0-.54-.09-.74-.28s-.3-.41-.3-.67v-.39c0-.26.1-.48.3-.67.2-.19.45-.28.74-.28h3.05v.61h-2.83c-.38,0-.57.17-.57.52s.19.52.57.52h1.83c.29,0,.54.1.74.28.2.19.3.43.3.72v.39c0,.26-.1.48-.3.67-.2.19-.45.28-.74.28h0Z"/>
    <path class="cls-4" d="M357.6,492.67h-4.13v-24.8h4.13v24.8Z"/>
    <path class="cls-4" d="M387.59,492.67h-14.8c-.61,0-1.13-.22-1.57-.65-.43-.44-.65-.96-.65-1.57v-10.53c0-1.36.49-2.53,1.48-3.5.98-.97,2.16-1.46,3.52-1.46h6.22c1.77,0,3.06.67,3.87,2v-2.09h4.13v15.58c0,.61-.22,1.13-.65,1.57-.44.43-.96.65-1.57.65h0ZM385.67,487.23v-8.14h-8.09c-1.89,0-2.83.94-2.83,2.83v5.31c0,.84.42,1.26,1.26,1.26h8.4c.84,0,1.26-.42,1.26-1.26ZM378.14,472c-.55,0-1.01-.18-1.37-.54s-.54-.82-.54-1.37c0-.52.18-.96.54-1.33.36-.36.82-.54,1.37-.54.52,0,.96.18,1.33.54.36.36.54.8.54,1.33,0,.55-.18,1.01-.54,1.37s-.8.54-1.33.54ZM384.28,470.08c0,.55-.19,1.01-.57,1.37-.38.36-.83.54-1.35.54s-.96-.18-1.33-.54c-.36-.36-.54-.82-.54-1.37,0-.52.18-.96.54-1.33s.81-.54,1.33-.54.97.18,1.35.54c.38.36.57.8.57,1.33Z"/>
    <path class="cls-4" d="M397.29,471.82h-3.05v-.61h2.79c.41,0,.61-.19.61-.57v-.04c0-.32-.2-.48-.61-.48h-1.78c-.29,0-.54-.09-.74-.26-.2-.17-.3-.41-.3-.7v-.39c0-.26.1-.48.3-.67.2-.19.45-.28.74-.28h3.05v.65h-2.83c-.38,0-.57.17-.57.52s.19.52.57.52h1.83c.29,0,.54.09.74.26.2.17.3.42.3.74v.35c0,.29-.1.52-.3.7-.2.17-.45.26-.74.26ZM398.33,492.67h-4.13v-20.23h4.13v20.23Z"/>
    <path class="cls-4" d="M417.52,492.67h-3.31c-.81,0-1.58-.2-2.31-.61-.67,1.86-1.67,3.5-3.02,4.92s-2.92,2.51-4.72,3.26l-5.35-3.09v-.04c2.7,0,4.99-.95,6.88-2.85,1.89-1.9,2.83-4.18,2.83-6.85v-12.49h4.18v10.92c.03,1.77.97,2.65,2.83,2.65h2v4.18h0Z"/>
    <path class="cls-4" d="M446.29,492.67h-29.63v-4.18h6.53c.03-.14.04-.35.04-.61v-.17c.32-3.54,1.78-6.53,4.37-8.96,2.6-2.44,5.68-3.68,9.25-3.74h1.74c1.36,0,2.53.49,3.5,1.46.97.97,1.46,2.15,1.46,3.55v8.48h2.74v4.18h0ZM439.41,487.23v-5.27c0-1.83-.87-2.76-2.61-2.78-2.41.06-4.5.9-6.27,2.52-1.77,1.62-2.8,3.61-3.09,5.96.09.55.49.83,1.22.83h9.49c.84,0,1.26-.42,1.26-1.26h0ZM433.28,472c-.55,0-1.01-.18-1.37-.54-.36-.36-.54-.82-.54-1.37,0-.52.18-.96.54-1.33s.82-.54,1.37-.54c.52,0,.96.18,1.33.54s.54.8.54,1.33c0,.55-.18,1.01-.54,1.37-.36.36-.8.54-1.33.54ZM439.41,470.08c0,.55-.19,1.01-.57,1.37-.38.36-.83.54-1.35.54s-.96-.18-1.33-.54c-.36-.36-.54-.82-.54-1.37,0-.52.18-.96.54-1.33s.8-.54,1.33-.54.97.18,1.35.54c.38.36.57.8.57,1.33Z"/>
    <path class="cls-4" d="M474.57,492.67h-1.52c-.67,0-1.36-.14-2.09-.44-.12.76-.33,1.49-.65,2.22h-.04c-.2.46-.54.82-1,1.07-.46.25-.96.31-1.48.2l-13.01-2.79v-1.3c-.44.7-1.07,1.04-1.92,1.04h-7.14v-4.18h3.92c.81,0,1.23-.36,1.26-1.09v-7.4c0-1.36.49-2.54,1.48-3.52.98-.99,2.16-1.48,3.52-1.48h1.74c3.54.03,6.61,1.23,9.2,3.61,2.6,2.38,4.08,5.31,4.46,8.79.38.73,1.19,1.09,2.44,1.09h.83v4.18h0ZM455.08,488.75l10.44,2.22c.81.17,1.3-.14,1.48-.96l.22-1.13c0-2.64-.92-4.9-2.76-6.79-1.84-1.89-4.08-2.86-6.72-2.92-1.77.03-2.65.96-2.65,2.78v6.79h0Z"/>
    <path class="cls-4" d="M482.27,492.67h-8.27v-4.18h5.09c.84,0,1.26-.4,1.26-1.22v-19.58h4.14v22.76c0,.61-.22,1.13-.65,1.57s-.96.65-1.57.65h0Z"/>
    <path class="cls-4" d="M493.07,492.67h-4.13v-24.8h4.13v24.8Z"/>
  </g>
  <g>
    <path class="cls-2" d="M7.99,516.63c1.78,0,3.11.21,3.97.62.87.42,1.46,1.17,1.78,2.27s.48,2.79.48,5.08-.16,3.96-.48,5.05c-.32,1.09-.92,1.85-1.78,2.27-.86.42-2.19.62-3.97.62H2.29v-15.91h5.7ZM4.84,530.42h4.66c.75,0,1.26-.14,1.55-.41.29-.27.43-.76.43-1.45v-7.97c0-.7-.15-1.18-.43-1.45-.29-.27-.81-.41-1.55-.41h-4.66v11.68h0Z"/>
    <path class="cls-2" d="M20.72,530.42h7v2.11h-9.55v-15.91h9.47l-.31,2.11h-6.62v4.84h6.03v2.01h-6.03v4.84h0Z"/>
    <path class="cls-2" d="M33.29,532.48c-.85-.29-1.44-.79-1.77-1.52-.33-.72-.5-1.8-.5-3.24v-11.1h2.55v14.13h3.67c.95,0,1.66-.04,2.14-.11.47-.08.81-.21.99-.4s.28-.47.28-.84v-12.78h2.55v11.1c0,1.44-.17,2.52-.5,3.24-.33.72-.92,1.23-1.77,1.52-.85.29-2.12.43-3.82.43s-2.97-.15-3.82-.43h0Z"/>
    <path class="cls-2" d="M52.36,532.54h-2.54v-13.8h-4.2v-2.11h10.95v2.11h-4.2v13.8h0Z"/>
    <path class="cls-2" d="M60.88,530.64c.91.11,1.78.17,2.61.17s1.82-.05,2.88-.15v-4.73l-2.42-.18c-1.56-.12-2.73-.32-3.51-.6-.78-.28-1.33-.72-1.64-1.32s-.47-1.47-.47-2.61c0-1.22.16-2.19.47-2.91.31-.72.82-1.24,1.53-1.57s1.65-.48,2.84-.48c1.71,0,3.43.16,5.14.48l-.33,2.01c-1.36-.25-2.91-.38-4.66-.38-.87,0-1.6.04-2.21.13v4.78l2.83.18c1.36.09,2.41.28,3.16.6.75.31,1.28.8,1.59,1.45.31.65.47,1.56.47,2.71s-.19,2.12-.56,2.8c-.37.68-.98,1.17-1.83,1.46s-2.01.45-3.49.45c-1.8,0-3.51-.2-5.14-.61l.38-2.09c.68.17,1.47.31,2.38.42h0Z"/>
    <path class="cls-2" d="M80.03,532.77c-.68.1-1.48.15-2.39.15-1.61,0-2.83-.24-3.64-.73s-1.38-1.31-1.71-2.47-.48-2.87-.48-5.13.17-4,.5-5.17.93-1.99,1.78-2.47c.86-.48,2.12-.71,3.81-.71.58,0,1.24.05,1.97.15.74.1,1.33.23,1.77.38l-.33,2.09c-.59-.14-1.28-.25-2.06-.33-.78-.09-1.42-.13-1.91-.13-1.04,0-1.76.13-2.18.38-.42.26-.62.77-.62,1.55v10.08c.86.25,1.88.38,3.03.38,1.32,0,2.71-.21,4.15-.64l.25,2.09c-.61.24-1.26.41-1.93.51h0Z"/>
    <path class="cls-2" d="M96.6,516.63v15.91h-2.55v-6.87h-6.62v6.87h-2.54v-15.91h2.54v7.03h6.62v-7.03h2.55Z"/>
    <path class="cls-2" d="M103.73,530.42h7v2.11h-9.54v-15.91h9.47l-.31,2.11h-6.62v4.84h6.03v2.01h-6.03v4.84h0Z"/>
    <path class="cls-2" d="M121.34,516.63h3.51l3.54,11.91h.18l3.54-11.91h3.51l1.07,15.91h-2.52l-.81-12.55h-.15l-3.69,12.55h-2.06l-3.69-12.55h-.15l-.81,12.55h-2.52l1.07-15.91Z"/>
    <path class="cls-2" d="M148.66,528.97h-6.08l-1.04,3.56h-2.54l4.71-15.91h3.84l4.71,15.91h-2.54l-1.04-3.56h0ZM148.07,526.96l-2.34-7.99h-.23l-2.34,7.99h4.91Z"/>
    <path class="cls-2" d="M167.09,532.97l-.64,1.4-4.4-1.45v-.71l-1.45.71c-1.8,0-3.13-.22-4.01-.65-.88-.43-1.48-1.23-1.81-2.38-.33-1.15-.5-2.92-.5-5.29s.16-4.14.5-5.29.93-1.95,1.81-2.39c.87-.44,2.21-.66,4.01-.66s3.11.22,4,.66c.88.44,1.49,1.24,1.82,2.39.33,1.15.5,2.92.5,5.29,0,2.1-.14,3.7-.41,4.77s-.74,1.86-1.4,2.35l1.99,1.25h0ZM162.05,530.75c.8,0,1.35-.14,1.65-.41.31-.27.46-.76.46-1.45v-10.49h-5.04c-.78,0-1.32.14-1.63.41-.3.27-.46.76-.46,1.45v10.49h5.01,0Z"/>
    <path class="cls-2" d="M179.66,532.54l-2.65-5.63h-3.62v5.63h-2.54v-15.91h6.36c1.14,0,2.02.17,2.66.51.64.34,1.09.9,1.38,1.67.28.77.42,1.84.42,3.2s-.17,2.33-.5,3.07c-.33.74-.87,1.25-1.62,1.54l2.88,5.93h-2.78ZM173.4,524.9h3.84c.66,0,1.12-.08,1.38-.23.25-.15.38-.43.38-.84v-4.02c0-.41-.13-.69-.38-.84-.25-.15-.71-.23-1.38-.23h-3.84v6.16h0Z"/>
    <path class="cls-2" d="M193.38,528.97h-6.08l-1.04,3.56h-2.54l4.71-15.91h3.84l4.71,15.91h-2.54l-1.04-3.56h0ZM192.8,526.96l-2.34-7.99h-.23l-2.34,7.99h4.91Z"/>
    <path class="cls-2" d="M199.16,520.9l.51-2.29c-.39-.09-.66-.25-.81-.48-.15-.24-.23-.64-.23-1.2,0-.66.12-1.12.37-1.38s.69-.38,1.34-.38c.59,0,1.01.13,1.25.38.24.26.36.71.36,1.38,0,.29-.05.59-.14.92s-.27.77-.52,1.35l-.97,2.06-1.15-.36h0Z"/>
    <path class="cls-2" d="M213.26,528.97h-6.08l-1.04,3.56h-2.54l4.71-15.91h3.84l4.71,15.91h-2.54l-1.04-3.56h0ZM212.68,526.96l-2.34-7.99h-.23l-2.34,7.99h4.91Z"/>
    <path class="cls-2" d="M231.23,516.63v15.91h-2.55v-6.87h-6.62v6.87h-2.54v-15.91h2.54v7.03h6.62v-7.03h2.55Z"/>
    <path class="cls-2" d="M244.73,532.54h-2.54v-15.91h8.65l-.28,2.11h-5.83v5.17h5.09v2.01h-5.09v6.62h0Z"/>
    <path class="cls-2" d="M255.65,532.48c-.85-.29-1.44-.79-1.77-1.52-.33-.72-.5-1.8-.5-3.24v-11.1h2.54v14.13h3.67c.95,0,1.66-.04,2.14-.11.48-.08.81-.21.99-.4s.28-.47.28-.84v-12.78h2.55v11.1c0,1.44-.17,2.52-.5,3.24-.33.72-.92,1.23-1.77,1.52s-2.12.43-3.82.43-2.97-.15-3.82-.43h0ZM256.1,514.41c-.17-.2-.25-.59-.25-1.15s.08-.95.25-1.16c.17-.21.53-.32,1.07-.32s.87.11,1.04.32c.17.21.25.6.25,1.16s-.08.94-.25,1.15c-.17.2-.52.31-1.04.31s-.9-.1-1.07-.31ZM260.76,514.41c-.17-.2-.25-.59-.25-1.15s.08-.95.25-1.16c.17-.21.53-.32,1.07-.32s.87.11,1.04.32c.17.21.26.6.26,1.16s-.09.94-.26,1.15c-.17.2-.52.31-1.04.31s-.9-.1-1.07-.31Z"/>
    <path class="cls-2" d="M278.68,532.54l-2.65-5.63h-3.61v5.63h-2.55v-15.91h6.36c1.14,0,2.02.17,2.66.51.64.34,1.1.9,1.38,1.67.28.77.42,1.84.42,3.2s-.17,2.33-.5,3.07-.87,1.25-1.62,1.54l2.88,5.93h-2.78ZM272.42,524.9h3.84c.66,0,1.12-.08,1.37-.23s.38-.43.38-.84v-4.02c0-.41-.13-.69-.38-.84-.26-.15-.71-.23-1.37-.23h-3.84v6.16h0Z"/>
    <path class="cls-2" d="M296.7,516.63c1.78,0,3.11.21,3.97.62.86.42,1.46,1.17,1.78,2.27.32,1.09.48,2.79.48,5.08s-.16,3.96-.48,5.05c-.32,1.09-.92,1.85-1.78,2.27-.86.42-2.19.62-3.97.62h-5.7v-15.91h5.7ZM293.55,530.42h4.66c.75,0,1.26-.14,1.55-.41.29-.27.43-.76.43-1.45v-7.97c0-.7-.14-1.18-.43-1.45-.29-.27-.81-.41-1.55-.41h-4.66v11.68h0Z"/>
    <path class="cls-2" d="M309.43,530.42h7v2.11h-9.55v-15.91h9.47l-.3,2.11h-6.62v4.84h6.03v2.01h-6.03v4.84h0Z"/>
    <path class="cls-2" d="M320.12,516.63h2.47l6.16,9.93c.25.44.42.75.51.93.08.18.14.4.15.65h.15v-11.51h2.55v15.91h-2.47l-6.16-9.93c-.26-.44-.42-.75-.51-.93-.08-.18-.14-.4-.15-.65h-.15v11.51h-2.55v-15.91h0Z"/>
    <path class="cls-2" d="M345.73,530.42h7v2.11h-9.55v-15.91h9.47l-.3,2.11h-6.62v4.84h6.03v2.01h-6.03v4.84h0Z"/>
    <path class="cls-2" d="M362,516.63c1.78,0,3.11.21,3.97.62.86.42,1.46,1.17,1.78,2.27.32,1.09.48,2.79.48,5.08s-.16,3.96-.48,5.05c-.32,1.09-.92,1.85-1.78,2.27-.86.42-2.19.62-3.97.62h-5.7v-15.91h5.7ZM358.84,530.42h4.66c.75,0,1.26-.14,1.55-.41.29-.27.43-.76.43-1.45v-7.97c0-.7-.14-1.18-.43-1.45-.29-.27-.81-.41-1.55-.41h-4.66v11.68h0Z"/>
    <path class="cls-2" d="M372.18,516.63h2.55v13.8h5.85v2.11h-8.4v-15.91Z"/>
    <path class="cls-2" d="M385.67,530.42h7v2.11h-9.55v-15.91h9.47l-.3,2.11h-6.62v4.84h6.03v2.01h-6.03v4.84h0Z"/>
    <path class="cls-2" d="M396.36,516.63h2.47l6.16,9.93c.25.44.42.75.51.93.08.18.14.4.15.65h.15v-11.51h2.55v15.91h-2.47l-6.16-9.93c-.26-.44-.42-.75-.51-.93-.08-.18-.14-.4-.15-.65h-.15v11.51h-2.55v-15.91h0Z"/>
    <path class="cls-2" d="M430.95,532.54h-2.83l-1.86-3.95c-.32-.66-.57-1.24-.75-1.74-.18-.5-.27-1-.27-1.49h-3.28v7.18h-2.55v-15.91h2.55v6.74h3.28c0-.51.09-1.02.27-1.54.18-.52.43-1.08.75-1.69l1.73-3.51h2.83l-3.82,7.74,3.95,8.17h0Z"/>
    <path class="cls-2" d="M458.55,532.54l-2.65-5.63h-3.61v5.63h-2.55v-15.91h6.36c1.14,0,2.02.17,2.66.51.64.34,1.1.9,1.38,1.67.28.77.42,1.84.42,3.2s-.17,2.33-.5,3.07-.87,1.25-1.62,1.54l2.88,5.93h-2.78ZM452.29,524.9h3.84c.66,0,1.12-.08,1.37-.23s.38-.43.38-.84v-4.02c0-.41-.13-.69-.38-.84-.26-.15-.71-.23-1.37-.23h-3.84v6.16h0Z"/>
    <path class="cls-2" d="M472.27,528.97h-6.08l-1.04,3.56h-2.55l4.71-15.91h3.84l4.71,15.91h-2.55l-1.04-3.56ZM471.68,526.96l-2.34-7.99h-.23l-2.34,7.99h4.91Z"/>
    <path class="cls-2" d="M478.66,516.63h2.47l6.16,9.93c.25.44.42.75.51.93.08.18.14.4.15.65h.15v-11.51h2.55v15.91h-2.47l-6.16-9.93c-.26-.44-.42-.75-.51-.93-.08-.18-.14-.4-.15-.65h-.15v11.51h-2.55v-15.91h0Z"/>
  </g>
  <path class="cls-2" d="M439.78,533.11c-1.77,0-3.09-.22-3.95-.65-.88-.43-1.48-1.23-1.81-2.38-.33-1.15-.5-2.92-.5-5.29s.16-4.14.5-5.29.93-1.95,1.81-2.39c.87-.44,2.21-.66,4.01-.66s3.11.22,4,.66c.88.44,1.49,1.24,1.82,2.39.33,1.15.5,2.92.5,5.29,0,2.1-.14,3.7-.41,4.77-.24.94-.62,1.66-1.16,2.16l-.04.03c-.75.58-1.63.97-2.57,1.14h0c-.6.11-1.21.18-1.82.21l-.38.02ZM441.29,530.94c.8,0,1.35-.14,1.65-.41.31-.27.46-.76.46-1.45v-10.26c0-.13-.1-.23-.23-.23h-4.81c-.78,0-1.32.14-1.63.41-.3.27-.46.76-.46,1.45v10.26c0,.13.1.23.23.23h4.79,0Z"/>
</svg>