<?xml version="1.0" encoding="UTF-8"?>
<svg id="Layer_1" xmlns="http://www.w3.org/2000/svg" version="1.1" viewBox="0 0 493.066 534.369">
  <!-- Generator: Adobe Illustrator 29.1.0, SVG Export Plug-In . SVG Version: 2.1.0 Build 142)  -->
  <defs>
    <style>
      .st0, .st1 {
        fill-rule: evenodd;
      }

      .st0, .st2 {
        fill: #0e526e;
      }

      .st3, .st1 {
        fill: #d8ac6b;
      }
    </style>
  </defs>
  <path class="st0" d="M246.4,381.14c-59.141-31.948-143.203-10.969-162.43,3.462l24.691-59.308,32.303-8.342-18.497,41.478c28.257-8.925,81.517-9.447,123.934,22.71Z"/>
  <path class="st1" d="M259.164,439.801c-1.63,1.43-3.2,2.701-4.371,3.872-1.161-1.161-2.813-2.394-4.371-3.872-50.135-41.042-117.077-55.18-179.525-37.917,92.155-56.953,183.849,1.757,183.896,1.726,1.177.76,89.66-59.965,183.896-1.726-62.448-17.263-129.39-3.125-179.525,37.917h0Z"/>
  <path class="st1" d="M203.799,57.803c3.593-5.897,8.333-10.895,13.608-15.321,3.314-2.782,6.814-5.315,10.372-7.775,2.73-1.887,5.509-3.716,8.182-5.683.888-.654,2.547-1.818,3.315-2.698L254.793,0l15.517,26.327c.768.88,2.427,2.044,3.315,2.698,2.673,1.967,5.452,3.796,8.182,5.683,3.557,2.459,7.057,4.993,10.372,7.775,5.274,4.426,10.015,9.424,13.608,15.321,6.693-1.624,13.616-1.81,20.456-1.212,4.31.377,8.576,1.06,12.83,1.836,3.265.596,6.523,1.268,9.804,1.767,1.09.166,3.087.516,4.252.437l29.589-7.644-7.644,29.589c-.079,1.166.271,3.162.437,4.252.499,3.281,1.171,6.539,1.767,9.804.776,4.254,1.459,8.52,1.836,12.83.598,6.84.412,13.763-1.212,20.456,5.897,3.593,10.895,8.333,15.321,13.608,2.781,3.314,5.315,6.814,7.774,10.371,1.887,2.73,3.716,5.509,5.683,8.182.654.888,1.818,2.547,2.698,3.315l26.327,15.517-26.327,15.517c-.88.768-2.044,2.427-2.698,3.315-1.967,2.673-3.796,5.452-5.683,8.182-2.459,3.557-4.993,7.057-7.774,10.371-4.426,5.274-9.424,10.015-15.321,13.608,1.624,6.693,1.81,13.616,1.212,20.456-.377,4.31-1.06,8.576-1.836,12.83-.596,3.265-1.268,6.523-1.767,9.804-.166,1.09-.516,3.087-.437,4.252l7.644,29.589-29.589-7.644c-1.166-.079-3.162.271-4.252.437-3.281.499-6.539,1.171-9.804,1.767-4.254.777-8.52,1.459-12.83,1.836-6.84.598-13.763.413-20.456-1.212-3.593,5.897-8.333,10.895-13.608,15.321-3.314,2.781-6.814,5.316-10.371,7.774-2.73,1.887-5.509,3.715-8.182,5.683-.888.654-2.547,1.818-3.315,2.698l-15.517,26.327-15.517-26.327c-.768-.88-2.427-2.044-3.315-2.698-2.673-1.967-5.452-3.796-8.182-5.683-3.557-2.459-7.057-4.993-10.371-7.774-5.274-4.426-10.015-9.424-13.608-15.321-6.693,1.624-13.616,1.81-20.456,1.212-4.31-.377-8.576-1.06-12.83-1.836-3.265-.596-6.523-1.268-9.804-1.767-1.09-.166-3.087-.515-4.252-.437l-29.589,7.644,7.644-29.589c.079-1.166-.271-3.162-.437-4.252-.499-3.281-1.171-6.539-1.767-9.804-.777-4.254-1.459-8.52-1.836-12.83-.598-6.84-.412-13.763,1.212-20.456-5.897-3.593-10.895-8.333-15.321-13.608-2.781-3.314-5.316-6.814-7.774-10.371-1.887-2.73-3.715-5.509-5.683-8.182-.654-.888-1.818-2.547-2.698-3.315l-26.327-15.517,26.327-15.517c.88-.768,2.044-2.427,2.698-3.315,1.967-2.673,3.796-5.452,5.683-8.182,2.459-3.557,4.993-7.057,7.774-10.371,4.426-5.274,9.424-10.015,15.321-13.608-1.624-6.693-1.81-13.616-1.212-20.456.377-4.31,1.06-8.576,1.836-12.83.596-3.265,1.268-6.523,1.767-9.804.166-1.09.516-3.087.437-4.252l-7.644-29.589,29.589,7.644c1.166.079,3.162-.271,4.252-.437,3.281-.499,6.539-1.171,9.804-1.767,4.254-.777,8.52-1.459,12.83-1.836,6.84-.598,13.763-.413,20.456,1.212h0ZM209.981,72.725c.771-2.86,1.965-5.706,3.643-8.521,2.937-4.924,6.946-9.078,11.316-12.746,3.034-2.546,6.246-4.861,9.502-7.111,2.826-1.953,5.697-3.848,8.464-5.884,2.036-1.499,5.015-3.726,6.322-5.943l5.565-9.441,5.565,9.441c1.307,2.217,4.286,4.444,6.322,5.943,2.767,2.036,5.639,3.931,8.464,5.884,3.256,2.251,6.468,4.565,9.502,7.111,4.37,3.667,8.38,7.822,11.316,12.746,1.679,2.815,2.872,5.661,3.643,8.521,2.568-1.477,5.424-2.645,8.601-3.449,5.55-1.403,11.339-1.507,17.015-1.011,3.945.345,7.853.98,11.747,1.69,3.379.617,6.749,1.308,10.146,1.825,2.5.38,6.181.912,8.673.268l10.611-2.741-2.741,10.611c-.644,2.492-.112,6.173.268,8.673.516,3.397,1.208,6.767,1.825,10.146.711,3.894,1.345,7.802,1.69,11.747.496,5.676.392,11.465-1.011,17.015-.803,3.177-1.972,6.034-3.449,8.601,2.86.771,5.706,1.965,8.521,3.643,4.924,2.937,9.078,6.946,12.746,11.316,2.546,3.034,4.861,6.246,7.111,9.502,1.953,2.826,3.848,5.697,5.884,8.464,1.499,2.036,3.726,5.015,5.943,6.322l9.441,5.565-9.441,5.565c-2.217,1.307-4.444,4.286-5.943,6.322-2.036,2.767-3.931,5.639-5.884,8.464-2.251,3.256-4.565,6.468-7.111,9.502-3.667,4.37-7.822,8.38-12.746,11.316-2.815,1.679-5.661,2.872-8.521,3.643,1.477,2.568,2.646,5.424,3.449,8.601,1.403,5.55,1.507,11.339,1.011,17.015-.345,3.945-.98,7.853-1.69,11.747-.617,3.379-1.308,6.749-1.825,10.146-.38,2.5-.912,6.181-.268,8.673l2.741,10.611-10.611-2.741c-2.492-.644-6.173-.112-8.673.268-3.397.516-6.767,1.208-10.146,1.824-3.894.711-7.802,1.345-11.747,1.69-5.676.496-11.465.392-17.015-1.011-3.177-.803-6.034-1.972-8.601-3.449-.771,2.86-1.965,5.706-3.643,8.521-2.937,4.924-6.946,9.078-11.316,12.746-3.034,2.546-6.246,4.861-9.502,7.111-2.826,1.953-5.697,3.848-8.464,5.884-2.036,1.499-5.015,3.726-6.322,5.943l-5.565,9.441-5.565-9.441c-1.307-2.217-4.286-4.444-6.322-5.943-2.767-2.036-5.639-3.931-8.464-5.884-3.256-2.251-6.468-4.565-9.502-7.111-4.37-3.667-8.38-7.822-11.316-12.746-1.679-2.815-2.872-5.661-3.643-8.521-2.568,1.477-5.424,2.645-8.601,3.449-5.55,1.403-11.339,1.507-17.015,1.011-3.945-.345-7.853-.98-11.747-1.69-3.379-.617-6.749-1.308-10.146-1.824-2.5-.38-6.181-.912-8.673-.268l-10.611,2.741,2.741-10.611c.644-2.492.112-6.173-.268-8.673-.516-3.397-1.208-6.767-1.824-10.146-.711-3.894-1.345-7.802-1.69-11.747-.496-5.676-.392-11.465,1.011-17.015.803-3.177,1.972-6.034,3.449-8.601-2.86-.771-5.706-1.965-8.521-3.643-4.924-2.937-9.078-6.946-12.746-11.316-2.546-3.034-4.861-6.246-7.111-9.502-1.953-2.826-3.848-5.697-5.884-8.464-1.499-2.036-3.726-5.015-5.943-6.322l-9.441-5.565,9.441-5.565c2.217-1.307,4.444-4.286,5.943-6.322,2.036-2.767,3.931-5.639,5.884-8.464,2.251-3.256,4.565-6.468,7.111-9.502,3.667-4.37,7.822-8.38,12.746-11.316,2.815-1.679,5.661-2.872,8.521-3.643-1.477-2.568-2.645-5.424-3.449-8.601-1.403-5.55-1.507-11.339-1.011-17.015.345-3.945.98-7.853,1.69-11.747.617-3.379,1.308-6.749,1.824-10.146.38-2.5.912-6.181.268-8.673l-2.741-10.611,10.611,2.741c2.492.644,6.173.112,8.673-.268,3.397-.517,6.767-1.208,10.146-1.825,3.894-.711,7.802-1.345,11.747-1.69,5.676-.496,11.465-.392,17.015,1.011,3.177.803,6.034,1.972,8.601,3.449h0ZM198.774,157.708v16.466l-16.466-9.508c-4.69-2.708-10.735-5.509-15.913-2.421-2.28,1.36-4.307,3.481-6.002,5.501-3.457,4.119-6.319,8.784-9.462,13.166,3.143,4.382,6.005,9.046,9.462,13.166,1.696,2.02,3.723,4.142,6.002,5.501,5.178,3.088,11.223.287,15.913-2.421l16.466-9.508v16.466l11.642,11.643-18.365,4.92c-5.232,1.402-11.487,3.696-12.965,9.541-.651,2.575-.584,5.505-.354,8.134.468,5.357,1.743,10.679,2.619,16,5.321.876,10.643,2.151,16,2.619,2.63.23,5.559.297,8.134-.354,5.845-1.478,8.139-7.733,9.541-12.965l4.92-18.365,11.643,11.642h16.466l-9.508,16.466c-2.708,4.69-5.509,10.735-2.421,15.913,1.36,2.28,3.481,4.307,5.501,6.002,4.12,3.457,8.784,6.319,13.166,9.462,4.382-3.143,9.046-6.005,13.166-9.462,2.02-1.696,4.141-3.723,5.501-6.002,3.088-5.178.287-11.223-2.421-15.913l-9.508-16.466h16.466l11.643-11.642,4.92,18.365c1.402,5.232,3.695,11.487,9.541,12.965,2.575.651,5.505.584,8.134.354,5.357-.468,10.679-1.743,16-2.619.876-5.321,2.151-10.643,2.619-16,.23-2.63.297-5.559-.355-8.134-1.478-5.845-7.733-8.139-12.965-9.541l-18.365-4.92,11.642-11.643v-16.466l16.466,9.508c4.69,2.708,10.735,5.509,15.913,2.421,2.28-1.36,4.307-3.481,6.002-5.501,3.457-4.119,6.319-8.784,9.462-13.166-3.143-4.382-6.005-9.046-9.462-13.166-1.696-2.02-3.723-4.141-6.002-5.501-5.178-3.088-11.223-.287-15.913,2.421l-16.466,9.508v-16.466l-11.642-11.643,18.365-4.92c5.232-1.402,11.487-3.696,12.965-9.541.651-2.575.584-5.505.355-8.134-.468-5.357-1.743-10.679-2.619-16-5.321-.876-10.643-2.151-16-2.619-2.63-.23-5.559-.297-8.134.355-5.845,1.478-8.139,7.733-9.541,12.965l-4.92,18.365-11.643-11.642h-16.466l9.508-16.466c2.708-4.69,5.509-10.735,2.421-15.913-1.36-2.28-3.481-4.307-5.501-6.002-4.119-3.457-8.784-6.319-13.166-9.462-4.382,3.143-9.046,6.005-13.166,9.462-2.02,1.696-4.141,3.723-5.501,6.002-3.088,5.178-.287,11.223,2.421,15.913l9.508,16.466h-16.466l-11.643,11.642-4.92-18.365c-1.402-5.232-3.696-11.487-9.541-12.965-2.575-.651-5.505-.584-8.134-.355-5.357.468-10.679,1.743-16,2.619-.876,5.321-2.151,10.643-2.619,16-.23,2.63-.297,5.559.354,8.134,1.478,5.845,7.733,8.139,12.965,9.541l18.365,4.92-11.642,11.643h0ZM165.149,180.912c1.344,1.943,2.725,3.851,4.22,5.632.602.718,1.611,1.886,2.503,2.599,1.348-.318,3.717-1.638,4.576-2.134l10.56-6.098-10.56-6.098c-.859-.496-3.227-1.816-4.576-2.134-.892.713-1.901,1.881-2.503,2.599-1.495,1.781-2.876,3.69-4.22,5.632h0ZM210.493,167.351v31.911l12.975,12.976,12.976,12.975h36.7l12.975-12.975,12.975-12.976v-36.7l-12.975-12.975-12.975-12.975h-36.7l-12.976,12.975-12.975,12.975v4.789h0ZM206.862,228.843l-11.778,3.155c-.958.257-3.567.999-4.745,1.727-.127,1.135-.014,2.673.068,3.608.202,2.316.575,4.643.999,6.966,2.324.424,4.65.797,6.966.999.935.082,2.473.194,3.608.068.728-1.178,1.47-3.787,1.727-4.745l3.155-11.778h0ZM254.793,248.697l-6.098,10.56c-.496.859-1.815,3.227-2.134,4.576.713.892,1.881,1.901,2.599,2.503,1.781,1.495,3.69,2.876,5.633,4.22,1.943-1.344,3.851-2.725,5.632-4.22.718-.602,1.886-1.611,2.599-2.503-.318-1.348-1.638-3.717-2.134-4.576l-6.098-10.56h0ZM302.724,228.843l3.155,11.778c.257.958.999,3.567,1.727,4.745,1.135.127,2.673.014,3.608-.068,2.316-.202,4.643-.575,6.967-.999.424-2.324.796-4.65.999-6.966.082-.935.195-2.473.068-3.608-1.178-.728-3.787-1.47-4.745-1.727l-11.778-3.155h0ZM322.578,180.912l10.56,6.098c.859.496,3.227,1.815,4.576,2.134.892-.713,1.901-1.881,2.503-2.599,1.495-1.781,2.876-3.69,4.22-5.632-1.344-1.943-2.725-3.852-4.22-5.632-.603-.718-1.611-1.886-2.503-2.599-1.348.318-3.717,1.638-4.576,2.134l-10.56,6.098h0ZM302.724,132.981l11.778-3.155c.958-.257,3.567-.999,4.745-1.727.127-1.135.014-2.673-.068-3.608-.202-2.316-.575-4.643-.999-6.967-2.324-.424-4.65-.796-6.967-.999-.935-.082-2.473-.195-3.608-.068-.728,1.178-1.47,3.787-1.727,4.745l-3.155,11.778h0ZM254.793,113.127l6.098-10.56c.496-.859,1.815-3.227,2.134-4.576-.713-.892-1.881-1.901-2.599-2.503-1.781-1.495-3.69-2.876-5.632-4.22-1.943,1.344-3.851,2.725-5.633,4.22-.718.603-1.886,1.611-2.599,2.503.318,1.348,1.638,3.717,2.134,4.576l6.098,10.56h0ZM206.862,132.981l-3.155-11.778c-.257-.958-.999-3.567-1.727-4.745-1.135-.127-2.673-.014-3.608.068-2.316.203-4.643.575-6.966.999-.424,2.324-.797,4.65-.999,6.967-.082.935-.195,2.473-.068,3.608,1.178.728,3.787,1.47,4.745,1.727l11.778,3.155h0Z"/>
  <path class="st0" d="M392.037,172.859c-2.07-2.82-4-5.75-5.99-8.62-2.14-3.09-4.33-6.15-6.75-9.03-3.18-3.79-6.82-7.37-11.1-9.92-6.43-3.83-13.03-4.51-19.51-3.27,5.46-3.7,9.65-8.85,11.48-16.1,1.22-4.83,1.27-9.93.84-14.87-.33-3.75-.94-7.46-1.61-11.15-.63-3.44-1.33-6.88-1.86-10.34-.5-3.28-1.07-7.64-.13-11.26-3.62.94-7.98.37-11.26-.13-3.46-.53-6.9-1.23-10.34-1.86-3.69-.67-7.4-1.28-11.15-1.61-4.94-.43-10.03-.38-14.87.84-7.25,1.83-12.4,6.02-16.1,11.48,1.24-6.48.56-13.08-3.27-19.51-2.55-4.28-6.12-7.92-9.92-11.1-2.88-2.42-5.94-4.61-9.03-6.75-2.87-1.99-5.8-3.92-8.62-5.99-2.67-1.97-6.16-4.65-8.05-7.87-1.9,3.22-5.39,5.9-8.06,7.87-2.82,2.07-5.75,4-8.62,5.99-3.09,2.14-6.15,4.33-9.02,6.75-3.8,3.18-7.37,6.82-9.93,11.1-3.83,6.43-4.51,13.03-3.27,19.51-3.7-5.46-8.85-9.65-16.1-11.48-4.83-1.22-9.93-1.27-14.87-.84-3.74.33-7.46.94-11.15,1.61-3.44.63-6.88,1.33-10.33,1.86-3.29.5-7.65,1.07-11.26.13.93,3.62.36,7.98-.14,11.26-.53,3.46-1.23,6.9-1.86,10.34-.67,3.69-1.28,7.4-1.61,11.15-.43,4.94-.38,10.04.84,14.87,1.84,7.25,6.02,12.4,11.49,16.11-6.48-1.25-13.08-.57-19.51,3.26-4.28,2.55-7.92,6.13-11.11,9.92-2.41,2.88-4.61,5.94-6.75,9.03-1.98,2.87-3.92,5.8-5.99,8.62-1.97,2.67-4.65,6.16-7.87,8.05,3.22,1.9,5.9,5.39,7.87,8.06,2.07,2.82,4.01,5.75,5.99,8.62,2.14,3.09,4.34,6.15,6.75,9.02,3.19,3.8,6.83,7.37,11.11,9.93,6.43,3.83,13.03,4.51,19.51,3.26-5.47,3.71-9.65,8.86-11.49,16.11-1.22,4.83-1.27,9.93-.84,14.87.33,3.74.94,7.46,1.61,11.15.63,3.44,1.33,6.88,1.86,10.33.5,3.29,1.07,7.65.14,11.26,3.61-.93,7.97-.36,11.26.14,3.45.53,6.89,1.23,10.33,1.86,3.69.67,7.41,1.28,11.15,1.61,4.94.43,10.04.38,14.87-.84,7.25-1.84,12.4-6.02,16.1-11.48-1.24,6.48-.56,13.08,3.27,19.5,2.56,4.28,6.13,7.92,9.93,11.11,2.87,2.41,5.93,4.61,9.02,6.75,2.87,1.98,5.8,3.92,8.62,5.99,2.67,1.97,6.16,4.65,8.06,7.87,1.89-3.22,5.38-5.9,8.05-7.87,2.82-2.07,5.75-4.01,8.62-5.99,3.09-2.14,6.15-4.34,9.03-6.75,3.8-3.19,7.37-6.83,9.92-11.11,3.83-6.42,4.51-13.02,3.27-19.5,3.7,5.46,8.85,9.64,16.1,11.48,4.84,1.22,9.93,1.27,14.87.84,3.75-.33,7.46-.94,11.15-1.61,3.44-.63,6.88-1.33,10.34-1.86,3.28-.5,7.64-1.07,11.26-.14-.94-3.61-.37-7.97.13-11.26.53-3.45,1.23-6.89,1.86-10.33.67-3.69,1.28-7.41,1.61-11.15.43-4.94.38-10.04-.84-14.87-1.83-7.25-6.02-12.4-11.48-16.1,6.48,1.24,13.08.56,19.51-3.27,4.28-2.56,7.92-6.13,11.1-9.93,2.42-2.87,4.61-5.93,6.75-9.02,1.99-2.87,3.92-5.8,5.99-8.62,1.97-2.67,4.65-6.16,7.87-8.06-3.22-1.89-5.9-5.38-7.87-8.05ZM310.527,78.449c4.5-1.14,9.27-1.16,13.87-.76,7.19.63,14.18,2.36,21.3,3.45,2.26.34,4.56.62,6.86.66l1.34.01.01,1.34c.04,2.3.32,4.6.66,6.87,1.09,7.11,2.82,14.1,3.45,21.29.4,4.6.38,9.37-.76,13.87-1.82,7.18-6.22,12.02-11.86,15.39.69-1.48,1.25-3.07,1.68-4.77,1.14-4.51,1.22-9.21.82-13.82-.29-3.26-.82-6.5-1.4-9.72-.52-2.85-1.11-5.69-1.54-8.55-.36-2.32-.8-5.5-.2-7.81l1.73-6.68-6.68,1.73c-2.31.6-5.49.16-7.81-.2-2.86-.43-5.7-1.02-8.55-1.54-3.22-.58-6.46-1.11-9.72-1.4-4.61-.4-9.31-.32-13.82.82-1.7.43-3.28.99-4.76,1.67,3.37-5.63,8.21-10.03,15.38-11.85ZM221.747,69.049c2.38-3.99,5.74-7.37,9.28-10.34,5.52-4.64,11.69-8.36,17.49-12.62,1.85-1.37,3.67-2.79,5.32-4.39l.96-.93.96.93c1.64,1.6,3.47,3.02,5.32,4.39,5.79,4.26,11.96,7.98,17.49,12.62,3.53,2.97,6.89,6.35,9.27,10.34,3.79,6.35,4.1,12.89,2.5,19.26-.56-1.53-1.29-3.05-2.19-4.56-2.38-3.99-5.65-7.36-9.19-10.34-2.51-2.11-5.17-4.02-7.87-5.88-2.38-1.65-4.8-3.25-7.13-4.96-1.89-1.4-4.45-3.33-5.66-5.39l-3.5-5.93-3.5,5.93c-1.22,2.06-3.77,3.99-5.67,5.39-2.33,1.71-4.75,3.31-7.13,4.96-2.69,1.86-5.35,3.77-7.86,5.88-3.55,2.98-6.82,6.35-9.2,10.34-.9,1.51-1.62,3.02-2.18,4.55-1.6-6.36-1.3-12.9,2.49-19.25ZM152.327,125.179c-1.13-4.5-1.16-9.27-.75-13.87.62-7.19,2.36-14.18,3.44-21.29.34-2.27.63-4.57.66-6.87l.02-1.34,1.34-.01c2.29-.04,4.59-.32,6.86-.66,7.11-1.09,14.11-2.82,21.29-3.45,4.6-.4,9.37-.38,13.87.76,7.17,1.82,12.01,6.22,15.39,11.85-1.48-.68-3.06-1.24-4.77-1.67-4.5-1.14-9.21-1.22-13.81-.82-3.27.29-6.51.82-9.73,1.4-2.85.52-5.68,1.11-8.55,1.54-2.32.36-5.49.8-7.81.2l-6.67-1.73,1.72,6.68c.6,2.31.16,5.49-.2,7.81-.43,2.86-1.01,5.7-1.53,8.55-.59,3.22-1.12,6.46-1.4,9.72-.41,4.61-.33,9.31.81,13.82.43,1.7.99,3.29,1.68,4.77-5.64-3.37-10.04-8.21-11.86-15.39ZM142.927,213.959c-3.98-2.38-7.37-5.74-10.34-9.28-4.64-5.52-8.36-11.69-12.62-17.49-1.36-1.85-2.79-3.67-4.39-5.32l-.93-.96.93-.96c1.6-1.64,3.03-3.47,4.39-5.31,4.26-5.8,7.98-11.97,12.62-17.5,2.97-3.53,6.36-6.89,10.34-9.27,6.36-3.79,12.9-4.1,19.26-2.5-1.52.56-3.04,1.29-4.55,2.19-4,2.38-7.37,5.65-10.35,9.19-2.1,2.51-4.02,5.17-5.88,7.87-1.65,2.38-3.24,4.8-4.96,7.13-1.39,1.89-3.32,4.45-5.38,5.66l-5.94,3.5,5.94,3.5c2.06,1.22,3.99,3.77,5.38,5.67,1.72,2.33,3.31,4.75,4.96,7.13,1.86,2.69,3.78,5.35,5.88,7.86,2.98,3.55,6.35,6.82,10.35,9.2,1.51.9,3.02,1.62,4.54,2.18-6.36,1.6-12.9,1.29-19.25-2.49ZM199.057,283.379c-4.5,1.13-9.27,1.16-13.87.75-7.18-.62-14.18-2.36-21.29-3.44-2.27-.34-4.57-.63-6.86-.66l-1.34-.02-.02-1.34c-.03-2.29-.32-4.59-.66-6.86-1.08-7.11-2.82-14.11-3.44-21.29-.41-4.6-.38-9.37.75-13.87,1.82-7.17,6.22-12.01,11.85-15.38-.68,1.47-1.24,3.06-1.67,4.76-1.14,4.5-1.22,9.21-.81,13.82.28,3.26.81,6.5,1.4,9.72.52,2.85,1.1,5.68,1.53,8.55.36,2.32.8,5.49.2,7.81l-1.72,6.67,6.67-1.72c2.32-.6,5.49-.16,7.81.2,2.87.43,5.7,1.01,8.55,1.53,3.22.59,6.46,1.12,9.73,1.4,4.6.41,9.31.33,13.81-.81,1.71-.43,3.29-.99,4.77-1.67-3.38,5.63-8.22,10.03-15.39,11.85ZM287.837,292.779c-2.38,3.98-5.74,7.37-9.27,10.34-5.53,4.64-11.7,8.36-17.49,12.62-1.85,1.36-3.68,2.79-5.32,4.39l-.96.93-.96-.93c-1.65-1.6-3.47-3.03-5.32-4.39-5.8-4.26-11.97-7.98-17.49-12.62-3.54-2.97-6.9-6.36-9.28-10.34-3.78-6.35-4.09-12.89-2.49-19.25.56,1.52,1.28,3.03,2.18,4.54,2.38,4,5.65,7.37,9.2,10.35,2.51,2.1,5.17,4.02,7.86,5.88,2.38,1.65,4.8,3.24,7.13,4.96,1.9,1.39,4.45,3.32,5.67,5.38l3.5,5.94,3.5-5.94c1.21-2.06,3.77-3.99,5.66-5.38,2.33-1.72,4.75-3.31,7.13-4.96,2.7-1.86,5.36-3.78,7.87-5.88,3.54-2.98,6.81-6.35,9.19-10.35.9-1.51,1.63-3.03,2.19-4.55,1.6,6.36,1.29,12.9-2.5,19.26ZM288.317,245.329l-2.02-7.56-5.62,5.62h-7.96l3.92,6.78c4.02,6.97,6.85,14.95,2.37,22.45-1.75,2.94-4.29,5.46-6.9,7.64-4.54,3.81-9.68,6.91-14.46,10.42-.97.72-1.93,1.45-2.85,2.22-.93-.77-1.89-1.5-2.86-2.22-4.77-3.51-9.92-6.61-14.46-10.42-2.61-2.18-5.15-4.7-6.9-7.64-4.47-7.5-1.65-15.48,2.38-22.45l3.91-6.78h-7.95l-5.63-5.62-2.02,7.56c-2.08,7.77-5.73,15.41-14.2,17.55-3.32.84-6.89.83-10.28.53-5.91-.52-11.73-1.97-17.59-2.86-1.2-.18-2.39-.34-3.59-.45-.11-1.2-.27-2.39-.45-3.59-.89-5.86-2.34-11.68-2.86-17.59-.3-3.39-.31-6.96.53-10.28,2.14-8.47,9.78-12.12,17.55-14.2l7.56-2.02-5.62-5.63v-7.95l-6.78,3.91c-6.97,4.03-14.95,6.85-22.45,2.38-2.94-1.75-5.46-4.29-7.64-6.9-3.81-4.54-6.91-9.69-10.42-14.46-.72-.97-1.45-1.93-2.22-2.86.77-.92,1.5-1.88,2.22-2.85,3.51-4.78,6.61-9.92,10.42-14.46,2.18-2.61,4.7-5.15,7.64-6.9,7.5-4.48,15.48-1.65,22.45,2.37l6.78,3.92v-7.96l5.62-5.62-7.56-2.02c-7.77-2.09-15.41-5.73-17.55-14.2-.84-3.32-.83-6.89-.53-10.28.52-5.91,1.97-11.74,2.86-17.6.18-1.19.34-2.39.45-3.59,1.2-.1,2.39-.26,3.59-.45,5.86-.89,11.68-2.34,17.59-2.85,3.39-.3,6.96-.31,10.28.52,8.47,2.15,12.12,9.79,14.2,17.56l2.02,7.56,5.63-5.62h7.95l-3.91-6.78c-4.03-6.97-6.85-14.95-2.38-22.45,1.75-2.94,4.29-5.46,6.9-7.64,4.54-3.82,9.69-6.91,14.46-10.43.97-.71,1.93-1.45,2.86-2.22.92.77,1.88,1.51,2.85,2.22,4.78,3.52,9.92,6.61,14.46,10.43,2.61,2.18,5.15,4.7,6.9,7.64,4.48,7.5,1.65,15.48-2.37,22.45l-3.92,6.78h7.96l5.62,5.62,2.02-7.56c2.09-7.77,5.73-15.41,14.2-17.56,3.32-.83,6.89-.82,10.28-.52,5.91.51,11.74,1.96,17.6,2.85,1.19.19,2.39.35,3.59.45.1,1.2.26,2.4.45,3.59.89,5.86,2.34,11.69,2.85,17.6.3,3.39.31,6.96-.52,10.28-2.15,8.47-9.79,12.11-17.56,14.2l-7.56,2.02,5.62,5.62v7.96l6.78-3.92c6.97-4.02,14.95-6.85,22.45-2.37,2.94,1.75,5.46,4.29,7.65,6.9,3.81,4.54,6.9,9.68,10.42,14.46.71.97,1.45,1.93,2.22,2.85-.77.93-1.51,1.89-2.22,2.86-3.52,4.77-6.61,9.92-10.42,14.46-2.19,2.61-4.71,5.15-7.65,6.9-7.5,4.47-15.48,1.65-22.45-2.38l-6.78-3.91v7.95l-5.62,5.63,7.56,2.02c7.77,2.08,15.41,5.73,17.56,14.2.83,3.32.82,6.89.52,10.28-.51,5.91-1.96,11.73-2.85,17.59-.19,1.2-.35,2.39-.45,3.59-1.2.11-2.4.27-3.59.45-5.86.89-11.69,2.34-17.6,2.86-3.39.3-6.96.31-10.28-.53-8.47-2.14-12.11-9.78-14.2-17.55ZM357.257,236.649c1.14,4.5,1.16,9.27.76,13.87-.63,7.18-2.36,14.18-3.45,21.29-.34,2.27-.62,4.57-.66,6.86l-.01,1.34-1.34.02c-2.3.03-4.6.32-6.86.66-7.12,1.08-14.11,2.82-21.3,3.44-4.6.41-9.37.38-13.87-.75-7.17-1.82-12.01-6.22-15.38-11.85,1.48.68,3.06,1.24,4.76,1.67,4.51,1.14,9.21,1.22,13.82.81,3.26-.28,6.5-.81,9.72-1.4,2.85-.52,5.69-1.1,8.55-1.53,2.32-.36,5.5-.8,7.81-.2l6.68,1.72-1.73-6.67c-.6-2.32-.16-5.49.2-7.81.43-2.87,1.02-5.7,1.54-8.55.58-3.22,1.11-6.46,1.4-9.72.4-4.61.32-9.32-.82-13.82-.43-1.7-.99-3.29-1.67-4.76,5.63,3.37,10.03,8.21,11.85,15.38ZM394.007,181.869c-1.6,1.65-3.02,3.47-4.38,5.32-4.27,5.8-7.99,11.97-12.63,17.49-2.97,3.54-6.35,6.9-10.34,9.28-6.35,3.79-12.89,4.09-19.25,2.49,1.53-.56,3.04-1.28,4.55-2.18,3.99-2.38,7.36-5.65,10.34-9.2,2.11-2.51,4.02-5.17,5.88-7.86,1.65-2.38,3.25-4.8,4.96-7.13,1.4-1.9,3.33-4.45,5.39-5.67l5.93-3.5-5.93-3.5c-2.06-1.21-3.99-3.77-5.39-5.66-1.71-2.33-3.31-4.75-4.96-7.13-1.86-2.7-3.77-5.36-5.88-7.87-2.98-3.54-6.35-6.81-10.34-9.19-1.51-.9-3.03-1.63-4.56-2.19,6.37-1.6,12.91-1.29,19.26,2.5,3.99,2.38,7.37,5.74,10.34,9.27,4.64,5.53,8.36,11.7,12.63,17.5,1.36,1.84,2.78,3.67,4.38,5.31l.93.96-.93.96Z"/>
  <path class="st0" d="M425.617,384.602c-34.305-20.249-102.267-28.862-158.447-5.526,50.862-38.1,118.304-20.812,119.951-20.645l-18.497-41.478,32.303,8.342,24.691,59.308Z"/>
  <g>
    <path class="st2" d="M29.155,492.667H10.617c-1.073,3.365-3.119,5.933-6.135,7.702l-4.482-2.567c2.088-.581,3.8-1.733,5.135-3.459,1.334-1.727,2.001-3.691,2.001-5.896v-.044h.043v-8.398c0-1.363.485-2.538,1.458-3.524.971-.986,2.154-1.479,3.546-1.479h1.74c3.568.059,6.643,1.306,9.226,3.742,2.582,2.437,4.032,5.425,4.351,8.964v.174c0,.059.007.16.022.305.014.146.021.247.021.305h1.61v4.178ZM11.357,488.489h10.749c.696,0,1.102-.275,1.218-.826-.319-2.35-1.364-4.337-3.133-5.962-1.77-1.624-3.844-2.465-6.222-2.523-1.741.029-2.611.957-2.611,2.784v6.527Z"/>
    <path class="st2" d="M37.771,492.667h-9.53v-4.178h6.31c.841,0,1.262-.405,1.262-1.218v-12.315h4.178v15.491c0,.609-.218,1.132-.653,1.567-.435.435-.958.652-1.566.652ZM32.245,498.933c-.552,0-1.009-.182-1.371-.544-.363-.363-.544-.82-.544-1.371,0-.522.181-.965.544-1.327.362-.363.819-.544,1.371-.544.522,0,.964.181,1.327.544s.544.805.544,1.327c0,.551-.182,1.008-.544,1.371-.363.362-.805.544-1.327.544ZM38.38,497.018c0,.551-.189,1.008-.565,1.371-.377.362-.827.544-1.349.544s-.965-.182-1.327-.544-.544-.82-.544-1.371c0-.522.181-.965.544-1.327.362-.363.805-.544,1.327-.544s.972.181,1.349.544c.376.362.565.805.565,1.327Z"/>
    <path class="st2" d="M58.789,492.667h-3.307c-.812,0-1.582-.202-2.306-.609-.668,1.856-1.675,3.496-3.024,4.917s-2.923,2.509-4.721,3.264l-5.353-3.089v-.044c2.698,0,4.989-.95,6.875-2.851,1.885-1.899,2.828-4.184,2.828-6.854v-12.488h4.178v10.922c.028,1.771.972,2.654,2.828,2.654h2.002v4.178Z"/>
    <path class="st2" d="M85.376,492.667h-27.458v-4.178h21.409v-.609c0-1.855-.929-2.784-2.785-2.784h-12.01v-4.178h.043c.203-3.655,1.639-6.752,4.308-9.29s5.846-3.808,9.53-3.808h.043v4.177h-.043c-2.523,0-4.714.856-6.571,2.567-1.856,1.713-2.887,3.83-3.089,6.354h9.748c1.392,0,2.574.493,3.546,1.479.972.986,1.458,2.161,1.458,3.524v2.567h1.871v4.178Z"/>
    <path class="st2" d="M93.122,492.667h-8.268v-4.178h5.091c.841,0,1.262-.405,1.262-1.218v-19.582h4.134v22.758c0,.609-.217,1.132-.653,1.567-.435.435-.957.652-1.566.652Z"/>
    <path class="st2" d="M103.914,492.667h-4.134v-24.804h4.134v24.804Z"/>
    <path class="st2" d="M132.894,500.282h-2.219c-3.742-.029-6.948-1.349-9.617-3.96-2.669-2.611-4.062-5.772-4.177-9.486v-3.698c0-.639.217-1.176.652-1.61.436-.436.958-.653,1.567-.653h5.265v.044c1.305,0,2.335.349,3.089,1.044.754.696,1.175,1.393,1.262,2.089l.174,1.001h-6.571c-.841,0-1.262.421-1.262,1.262v.131c0,2.641.958,4.903,2.872,6.788,1.915,1.886,4.206,2.857,6.875,2.916h.131c1.856,0,2.785-.943,2.785-2.829v-18.363h4.178v20.365c0,1.363-.494,2.531-1.479,3.503-.987.972-2.162,1.458-3.525,1.458ZM127.716,471.562c0,.522-.189.965-.565,1.327-.377.363-.827.544-1.349.544s-.972-.181-1.349-.544c-.377-.362-.565-.805-.565-1.327,0-.551.188-1.008.565-1.371.377-.362.827-.544,1.349-.544s.972.182,1.349.544c.376.363.565.82.565,1.371Z"/>
    <path class="st2" d="M149.169,469.778h-9.791v-1.871h9.791v1.871ZM146.515,492.667h-4.09v-21.235h4.09v21.235Z"/>
    <path class="st2" d="M166.14,492.667h-3.307c-.812,0-1.582-.202-2.306-.609-.668,1.856-1.675,3.496-3.024,4.917s-2.923,2.509-4.721,3.264l-5.353-3.089v-.044c2.698,0,4.989-.95,6.875-2.851,1.885-1.899,2.828-4.184,2.828-6.854v-12.488h4.178v10.922c.028,1.771.972,2.654,2.828,2.654h2.002v4.178Z"/>
    <path class="st2" d="M194.903,492.667h-29.633v-4.178h6.527c.029-.145.043-.348.043-.609v-.174c.319-3.539,1.777-6.527,4.374-8.964,2.596-2.437,5.679-3.684,9.247-3.742h1.74c1.363,0,2.531.486,3.503,1.458.972.972,1.458,2.153,1.458,3.546v8.485h2.741v4.178ZM188.028,487.227v-5.266c0-1.827-.871-2.755-2.611-2.784-2.408.059-4.497.899-6.266,2.523-1.77,1.625-2.8,3.612-3.089,5.962.087.551.493.826,1.218.826h9.486c.841,0,1.262-.42,1.262-1.262ZM181.892,471.997c-.551,0-1.008-.181-1.371-.544-.363-.362-.544-.819-.544-1.37,0-.522.181-.964.544-1.327s.819-.544,1.371-.544c.522,0,.964.182,1.327.544.362.363.544.805.544,1.327,0,.551-.182,1.008-.544,1.37s-.805.544-1.327.544ZM188.028,470.083c0,.551-.189,1.008-.566,1.37-.377.363-.827.544-1.349.544s-.965-.181-1.327-.544c-.363-.362-.544-.819-.544-1.37,0-.522.181-.964.544-1.327.362-.362.805-.544,1.327-.544s.972.182,1.349.544c.376.363.566.805.566,1.327Z"/>
    <path class="st2" d="M207.043,492.667h-12.663v-4.178h5.091c.841,0,1.262-.405,1.262-1.218v-19.582h4.134v20.8h2.176v4.178Z"/>
    <path class="st2" d="M214.746,492.667h-8.268v-4.178h5.091c.841,0,1.262-.405,1.262-1.218v-19.582h4.134v22.758c0,.609-.217,1.132-.653,1.567-.435.435-.957.652-1.566.652Z"/>
    <path class="st2" d="M254.605,492.667h-2.785c-.783,0-1.523-.188-2.219-.565-.435.377-.929.565-1.479.565h-15.839c-.609,0-1.131-.218-1.567-.652-.435-.436-.652-.958-.652-1.567v-2.784c.319-3.51,1.762-6.477,4.33-8.899,2.567-2.422,5.62-3.677,9.16-3.764h1.349c.638,0,1.276.116,1.915.348v-.435h3.568v10.748c0,1.886.942,2.828,2.829,2.828h1.392v4.178ZM246.12,487.793v-5.831c0-1.798-.856-2.741-2.567-2.828-2.379.087-4.446.936-6.201,2.546-1.755,1.61-2.792,3.59-3.111,5.939.116.581.522.87,1.218.87h9.486c.667,0,1.059-.231,1.175-.696ZM239.767,471.997c-.551,0-1.008-.181-1.371-.544-.363-.362-.544-.819-.544-1.37,0-.522.181-.964.544-1.327s.819-.544,1.371-.544c.522,0,.964.182,1.327.544.362.363.544.805.544,1.327,0,.551-.182,1.008-.544,1.37-.363.363-.805.544-1.327.544ZM245.902,470.083c0,.551-.189,1.008-.566,1.37-.377.363-.827.544-1.349.544s-.964-.181-1.327-.544c-.363-.362-.544-.819-.544-1.37,0-.522.181-.964.544-1.327.363-.362.805-.544,1.327-.544s.972.182,1.349.544c.377.363.566.805.566,1.327Z"/>
    <path class="st2" d="M268.748,492.667h-15.013v-4.178h6.31c.84,0,1.262-.405,1.262-1.218v-12.315h4.178v13.533h3.264v4.178ZM258.783,498.933c-.553,0-1.01-.182-1.371-.544-.363-.363-.545-.82-.545-1.371,0-.522.182-.965.545-1.327.361-.363.818-.544,1.371-.544.521,0,.963.181,1.326.544.363.362.545.805.545,1.327,0,.551-.182,1.008-.545,1.371-.363.362-.805.544-1.326.544ZM264.918,497.018c0,.551-.189,1.008-.566,1.371-.377.362-.826.544-1.348.544s-.965-.182-1.328-.544c-.363-.363-.543-.82-.543-1.371,0-.522.18-.965.543-1.327.363-.363.805-.544,1.328-.544s.971.181,1.348.544c.377.362.566.805.566,1.327Z"/>
    <path class="st2" d="M277.363,492.667h-9.529v-4.178h6.31c.841,0,1.262-.405,1.262-1.218v-12.315h4.178v15.491c0,.609-.218,1.132-.653,1.567s-.957.652-1.566.652ZM278.713,471.432c-.349.378-.783.565-1.306.565s-.973-.188-1.35-.565c-.377-.377-.565-.826-.565-1.349s.188-.972.565-1.35c.377-.376.827-.565,1.35-.565s.964.189,1.327.565c.362.378.544.827.544,1.35s-.189.972-.565,1.349Z"/>
    <path class="st2" d="M292.637,492.667h-6.396c-.639,0-1.175-.218-1.61-.652-.435-.436-.652-.958-.652-1.567v-22.671h4.177v19.451c0,.842.421,1.262,1.263,1.262h3.22v4.178Z"/>
    <path class="st2" d="M320.922,492.667h-1.523c-.667,0-1.363-.145-2.088-.436-.116.755-.334,1.494-.653,2.22h-.043c-.204.464-.537.819-1.001,1.066-.465.246-.958.312-1.479.195l-13.011-2.785v-1.305c-.436.696-1.074,1.044-1.915,1.044h-7.137v-4.178h3.917c.812,0,1.232-.362,1.262-1.088v-7.397c0-1.363.493-2.538,1.479-3.524.985-.986,2.16-1.479,3.524-1.479h1.74c3.539.029,6.607,1.233,9.204,3.611,2.596,2.38,4.083,5.31,4.46,8.79.377.726,1.189,1.088,2.437,1.088h.827v4.178ZM301.428,488.751l10.443,2.219c.812.174,1.305-.145,1.479-.957l.218-1.132c0-2.639-.922-4.902-2.764-6.788-1.843-1.886-4.084-2.856-6.723-2.915-1.771.029-2.654.957-2.654,2.784v6.789Z"/>
    <path class="st2" d="M328.624,492.667h-8.268v-4.178h5.091c.842,0,1.262-.405,1.262-1.218v-19.582h4.135v22.758c0,.609-.218,1.132-.653,1.567s-.957.652-1.566.652Z"/>
    <path class="st2" d="M346.813,492.667h-10.574l-.957-4.178h3.307c-1.422-2.146-2.176-4.539-2.263-7.18v-8.616h4.178v8.181c0,3.104,1.203,5.629,3.611,7.572.522-.146.783-.551.783-1.219v-19.32h4.134v22.54c0,.609-.217,1.132-.652,1.567s-.957.652-1.566.652ZM339.416,472.041h-3.046v-.652h2.785c.405,0,.608-.175.608-.522v-.044c0-.318-.203-.479-.608-.479h-1.784c-.291,0-.537-.094-.74-.282s-.305-.414-.305-.675v-.392c0-.262.102-.485.305-.675.203-.188.449-.282.74-.282h3.046v.608h-2.829c-.377,0-.565.175-.565.522s.188.522.565.522h1.828c.29,0,.536.095.739.282.203.189.305.429.305.719v.392c0,.261-.102.485-.305.674-.203.189-.449.283-.739.283Z"/>
    <path class="st2" d="M357.604,492.667h-4.134v-24.804h4.134v24.804Z"/>
    <path class="st2" d="M387.586,492.667h-14.795c-.609,0-1.131-.218-1.566-.652-.435-.436-.652-.958-.652-1.567v-10.53c0-1.363.493-2.53,1.479-3.503.985-.972,2.16-1.458,3.524-1.458h6.223c1.77,0,3.061.668,3.873,2.002v-2.089h4.134v15.578c0,.609-.218,1.132-.652,1.567-.436.435-.958.652-1.567.652ZM385.672,487.227v-8.137h-8.094c-1.887,0-2.829.942-2.829,2.828v5.309c0,.842.421,1.262,1.263,1.262h8.398c.841,0,1.262-.42,1.262-1.262ZM378.144,471.997c-.552,0-1.008-.181-1.371-.544s-.544-.819-.544-1.37c0-.522.182-.964.544-1.327.363-.362.819-.544,1.371-.544.522,0,.964.182,1.327.544.362.363.544.805.544,1.327,0,.551-.182,1.008-.544,1.37s-.805.544-1.327.544ZM384.279,470.083c0,.551-.189,1.008-.565,1.37-.378.363-.827.544-1.35.544s-.965-.181-1.327-.544c-.363-.362-.544-.819-.544-1.37,0-.522.181-.964.544-1.327s.806-.544,1.327-.544.972.182,1.35.544c.376.363.565.805.565,1.327Z"/>
    <path class="st2" d="M397.29,471.823h-3.046v-.609h2.785c.406,0,.609-.188.609-.565v-.043c0-.319-.203-.479-.609-.479h-1.784c-.29,0-.537-.087-.739-.261-.203-.174-.305-.406-.305-.696v-.392c0-.261.102-.485.305-.675.202-.188.449-.282.739-.282h3.046v.652h-2.828c-.377,0-.565.174-.565.522s.188.522.565.522h1.827c.29,0,.537.087.74.261.202.174.305.421.305.739v.349c0,.29-.103.522-.305.696-.203.174-.45.261-.74.261ZM398.335,492.667h-4.134v-20.234h4.134v20.234Z"/>
    <path class="st2" d="M417.524,492.667h-3.307c-.812,0-1.582-.202-2.307-.609-.667,1.856-1.675,3.496-3.024,4.917-1.349,1.421-2.923,2.509-4.721,3.264l-5.353-3.089v-.044c2.698,0,4.989-.95,6.875-2.851,1.886-1.899,2.829-4.184,2.829-6.854v-12.488h4.177v10.922c.029,1.771.972,2.654,2.829,2.654h2.001v4.178Z"/>
    <path class="st2" d="M446.288,492.667h-29.634v-4.178h6.527c.028-.145.043-.348.043-.609v-.174c.319-3.539,1.777-6.527,4.373-8.964,2.597-2.437,5.679-3.684,9.247-3.742h1.741c1.363,0,2.53.486,3.503,1.458.972.972,1.457,2.153,1.457,3.546v8.485h2.742v4.178ZM439.412,487.227v-5.266c0-1.827-.87-2.755-2.61-2.784-2.408.059-4.497.899-6.267,2.523-1.77,1.625-2.8,3.612-3.09,5.962.088.551.493.826,1.219.826h9.486c.841,0,1.262-.42,1.262-1.262ZM433.276,471.997c-.551,0-1.008-.181-1.37-.544-.363-.362-.544-.819-.544-1.37,0-.522.181-.964.544-1.327s.819-.544,1.37-.544c.522,0,.965.182,1.327.544s.544.805.544,1.327c0,.551-.181,1.008-.544,1.37-.362.363-.805.544-1.327.544ZM439.412,470.083c0,.551-.188,1.008-.565,1.37-.377.363-.827.544-1.349.544s-.965-.181-1.327-.544c-.363-.362-.544-.819-.544-1.37,0-.522.181-.964.544-1.327s.805-.544,1.327-.544.972.182,1.349.544c.377.363.565.805.565,1.327Z"/>
    <path class="st2" d="M474.572,492.667h-1.523c-.667,0-1.363-.145-2.088-.436-.116.755-.334,1.494-.653,2.22h-.043c-.204.464-.537.819-1.001,1.066-.465.246-.958.312-1.479.195l-13.011-2.785v-1.305c-.436.696-1.074,1.044-1.915,1.044h-7.137v-4.178h3.917c.812,0,1.232-.362,1.262-1.088v-7.397c0-1.363.493-2.538,1.479-3.524.985-.986,2.16-1.479,3.524-1.479h1.74c3.539.029,6.607,1.233,9.204,3.611,2.596,2.38,4.083,5.31,4.46,8.79.377.726,1.189,1.088,2.437,1.088h.827v4.178ZM455.078,488.751l10.443,2.219c.812.174,1.305-.145,1.479-.957l.218-1.132c0-2.639-.922-4.902-2.764-6.788-1.843-1.886-4.084-2.856-6.723-2.915-1.771.029-2.654.957-2.654,2.784v6.789Z"/>
    <path class="st2" d="M482.274,492.667h-8.268v-4.178h5.091c.842,0,1.262-.405,1.262-1.218v-19.582h4.135v22.758c0,.609-.218,1.132-.653,1.567s-.957.652-1.566.652Z"/>
    <path class="st2" d="M493.066,492.667h-4.134v-24.804h4.134v24.804Z"/>
  </g>
  <g>
    <path class="st3" d="M7.993,516.627c1.782,0,3.106.208,3.971.623.866.416,1.459,1.171,1.782,2.266s.484,2.787.484,5.078c0,2.274-.162,3.959-.484,5.054-.322,1.094-.916,1.85-1.782,2.265-.865.416-2.189.624-3.971.624H2.291v-15.909h5.702ZM4.836,530.424h4.658c.747,0,1.264-.136,1.553-.408.289-.271.433-.755.433-1.45v-7.968c0-.695-.145-1.18-.433-1.451-.289-.271-.806-.407-1.553-.407h-4.658v11.685Z"/>
    <path class="st3" d="M20.72,530.424h7v2.112h-9.545v-15.909h9.469l-.306,2.112h-6.618v4.837h6.033v2.011h-6.033v4.837Z"/>
    <path class="st3" d="M33.295,532.485c-.849-.288-1.438-.793-1.769-1.515-.331-.721-.496-1.803-.496-3.245v-11.099h2.545v14.127h3.666c.95,0,1.663-.038,2.138-.114.475-.076.806-.208.993-.395.187-.187.28-.467.28-.84v-12.778h2.546v11.099c0,1.442-.166,2.524-.497,3.245-.331.722-.921,1.227-1.769,1.515-.849.288-2.122.433-3.818.433s-2.97-.145-3.818-.433Z"/>
    <path class="st3" d="M52.361,532.536h-2.545v-13.797h-4.2v-2.112h10.946v2.112h-4.2v13.797Z"/>
    <path class="st3" d="M60.875,530.64c.908.11,1.778.166,2.609.166.865,0,1.824-.052,2.876-.153v-4.734l-2.418-.179c-1.562-.118-2.732-.317-3.513-.598-.781-.28-1.328-.722-1.642-1.324-.314-.602-.471-1.472-.471-2.608,0-1.223.157-2.193.471-2.915.313-.721.823-1.243,1.527-1.565s1.65-.483,2.838-.483c1.714,0,3.428.161,5.142.483l-.331,2.011c-1.358-.254-2.911-.382-4.658-.382-.865,0-1.604.043-2.214.128v4.785l2.825.178c1.357.086,2.41.285,3.157.599.746.314,1.276.798,1.591,1.451.313.653.471,1.557.471,2.711,0,1.188-.187,2.121-.56,2.8-.374.679-.984,1.167-1.833,1.464-.849.297-2.011.445-3.487.445-1.799,0-3.513-.204-5.142-.611l.382-2.087c.679.17,1.472.31,2.38.42Z"/>
    <path class="st3" d="M80.031,532.765c-.679.102-1.476.152-2.393.152-1.612,0-2.826-.242-3.64-.726s-1.383-1.307-1.706-2.469c-.323-1.162-.483-2.872-.483-5.13,0-2.273.165-3.996.496-5.167s.925-1.994,1.782-2.469c.857-.476,2.125-.713,3.806-.713.577,0,1.235.051,1.973.152.738.102,1.328.229,1.77.382l-.331,2.088c-.594-.136-1.282-.246-2.062-.331-.781-.085-1.417-.128-1.909-.128-1.035,0-1.761.128-2.176.382-.416.255-.624.772-.624,1.553v10.081c.865.254,1.875.382,3.029.382,1.324,0,2.707-.213,4.149-.637l.254,2.087c-.611.238-1.256.407-1.935.51Z"/>
    <path class="st3" d="M96.602,516.627v15.909h-2.546v-6.873h-6.618v6.873h-2.545v-15.909h2.545v7.025h6.618v-7.025h2.546Z"/>
    <path class="st3" d="M103.729,530.424h7v2.112h-9.545v-15.909h9.469l-.306,2.112h-6.618v4.837h6.033v2.011h-6.033v4.837Z"/>
    <path class="st3" d="M121.344,516.627h3.513l3.538,11.913h.178l3.538-11.913h3.513l1.069,15.909h-2.52l-.814-12.55h-.153l-3.691,12.55h-2.062l-3.691-12.55h-.153l-.814,12.55h-2.52l1.069-15.909Z"/>
    <path class="st3" d="M148.658,528.973h-6.083l-1.044,3.563h-2.545l4.709-15.909h3.844l4.709,15.909h-2.545l-1.044-3.563ZM148.072,526.962l-2.342-7.993h-.229l-2.342,7.993h4.913Z"/>
    <path class="st3" d="M167.087,532.969l-.636,1.4-4.404-1.451v-.713l-1.451.713c-1.799,0-3.135-.217-4.009-.649-.875-.433-1.477-1.226-1.808-2.38-.331-1.153-.496-2.918-.496-5.295s.165-4.14.496-5.294.933-1.951,1.808-2.394c.874-.44,2.21-.661,4.009-.661,1.782,0,3.114.221,3.997.661.882.442,1.489,1.239,1.82,2.394.331,1.154.497,2.919.497,5.294,0,2.104-.136,3.695-.407,4.773-.271,1.078-.738,1.862-1.4,2.354l1.985,1.247ZM162.047,530.754c.797,0,1.349-.136,1.654-.407.306-.271.458-.755.458-1.45v-10.488h-5.04c-.781,0-1.324.137-1.629.407-.305.272-.458.756-.458,1.451v10.487h5.015Z"/>
    <path class="st3" d="M179.662,532.536l-2.647-5.626h-3.615v5.626h-2.545v-15.909h6.364c1.137,0,2.023.17,2.66.509.636.34,1.094.896,1.375,1.667.28.772.42,1.838.42,3.195,0,1.307-.166,2.329-.497,3.067-.331.738-.87,1.251-1.616,1.54l2.876,5.931h-2.774ZM173.4,524.899h3.844c.662,0,1.12-.076,1.375-.229.254-.153.382-.434.382-.841v-4.021c0-.407-.127-.688-.382-.84-.254-.153-.713-.229-1.375-.229h-3.844v6.16Z"/>
    <path class="st3" d="M193.382,528.973h-6.083l-1.044,3.563h-2.545l4.709-15.909h3.844l4.709,15.909h-2.545l-1.044-3.563ZM192.797,526.962l-2.342-7.993h-.229l-2.342,7.993h4.913Z"/>
    <path class="st3" d="M199.16,520.903l.509-2.291c-.391-.085-.662-.246-.814-.483-.153-.238-.229-.637-.229-1.196,0-.662.123-1.12.369-1.375.246-.255.691-.382,1.336-.382.594,0,1.01.127,1.248.382.237.255.356.713.356,1.375,0,.288-.047.594-.14.916s-.267.772-.522,1.349l-.967,2.062-1.146-.356Z"/>
    <path class="st3" d="M213.263,528.973h-6.083l-1.044,3.563h-2.545l4.709-15.909h3.844l4.709,15.909h-2.545l-1.044-3.563ZM212.677,526.962l-2.342-7.993h-.229l-2.342,7.993h4.913Z"/>
    <path class="st3" d="M231.234,516.627v15.909h-2.546v-6.873h-6.618v6.873h-2.545v-15.909h2.545v7.025h6.618v-7.025h2.546Z"/>
    <path class="st3" d="M244.725,532.536h-2.545v-15.909h8.655l-.28,2.112h-5.829v5.168h5.091v2.011h-5.091v6.618Z"/>
    <path class="st3" d="M255.646,532.485c-.849-.288-1.438-.793-1.769-1.515-.331-.721-.496-1.803-.496-3.245v-11.099h2.545v14.127h3.665c.95,0,1.663-.038,2.139-.114.475-.076.806-.208.993-.395.187-.187.279-.467.279-.84v-12.778h2.546v11.099c0,1.442-.166,2.524-.496,3.245-.331.722-.921,1.227-1.77,1.515s-2.121.433-3.818.433-2.97-.145-3.818-.433ZM256.104,514.412c-.17-.204-.254-.586-.254-1.146s.084-.945.254-1.158c.17-.212.526-.318,1.069-.318.526,0,.874.106,1.044.318.169.213.254.599.254,1.158s-.085.941-.254,1.146c-.17.204-.518.306-1.044.306-.543,0-.899-.102-1.069-.306ZM260.762,514.412c-.169-.204-.254-.586-.254-1.146s.085-.945.254-1.158c.17-.212.526-.318,1.069-.318.526,0,.874.106,1.044.318.169.213.255.599.255,1.158s-.086.941-.255,1.146c-.17.204-.518.306-1.044.306-.543,0-.899-.102-1.069-.306Z"/>
    <path class="st3" d="M278.683,532.536l-2.647-5.626h-3.614v5.626h-2.546v-15.909h6.363c1.137,0,2.024.17,2.66.509.637.34,1.095.896,1.375,1.667.28.772.42,1.838.42,3.195,0,1.307-.165,2.329-.496,3.067s-.87,1.251-1.616,1.54l2.876,5.931h-2.774ZM272.421,524.899h3.844c.661,0,1.119-.076,1.374-.229.255-.153.382-.434.382-.841v-4.021c0-.407-.127-.688-.382-.84-.255-.153-.713-.229-1.374-.229h-3.844v6.16Z"/>
    <path class="st3" d="M296.705,516.627c1.781,0,3.105.208,3.971.623.865.416,1.459,1.171,1.782,2.266.322,1.095.483,2.787.483,5.078,0,2.274-.161,3.959-.483,5.054-.323,1.094-.917,1.85-1.782,2.265-.865.416-2.189.624-3.971.624h-5.702v-15.909h5.702ZM293.549,530.424h4.658c.746,0,1.264-.136,1.553-.408.288-.271.433-.755.433-1.45v-7.968c0-.695-.145-1.18-.433-1.451-.289-.271-.807-.407-1.553-.407h-4.658v11.685Z"/>
    <path class="st3" d="M309.433,530.424h7v2.112h-9.546v-15.909h9.469l-.305,2.112h-6.618v4.837h6.032v2.011h-6.032v4.837Z"/>
    <path class="st3" d="M320.123,516.627h2.47l6.16,9.927c.254.442.424.751.509.93.085.178.136.395.152.649h.153v-11.506h2.545v15.909h-2.469l-6.16-9.928c-.255-.44-.425-.751-.509-.929-.085-.179-.137-.395-.153-.649h-.152v11.506h-2.546v-15.909Z"/>
    <path class="st3" d="M345.731,530.424h7v2.112h-9.546v-15.909h9.469l-.305,2.112h-6.618v4.837h6.032v2.011h-6.032v4.837Z"/>
    <path class="st3" d="M361.997,516.627c1.781,0,3.105.208,3.971.623.865.416,1.459,1.171,1.782,2.266.322,1.095.483,2.787.483,5.078,0,2.274-.161,3.959-.483,5.054-.323,1.094-.917,1.85-1.782,2.265-.865.416-2.189.624-3.971.624h-5.702v-15.909h5.702ZM358.841,530.424h4.658c.746,0,1.264-.136,1.553-.408.288-.271.433-.755.433-1.45v-7.968c0-.695-.145-1.18-.433-1.451-.289-.271-.807-.407-1.553-.407h-4.658v11.685Z"/>
    <path class="st3" d="M372.179,516.627h2.546v13.797h5.854v2.112h-8.4v-15.909Z"/>
    <path class="st3" d="M385.671,530.424h7v2.112h-9.546v-15.909h9.469l-.305,2.112h-6.618v4.837h6.032v2.011h-6.032v4.837Z"/>
    <path class="st3" d="M396.361,516.627h2.47l6.16,9.927c.254.442.424.751.509.93.085.178.136.395.152.649h.153v-11.506h2.545v15.909h-2.469l-6.16-9.928c-.255-.44-.425-.751-.509-.929-.085-.179-.137-.395-.153-.649h-.152v11.506h-2.546v-15.909Z"/>
    <path class="st3" d="M430.955,532.536h-2.825l-1.858-3.945c-.323-.662-.573-1.243-.751-1.744-.179-.5-.268-.996-.268-1.489h-3.283v7.179h-2.546v-15.909h2.546v6.745h3.283c0-.509.089-1.021.268-1.54.178-.518.428-1.082.751-1.692l1.73-3.513h2.826l-3.818,7.738,3.945,8.171Z"/>
    <path class="st3" d="M435.511,532.485c-.849-.288-1.438-.793-1.769-1.515-.331-.721-.497-1.803-.497-3.245v-11.099h2.546v14.127h3.665c.95,0,1.663-.038,2.139-.114.475-.076.806-.208.993-.395.187-.187.279-.467.279-.84v-12.778h2.546v11.099c0,1.442-.166,2.524-.496,3.245-.331.722-.921,1.227-1.77,1.515s-2.121.433-3.818.433-2.97-.145-3.818-.433Z"/>
    <path class="st3" d="M458.548,532.536l-2.647-5.626h-3.614v5.626h-2.546v-15.909h6.363c1.137,0,2.024.17,2.66.509.637.34,1.095.896,1.375,1.667.28.772.42,1.838.42,3.195,0,1.307-.165,2.329-.496,3.067s-.87,1.251-1.616,1.54l2.876,5.931h-2.774ZM452.286,524.899h3.844c.661,0,1.119-.076,1.374-.229.255-.153.382-.434.382-.841v-4.021c0-.407-.127-.688-.382-.84-.255-.153-.713-.229-1.374-.229h-3.844v6.16Z"/>
    <path class="st3" d="M472.269,528.973h-6.084l-1.043,3.563h-2.546l4.709-15.909h3.844l4.709,15.909h-2.545l-1.044-3.563ZM471.684,526.962l-2.343-7.993h-.229l-2.342,7.993h4.913Z"/>
    <path class="st3" d="M478.657,516.627h2.47l6.16,9.927c.254.442.424.751.509.93.085.178.136.395.152.649h.153v-11.506h2.545v15.909h-2.469l-6.16-9.928c-.255-.44-.425-.751-.509-.929-.085-.179-.137-.395-.153-.649h-.152v11.506h-2.546v-15.909Z"/>
  </g>
</svg>