<?xml version="1.0" encoding="UTF-8"?>
<svg xmlns="http://www.w3.org/2000/svg" version="1.1" viewBox="0 0 495.852 90.893">
  <!-- Generator: Adobe Illustrator 28.6.0, SVG Export Plug-In . SVG Version: 1.2.0 Build 709)  -->
  <g>
    <g id="Layer_1">
      <g>
        <path d="M29.155,24.978H10.617c-1.073,3.365-3.119,5.933-6.135,7.702l-4.482-2.567c2.088-.581,3.8-1.733,5.135-3.459,1.334-1.727,2.001-3.691,2.001-5.896v-.044h.043v-8.398c0-1.363.485-2.538,1.458-3.524.971-.986,2.154-1.479,3.546-1.479h1.74c3.568.059,6.643,1.306,9.226,3.742,2.582,2.437,4.032,5.425,4.351,8.964v.174c0,.059.007.16.022.305.014.146.021.247.021.305h1.61v4.178ZM11.357,20.8h10.749c.696,0,1.102-.275,1.218-.826-.319-2.35-1.364-4.337-3.133-5.962-1.77-1.624-3.844-2.465-6.222-2.523-1.741.029-2.611.957-2.611,2.784v6.527Z" fill="#0b526e"/>
        <path d="M37.771,24.978h-9.53v-4.178h6.31c.841,0,1.262-.405,1.262-1.218V7.267h4.178v15.491c0,.609-.218,1.132-.653,1.567-.435.435-.958.652-1.566.652ZM32.245,31.244c-.552,0-1.009-.182-1.371-.544-.363-.363-.544-.82-.544-1.371,0-.522.181-.965.544-1.327.362-.363.819-.544,1.371-.544.522,0,.964.181,1.327.544s.544.805.544,1.327c0,.551-.182,1.008-.544,1.371-.363.362-.805.544-1.327.544ZM38.38,29.329c0,.551-.189,1.008-.565,1.371-.377.362-.827.544-1.349.544s-.965-.182-1.327-.544-.544-.82-.544-1.371c0-.522.181-.965.544-1.327.362-.363.805-.544,1.327-.544s.972.181,1.349.544c.376.362.565.805.565,1.327Z" fill="#0b526e"/>
        <path d="M58.789,24.978h-3.307c-.812,0-1.582-.202-2.306-.609-.668,1.856-1.675,3.496-3.024,4.917s-2.923,2.509-4.721,3.264l-5.353-3.089v-.044c2.698,0,4.989-.95,6.875-2.851,1.885-1.899,2.828-4.184,2.828-6.854V7.224h4.178v10.922c.028,1.771.972,2.654,2.828,2.654h2.002v4.178Z" fill="#0b526e"/>
        <path d="M85.376,24.978h-27.458v-4.178h21.409v-.609c0-1.855-.929-2.784-2.785-2.784h-12.01v-4.178h.043c.203-3.655,1.639-6.752,4.308-9.29S74.729.131,78.414.131h.043v4.177h-.043c-2.523,0-4.714.856-6.571,2.567-1.856,1.713-2.887,3.83-3.089,6.354h9.748c1.392,0,2.574.493,3.546,1.479.972.986,1.458,2.161,1.458,3.524v2.567h1.871v4.178Z" fill="#0b526e"/>
        <path d="M93.122,24.978h-8.268v-4.178h5.091c.841,0,1.262-.405,1.262-1.218V0h4.134v22.758c0,.609-.217,1.132-.653,1.567-.435.435-.957.652-1.566.652Z" fill="#0b526e"/>
        <path d="M103.914,24.978h-4.134V.174h4.134v24.804Z" fill="#0b526e"/>
        <path d="M132.894,32.593h-2.219c-3.742-.029-6.948-1.349-9.617-3.96-2.669-2.611-4.062-5.772-4.177-9.486v-3.698c0-.639.217-1.176.652-1.61.436-.436.958-.653,1.567-.653h5.265v.044c1.305,0,2.335.349,3.089,1.044.754.696,1.175,1.393,1.262,2.089l.174,1.001h-6.571c-.841,0-1.262.421-1.262,1.262v.131c0,2.641.958,4.903,2.872,6.788,1.915,1.886,4.206,2.857,6.875,2.916h.131c1.856,0,2.785-.943,2.785-2.829V7.267h4.178v20.365c0,1.363-.494,2.531-1.479,3.503-.987.972-2.162,1.458-3.525,1.458ZM127.716,3.873c0,.522-.189.965-.565,1.327-.377.363-.827.544-1.349.544s-.972-.181-1.349-.544c-.377-.362-.565-.805-.565-1.327,0-.551.188-1.008.565-1.371.377-.362.827-.544,1.349-.544s.972.182,1.349.544c.376.363.565.82.565,1.371Z" fill="#0b526e"/>
        <path d="M149.169,2.089h-9.791V.218h9.791v1.871ZM146.515,24.978h-4.09V3.742h4.09v21.235Z" fill="#0b526e"/>
        <path d="M166.14,24.978h-3.307c-.812,0-1.582-.202-2.306-.609-.668,1.856-1.675,3.496-3.024,4.917s-2.923,2.509-4.721,3.264l-5.353-3.089v-.044c2.698,0,4.989-.95,6.875-2.851,1.885-1.899,2.828-4.184,2.828-6.854V7.224h4.178v10.922c.028,1.771.972,2.654,2.828,2.654h2.002v4.178Z" fill="#0b526e"/>
        <path d="M194.903,24.978h-29.633v-4.178h6.527c.029-.145.043-.348.043-.609v-.174c.319-3.539,1.777-6.527,4.374-8.964,2.596-2.437,5.679-3.684,9.247-3.742h1.74c1.363,0,2.531.486,3.503,1.458.972.972,1.458,2.153,1.458,3.546v8.485h2.741v4.178ZM188.028,19.538v-5.266c0-1.827-.871-2.755-2.611-2.784-2.408.059-4.497.899-6.266,2.523-1.77,1.625-2.8,3.612-3.089,5.962.087.551.493.826,1.218.826h9.486c.841,0,1.262-.42,1.262-1.262ZM181.892,4.308c-.551,0-1.008-.181-1.371-.544-.363-.362-.544-.819-.544-1.37,0-.522.181-.964.544-1.327s.819-.544,1.371-.544c.522,0,.964.182,1.327.544.362.363.544.805.544,1.327,0,.551-.182,1.008-.544,1.37s-.805.544-1.327.544ZM188.028,2.394c0,.551-.189,1.008-.566,1.37-.377.363-.827.544-1.349.544s-.965-.181-1.327-.544c-.363-.362-.544-.819-.544-1.37,0-.522.181-.964.544-1.327.362-.362.805-.544,1.327-.544s.972.182,1.349.544c.376.363.566.805.566,1.327Z" fill="#0b526e"/>
        <path d="M207.043,24.978h-12.663v-4.178h5.091c.841,0,1.262-.405,1.262-1.218V0h4.134v20.8h2.176v4.178Z" fill="#0b526e"/>
        <path d="M214.746,24.978h-8.268v-4.178h5.091c.841,0,1.262-.405,1.262-1.218V0h4.134v22.758c0,.609-.217,1.132-.653,1.567-.435.435-.957.652-1.566.652Z" fill="#0b526e"/>
        <path d="M254.605,24.978h-2.785c-.783,0-1.523-.188-2.219-.565-.435.377-.929.565-1.479.565h-15.839c-.609,0-1.131-.218-1.567-.652-.435-.436-.652-.958-.652-1.567v-2.784c.319-3.51,1.762-6.477,4.33-8.899,2.567-2.422,5.62-3.677,9.16-3.764h1.349c.638,0,1.276.116,1.915.348v-.435h3.568v10.748c0,1.886.942,2.828,2.829,2.828h1.392v4.178ZM246.12,20.104v-5.831c0-1.798-.856-2.741-2.567-2.828-2.379.087-4.446.936-6.201,2.546-1.755,1.61-2.792,3.59-3.111,5.939.116.581.522.87,1.218.87h9.486c.667,0,1.059-.231,1.175-.696ZM239.767,4.308c-.551,0-1.008-.181-1.371-.544-.363-.362-.544-.819-.544-1.37,0-.522.181-.964.544-1.327s.819-.544,1.371-.544c.522,0,.964.182,1.327.544.362.363.544.805.544,1.327,0,.551-.182,1.008-.544,1.37-.363.363-.805.544-1.327.544ZM245.902,2.394c0,.551-.189,1.008-.566,1.37-.377.363-.827.544-1.349.544s-.964-.181-1.327-.544c-.363-.362-.544-.819-.544-1.37,0-.522.181-.964.544-1.327.363-.362.805-.544,1.327-.544s.972.182,1.349.544c.377.363.566.805.566,1.327Z" fill="#0b526e"/>
        <path d="M268.748,24.978h-15.013v-4.178h6.31c.84,0,1.262-.405,1.262-1.218V7.267h4.178v13.533h3.264v4.178ZM258.783,31.244c-.553,0-1.01-.182-1.371-.544-.363-.363-.545-.82-.545-1.371,0-.522.182-.965.545-1.327.361-.363.818-.544,1.371-.544.521,0,.963.181,1.326.544.363.362.545.805.545,1.327,0,.551-.182,1.008-.545,1.371-.363.362-.805.544-1.326.544ZM264.918,29.329c0,.551-.189,1.008-.566,1.371-.377.362-.826.544-1.348.544s-.965-.182-1.328-.544c-.363-.363-.543-.82-.543-1.371,0-.522.18-.965.543-1.327.363-.363.805-.544,1.328-.544s.971.181,1.348.544c.377.362.566.805.566,1.327Z" fill="#0b526e"/>
        <path d="M277.363,24.978h-9.529v-4.178h6.31c.841,0,1.262-.405,1.262-1.218V7.267h4.178v15.491c0,.609-.218,1.132-.653,1.567s-.957.652-1.566.652ZM278.713,3.742c-.349.378-.783.565-1.306.565s-.973-.188-1.35-.565c-.377-.377-.565-.826-.565-1.349s.188-.972.565-1.35c.377-.376.827-.565,1.35-.565s.964.189,1.327.565c.362.378.544.827.544,1.35s-.189.972-.565,1.349Z" fill="#0b526e"/>
        <path d="M292.637,24.978h-6.396c-.639,0-1.175-.218-1.61-.652-.435-.436-.652-.958-.652-1.567V.087h4.177v19.451c0,.842.421,1.262,1.263,1.262h3.22v4.178Z" fill="#0b526e"/>
        <path d="M320.922,24.978h-1.523c-.667,0-1.363-.145-2.088-.436-.116.755-.334,1.494-.653,2.22h-.043c-.204.464-.537.819-1.001,1.066-.465.246-.958.312-1.479.195l-13.011-2.785v-1.305c-.436.696-1.074,1.044-1.915,1.044h-7.137v-4.178h3.917c.812,0,1.232-.362,1.262-1.088v-7.397c0-1.363.493-2.538,1.479-3.524.985-.986,2.16-1.479,3.524-1.479h1.74c3.539.029,6.607,1.233,9.204,3.611,2.596,2.38,4.083,5.31,4.46,8.79.377.726,1.189,1.088,2.437,1.088h.827v4.178ZM301.428,21.062l10.443,2.219c.812.174,1.305-.145,1.479-.957l.218-1.132c0-2.639-.922-4.902-2.764-6.788-1.843-1.886-4.084-2.856-6.723-2.915-1.771.029-2.654.957-2.654,2.784v6.789Z" fill="#0b526e"/>
        <path d="M328.624,24.978h-8.268v-4.178h5.091c.842,0,1.262-.405,1.262-1.218V0h4.135v22.758c0,.609-.218,1.132-.653,1.567s-.957.652-1.566.652Z" fill="#0b526e"/>
        <path d="M346.813,24.978h-10.574l-.957-4.178h3.307c-1.422-2.146-2.176-4.539-2.263-7.18V5.004h4.178v8.181c0,3.104,1.203,5.629,3.611,7.572.522-.146.783-.551.783-1.219V.218h4.134v22.54c0,.609-.217,1.132-.652,1.567s-.957.652-1.566.652ZM339.416,4.352h-3.046v-.652h2.785c.405,0,.608-.175.608-.522v-.044c0-.318-.203-.479-.608-.479h-1.784c-.291,0-.537-.094-.74-.282s-.305-.414-.305-.675v-.392c0-.262.102-.485.305-.675.203-.188.449-.282.74-.282h3.046v.608h-2.829c-.377,0-.565.175-.565.522s.188.522.565.522h1.828c.29,0,.536.095.739.282.203.189.305.429.305.719v.392c0,.261-.102.485-.305.674-.203.189-.449.283-.739.283Z" fill="#0b526e"/>
        <path d="M357.604,24.978h-4.134V.174h4.134v24.804Z" fill="#0b526e"/>
        <path d="M387.586,24.978h-14.795c-.609,0-1.131-.218-1.566-.652-.435-.436-.652-.958-.652-1.567v-10.53c0-1.363.493-2.53,1.479-3.503.985-.972,2.16-1.458,3.524-1.458h6.223c1.77,0,3.061.668,3.873,2.002v-2.089h4.134v15.578c0,.609-.218,1.132-.652,1.567-.436.435-.958.652-1.567.652ZM385.672,19.538v-8.137h-8.094c-1.887,0-2.829.942-2.829,2.828v5.309c0,.842.421,1.262,1.263,1.262h8.398c.841,0,1.262-.42,1.262-1.262ZM378.144,4.308c-.552,0-1.008-.181-1.371-.544s-.544-.819-.544-1.37c0-.522.182-.964.544-1.327.363-.362.819-.544,1.371-.544.522,0,.964.182,1.327.544.362.363.544.805.544,1.327,0,.551-.182,1.008-.544,1.37s-.805.544-1.327.544ZM384.279,2.394c0,.551-.189,1.008-.565,1.37-.378.363-.827.544-1.35.544s-.965-.181-1.327-.544c-.363-.362-.544-.819-.544-1.37,0-.522.181-.964.544-1.327s.806-.544,1.327-.544.972.182,1.35.544c.376.363.565.805.565,1.327Z" fill="#0b526e"/>
        <path d="M397.29,4.134h-3.046v-.609h2.785c.406,0,.609-.188.609-.565v-.043c0-.319-.203-.479-.609-.479h-1.784c-.29,0-.537-.087-.739-.261-.203-.174-.305-.406-.305-.696v-.392c0-.261.102-.485.305-.675.202-.188.449-.282.739-.282h3.046v.652h-2.828c-.377,0-.565.174-.565.522s.188.522.565.522h1.827c.29,0,.537.087.74.261.202.174.305.421.305.739v.349c0,.29-.103.522-.305.696-.203.174-.45.261-.74.261ZM398.335,24.978h-4.134V4.743h4.134v20.234Z" fill="#0b526e"/>
        <path d="M417.524,24.978h-3.307c-.812,0-1.582-.202-2.307-.609-.667,1.856-1.675,3.496-3.024,4.917-1.349,1.421-2.923,2.509-4.721,3.264l-5.353-3.089v-.044c2.698,0,4.989-.95,6.875-2.851,1.886-1.899,2.829-4.184,2.829-6.854V7.224h4.177v10.922c.029,1.771.972,2.654,2.829,2.654h2.001v4.178Z" fill="#0b526e"/>
        <path d="M446.288,24.978h-29.634v-4.178h6.527c.028-.145.043-.348.043-.609v-.174c.319-3.539,1.777-6.527,4.373-8.964,2.597-2.437,5.679-3.684,9.247-3.742h1.741c1.363,0,2.53.486,3.503,1.458.972.972,1.457,2.153,1.457,3.546v8.485h2.742v4.178ZM439.412,19.538v-5.266c0-1.827-.87-2.755-2.61-2.784-2.408.059-4.497.899-6.267,2.523-1.77,1.625-2.8,3.612-3.09,5.962.088.551.493.826,1.219.826h9.486c.841,0,1.262-.42,1.262-1.262ZM433.276,4.308c-.551,0-1.008-.181-1.37-.544-.363-.362-.544-.819-.544-1.37,0-.522.181-.964.544-1.327s.819-.544,1.37-.544c.522,0,.965.182,1.327.544s.544.805.544,1.327c0,.551-.181,1.008-.544,1.37-.362.363-.805.544-1.327.544ZM439.412,2.394c0,.551-.188,1.008-.565,1.37-.377.363-.827.544-1.349.544s-.965-.181-1.327-.544c-.363-.362-.544-.819-.544-1.37,0-.522.181-.964.544-1.327s.805-.544,1.327-.544.972.182,1.349.544c.377.363.565.805.565,1.327Z" fill="#0b526e"/>
        <path d="M474.572,24.978h-1.523c-.667,0-1.363-.145-2.088-.436-.116.755-.334,1.494-.653,2.22h-.043c-.204.464-.537.819-1.001,1.066-.465.246-.958.312-1.479.195l-13.011-2.785v-1.305c-.436.696-1.074,1.044-1.915,1.044h-7.137v-4.178h3.917c.812,0,1.232-.362,1.262-1.088v-7.397c0-1.363.493-2.538,1.479-3.524.985-.986,2.16-1.479,3.524-1.479h1.74c3.539.029,6.607,1.233,9.204,3.611,2.596,2.38,4.083,5.31,4.46,8.79.377.726,1.189,1.088,2.437,1.088h.827v4.178ZM455.078,21.062l10.443,2.219c.812.174,1.305-.145,1.479-.957l.218-1.132c0-2.639-.922-4.902-2.764-6.788-1.843-1.886-4.084-2.856-6.723-2.915-1.771.029-2.654.957-2.654,2.784v6.789Z" fill="#0b526e"/>
        <path d="M482.274,24.978h-8.268v-4.178h5.091c.842,0,1.262-.405,1.262-1.218V0h4.135v22.758c0,.609-.218,1.132-.653,1.567s-.957.652-1.566.652Z" fill="#0b526e"/>
        <path d="M493.066,24.978h-4.134V.174h4.134v24.804Z" fill="#0b526e"/>
      </g>
      <g>
        <path d="M13.23,52.536c3.852,0,6.714.45,8.585,1.349,1.871.899,3.155,2.531,3.852,4.897.696,2.366,1.045,6.026,1.045,10.979,0,4.917-.349,8.558-1.045,10.924-.697,2.366-1.981,3.999-3.852,4.897-1.871.899-4.733,1.349-8.585,1.349H.903v-34.395h12.327ZM6.407,82.363h10.07c1.614,0,2.733-.293,3.357-.881.624-.586.936-1.632.936-3.137v-17.225c0-1.504-.312-2.55-.936-3.137-.624-.587-1.743-.881-3.357-.881H6.407v25.26Z" fill="#d7ab6a"/>
        <path d="M40.746,82.363h15.133v4.567h-20.637v-34.395h20.472l-.66,4.567h-14.308v10.456h13.042v4.348h-13.042v10.456Z" fill="#d7ab6a"/>
        <path d="M67.931,86.82c-1.835-.623-3.109-1.714-3.825-3.274-.715-1.559-1.073-3.897-1.073-7.016v-23.994h5.503v30.542h7.924c2.054,0,3.595-.082,4.623-.247,1.027-.165,1.742-.449,2.146-.854.403-.403.605-1.008.605-1.815v-27.626h5.503v23.994c0,3.118-.358,5.457-1.073,7.016-.715,1.561-1.991,2.651-3.825,3.274-1.835.624-4.586.936-8.255.936s-6.42-.312-8.254-.936Z" fill="#d7ab6a"/>
        <path d="M109.149,86.931h-5.503v-29.827h-9.08v-4.567h23.663v4.567h-9.08v29.827Z" fill="#d7ab6a"/>
        <path d="M127.558,82.831c1.962.239,3.843.357,5.641.357,1.871,0,3.943-.11,6.218-.33v-10.235l-5.228-.386c-3.375-.256-5.907-.688-7.594-1.293-1.688-.605-2.871-1.56-3.549-2.861-.679-1.303-1.018-3.183-1.018-5.642,0-2.641.339-4.741,1.018-6.301.678-1.559,1.779-2.687,3.302-3.384,1.522-.697,3.568-1.046,6.136-1.046,3.705,0,7.41.349,11.116,1.046l-.715,4.347c-2.936-.55-6.292-.825-10.071-.825-1.871,0-3.467.092-4.788.275v10.346l6.108.385c2.935.185,5.209.615,6.824,1.294,1.614.679,2.76,1.725,3.439,3.137.678,1.412,1.018,3.366,1.018,5.86,0,2.568-.404,4.587-1.21,6.054-.808,1.468-2.128,2.522-3.962,3.164-1.835.642-4.348.963-7.54.963-3.889,0-7.594-.44-11.116-1.32l.826-4.513c1.467.367,3.182.67,5.146.908Z" fill="#d7ab6a"/>
        <path d="M168.968,87.426c-1.468.221-3.192.33-5.173.33-3.486,0-6.108-.522-7.87-1.568-1.761-1.045-2.991-2.824-3.687-5.338-.697-2.513-1.045-6.209-1.045-11.089,0-4.916.357-8.64,1.073-11.171.716-2.531,2-4.311,3.853-5.338,1.852-1.027,4.595-1.541,8.227-1.541,1.247,0,2.669.11,4.265.33,1.596.22,2.871.495,3.825.825l-.715,4.513c-1.285-.293-2.771-.531-4.458-.715-1.688-.184-3.063-.275-4.127-.275-2.238,0-3.807.275-4.705.825-.899.551-1.348,1.67-1.348,3.357v21.792c1.871.55,4.053.825,6.549.825,2.861,0,5.851-.458,8.97-1.376l.55,4.513c-1.32.515-2.715.881-4.182,1.101Z" fill="#d7ab6a"/>
        <path d="M204.793,52.536v34.395h-5.503v-14.858h-14.308v14.858h-5.503v-34.395h5.503v15.188h14.308v-15.188h5.503Z" fill="#d7ab6a"/>
        <path d="M220.202,82.363h15.133v4.567h-20.637v-34.395h20.472l-.66,4.567h-14.308v10.456h13.042v4.348h-13.042v10.456Z" fill="#d7ab6a"/>
        <path d="M258.283,52.536h7.595l7.649,25.755h.385l7.649-25.755h7.594l2.312,34.395h-5.448l-1.761-27.13h-.33l-7.979,27.13h-4.457l-7.979-27.13h-.331l-1.761,27.13h-5.448l2.312-34.395Z" fill="#d7ab6a"/>
        <path d="M317.332,79.227h-13.152l-2.257,7.704h-5.503l10.181-34.395h8.31l10.182,34.395h-5.504l-2.256-7.704ZM316.066,74.879l-5.063-17.279h-.495l-5.062,17.279h10.621Z" fill="#d7ab6a"/>
        <path d="M357.175,87.866l-1.376,3.026-9.521-3.137v-1.541l-3.137,1.541c-3.889,0-6.778-.468-8.667-1.403-1.891-.936-3.192-2.649-3.907-5.146-.716-2.494-1.073-6.31-1.073-11.446s.357-8.951,1.073-11.446c.715-2.494,2.017-4.219,3.907-5.173,1.889-.953,4.778-1.431,8.667-1.431,3.853,0,6.732.478,8.64,1.431,1.907.954,3.22,2.679,3.935,5.173.716,2.495,1.073,6.311,1.073,11.446,0,4.55-.294,7.989-.88,10.318-.588,2.33-1.596,4.027-3.027,5.091l4.293,2.696ZM346.278,83.078c1.725,0,2.917-.293,3.577-.88s.99-1.632.99-3.137v-22.673h-10.896c-1.688,0-2.862.294-3.522.88-.66.588-.99,1.633-.99,3.137v22.673h10.841Z" fill="#d7ab6a"/>
        <path d="M384.359,86.931l-5.723-12.162h-7.814v12.162h-5.503v-34.395h13.758c2.457,0,4.375.367,5.75,1.101,1.376.734,2.366,1.936,2.972,3.604.605,1.67.908,3.972.908,6.906,0,2.826-.357,5.036-1.073,6.632-.715,1.596-1.88,2.706-3.494,3.329l6.219,12.822h-5.999ZM370.822,70.421h8.31c1.431,0,2.421-.165,2.972-.495.55-.33.825-.936.825-1.815v-8.695c0-.881-.275-1.485-.825-1.815-.551-.331-1.541-.496-2.972-.496h-8.31v13.317Z" fill="#d7ab6a"/>
        <path d="M414.021,79.227h-13.152l-2.257,7.704h-5.503l10.181-34.395h8.31l10.182,34.395h-5.504l-2.256-7.704ZM412.756,74.879l-5.063-17.279h-.495l-5.062,17.279h10.621Z" fill="#d7ab6a"/>
        <path d="M426.514,61.781l1.101-4.952c-.845-.184-1.431-.532-1.761-1.046s-.495-1.376-.495-2.587c0-1.431.266-2.421.798-2.972.531-.55,1.494-.825,2.889-.825,1.284,0,2.183.275,2.696.825.514.551.771,1.541.771,2.972,0,.625-.102,1.285-.303,1.981-.202.697-.577,1.67-1.128,2.917l-2.091,4.457-2.477-.771Z" fill="#d7ab6a"/>
        <path d="M457.001,79.227h-13.152l-2.257,7.704h-5.503l10.181-34.395h8.31l10.182,34.395h-5.504l-2.256-7.704ZM455.735,74.879l-5.063-17.279h-.495l-5.062,17.279h10.621Z" fill="#d7ab6a"/>
        <path d="M495.852,52.536v34.395h-5.503v-14.858h-14.308v14.858h-5.503v-34.395h5.503v15.188h14.308v-15.188h5.503Z" fill="#d7ab6a"/>
      </g>
    </g>
  </g>
</svg>