<?xml version="1.0" encoding="UTF-8"?>
<svg xmlns="http://www.w3.org/2000/svg" version="1.1" viewBox="0 0 367.792 439.801">
  <!-- Generator: Adobe Illustrator 28.6.0, SVG Export Plug-In . SVG Version: 1.2.0 Build 709)  -->
  <g>
    <g id="Layer_1">
      <path d="M175.503,381.14c-59.141-31.948-143.203-10.969-162.43,3.462l24.691-59.308,32.303-8.342-18.497,41.478c28.257-8.925,81.517-9.447,123.934,22.71Z" fill="#0b526e" fill-rule="evenodd"/>
      <path d="M188.267,439.801c-1.442-1.18-2.901-2.338-4.371-3.474-1.47,1.136-2.929,2.294-4.371,3.474-50.135-41.042-117.077-55.18-179.525-37.917,92.155-56.953,183.849,1.757,183.896,1.726,1.177.76,89.66-59.965,183.896-1.726-62.448-17.263-129.39-3.125-179.525,37.917h0Z" fill="#d7ab6a" fill-rule="evenodd"/>
      <g>
        <path d="M132.902,57.803c3.593-5.897,8.333-10.895,13.608-15.321,3.314-2.782,6.814-5.315,10.372-7.775,2.73-1.887,5.509-3.716,8.182-5.683.888-.654,2.547-1.818,3.315-2.698L183.896,0l15.517,26.327c.768.88,2.427,2.044,3.315,2.698,2.673,1.967,5.452,3.796,8.182,5.683,3.557,2.459,7.057,4.993,10.372,7.775,5.274,4.426,10.015,9.424,13.608,15.321,6.693-1.624,13.616-1.81,20.456-1.212,4.31.377,8.576,1.06,12.83,1.836,3.265.596,6.523,1.268,9.804,1.767,1.09.166,3.087.516,4.252.437l29.589-7.644-7.644,29.589c-.079,1.166.271,3.162.437,4.252.499,3.281,1.171,6.539,1.767,9.804.776,4.254,1.459,8.52,1.836,12.83.598,6.84.412,13.763-1.212,20.456,5.897,3.593,10.895,8.333,15.321,13.608,2.781,3.314,5.315,6.814,7.774,10.371,1.887,2.73,3.716,5.509,5.683,8.182.654.888,1.818,2.547,2.698,3.315l26.327,15.517-26.327,15.517c-.88.768-2.044,2.427-2.698,3.315-1.967,2.673-3.796,5.452-5.683,8.182-2.459,3.557-4.993,7.057-7.774,10.371-4.426,5.274-9.424,10.015-15.321,13.608,1.624,6.693,1.81,13.616,1.212,20.456-.377,4.31-1.06,8.576-1.836,12.83-.596,3.265-1.268,6.523-1.767,9.804-.166,1.09-.516,3.087-.437,4.252l7.644,29.589-29.589-7.644c-1.166-.079-3.162.271-4.252.437-3.281.499-6.539,1.171-9.804,1.767-4.254.777-8.52,1.459-12.83,1.836-6.84.598-13.763.413-20.456-1.212-3.593,5.897-8.333,10.895-13.608,15.321-3.314,2.781-6.814,5.316-10.371,7.774-2.73,1.887-5.509,3.715-8.182,5.683-.888.654-2.547,1.818-3.315,2.698l-15.517,26.327-15.517-26.327c-.768-.88-2.427-2.044-3.315-2.698-2.673-1.967-5.452-3.796-8.182-5.683-3.557-2.459-7.057-4.993-10.371-7.774-5.274-4.426-10.015-9.424-13.608-15.321-6.693,1.624-13.616,1.81-20.456,1.212-4.31-.377-8.576-1.06-12.83-1.836-3.265-.596-6.523-1.268-9.804-1.767-1.09-.166-3.087-.515-4.252-.437l-29.589,7.644,7.644-29.589c.079-1.166-.271-3.162-.437-4.252-.499-3.281-1.171-6.539-1.767-9.804-.777-4.254-1.459-8.52-1.836-12.83-.598-6.84-.412-13.763,1.212-20.456-5.897-3.593-10.895-8.333-15.321-13.608-2.781-3.314-5.316-6.814-7.774-10.371-1.887-2.73-3.715-5.509-5.683-8.182-.654-.888-1.818-2.547-2.698-3.315l-26.327-15.517,26.327-15.517c.88-.768,2.044-2.427,2.698-3.315,1.967-2.673,3.796-5.452,5.683-8.182,2.459-3.557,4.993-7.057,7.774-10.371,4.426-5.274,9.424-10.015,15.321-13.608-1.624-6.693-1.81-13.616-1.212-20.456.377-4.31,1.06-8.576,1.836-12.83.596-3.265,1.268-6.523,1.767-9.804.166-1.09.516-3.087.437-4.252l-7.644-29.589,29.589,7.644c1.166.079,3.162-.271,4.252-.437,3.281-.499,6.539-1.171,9.804-1.767,4.254-.777,8.52-1.459,12.83-1.836,6.84-.598,13.763-.413,20.456,1.212h0ZM139.084,72.725c.771-2.86,1.965-5.706,3.643-8.521,2.937-4.924,6.946-9.078,11.316-12.746,3.034-2.546,6.246-4.861,9.502-7.111,2.826-1.953,5.697-3.848,8.464-5.884,2.036-1.499,5.015-3.726,6.322-5.943l5.565-9.441,5.565,9.441c1.307,2.217,4.286,4.444,6.322,5.943,2.767,2.036,5.639,3.931,8.464,5.884,3.256,2.251,6.468,4.565,9.502,7.111,4.37,3.667,8.38,7.822,11.316,12.746,1.679,2.815,2.872,5.661,3.643,8.521,2.568-1.477,5.424-2.645,8.601-3.449,5.55-1.403,11.339-1.507,17.015-1.011,3.945.345,7.853.98,11.747,1.69,3.379.617,6.749,1.308,10.146,1.825,2.5.38,6.181.912,8.673.268l10.611-2.741-2.741,10.611c-.644,2.492-.112,6.173.268,8.673.516,3.397,1.208,6.767,1.825,10.146.711,3.894,1.345,7.802,1.69,11.747.496,5.676.392,11.465-1.011,17.015-.803,3.177-1.972,6.034-3.449,8.601,2.86.771,5.706,1.965,8.521,3.643,4.924,2.937,9.078,6.946,12.746,11.316,2.546,3.034,4.861,6.246,7.111,9.502,1.953,2.826,3.848,5.697,5.884,8.464,1.499,2.036,3.726,5.015,5.943,6.322l9.441,5.565-9.441,5.565c-2.217,1.307-4.444,4.286-5.943,6.322-2.036,2.767-3.931,5.639-5.884,8.464-2.251,3.256-4.565,6.468-7.111,9.502-3.667,4.37-7.822,8.38-12.746,11.316-2.815,1.679-5.661,2.872-8.521,3.643,1.477,2.568,2.646,5.424,3.449,8.601,1.403,5.55,1.507,11.339,1.011,17.015-.345,3.945-.98,7.853-1.69,11.747-.617,3.379-1.308,6.749-1.825,10.146-.38,2.5-.912,6.181-.268,8.673l2.741,10.611-10.611-2.741c-2.492-.644-6.173-.112-8.673.268-3.397.516-6.767,1.208-10.146,1.824-3.894.711-7.802,1.345-11.747,1.69-5.676.496-11.465.392-17.015-1.011-3.177-.803-6.034-1.972-8.601-3.449-.771,2.86-1.965,5.706-3.643,8.521-2.937,4.924-6.946,9.078-11.316,12.746-3.034,2.546-6.246,4.861-9.502,7.111-2.826,1.953-5.697,3.848-8.464,5.884-2.036,1.499-5.015,3.726-6.322,5.943l-5.565,9.441-5.565-9.441c-1.307-2.217-4.286-4.444-6.322-5.943-2.767-2.036-5.639-3.931-8.464-5.884-3.256-2.251-6.468-4.565-9.502-7.111-4.37-3.667-8.38-7.822-11.316-12.746-1.679-2.815-2.872-5.661-3.643-8.521-2.568,1.477-5.424,2.645-8.601,3.449-5.55,1.403-11.339,1.507-17.015,1.011-3.945-.345-7.853-.98-11.747-1.69-3.379-.617-6.749-1.308-10.146-1.824-2.5-.38-6.181-.912-8.673-.268l-10.611,2.741,2.741-10.611c.644-2.492.112-6.173-.268-8.673-.516-3.397-1.208-6.767-1.824-10.146-.711-3.894-1.345-7.802-1.69-11.747-.496-5.676-.392-11.465,1.011-17.015.803-3.177,1.972-6.034,3.449-8.601-2.86-.771-5.706-1.965-8.521-3.643-4.924-2.937-9.078-6.946-12.746-11.316-2.546-3.034-4.861-6.246-7.111-9.502-1.953-2.826-3.848-5.697-5.884-8.464-1.499-2.036-3.726-5.015-5.943-6.322l-9.441-5.565,9.441-5.565c2.217-1.307,4.444-4.286,5.943-6.322,2.036-2.767,3.931-5.639,5.884-8.464,2.251-3.256,4.565-6.468,7.111-9.502,3.667-4.37,7.822-8.38,12.746-11.316,2.815-1.679,5.661-2.872,8.521-3.643-1.477-2.568-2.645-5.424-3.449-8.601-1.403-5.55-1.507-11.339-1.011-17.015.345-3.945.98-7.853,1.69-11.747.617-3.379,1.308-6.749,1.824-10.146.38-2.5.912-6.181.268-8.673l-2.741-10.611,10.611,2.741c2.492.644,6.173.112,8.673-.268,3.397-.517,6.767-1.208,10.146-1.825,3.894-.711,7.802-1.345,11.747-1.69,5.676-.496,11.465-.392,17.015,1.011,3.177.803,6.034,1.972,8.601,3.449h0ZM127.877,157.708v16.466l-16.466-9.508c-4.69-2.708-10.735-5.509-15.913-2.421-2.28,1.36-4.307,3.481-6.002,5.501-3.457,4.119-6.319,8.784-9.462,13.166,3.143,4.382,6.005,9.046,9.462,13.166,1.696,2.02,3.723,4.142,6.002,5.501,5.178,3.088,11.223.287,15.913-2.421l16.466-9.508v16.466l11.642,11.643-18.365,4.92c-5.232,1.402-11.487,3.696-12.965,9.541-.651,2.575-.584,5.505-.354,8.134.468,5.357,1.743,10.679,2.619,16,5.321.876,10.643,2.151,16,2.619,2.63.23,5.559.297,8.134-.354,5.845-1.478,8.139-7.733,9.541-12.965l4.92-18.365,11.643,11.642h16.466l-9.508,16.466c-2.708,4.69-5.509,10.735-2.421,15.913,1.36,2.28,3.481,4.307,5.501,6.002,4.12,3.457,8.784,6.319,13.166,9.462,4.382-3.143,9.046-6.005,13.166-9.462,2.02-1.696,4.141-3.723,5.501-6.002,3.088-5.178.287-11.223-2.421-15.913l-9.508-16.466h16.466l11.643-11.642,4.92,18.365c1.402,5.232,3.695,11.487,9.541,12.965,2.575.651,5.505.584,8.134.354,5.357-.468,10.679-1.743,16-2.619.876-5.321,2.151-10.643,2.619-16,.23-2.63.297-5.559-.355-8.134-1.478-5.845-7.733-8.139-12.965-9.541l-18.365-4.92,11.642-11.643v-16.466l16.466,9.508c4.69,2.708,10.735,5.509,15.913,2.421,2.28-1.36,4.307-3.481,6.002-5.501,3.457-4.119,6.319-8.784,9.462-13.166-3.143-4.382-6.005-9.046-9.462-13.166-1.696-2.02-3.723-4.141-6.002-5.501-5.178-3.088-11.223-.287-15.913,2.421l-16.466,9.508v-16.466l-11.642-11.643,18.365-4.92c5.232-1.402,11.487-3.696,12.965-9.541.651-2.575.584-5.505.355-8.134-.468-5.357-1.743-10.679-2.619-16-5.321-.876-10.643-2.151-16-2.619-2.63-.23-5.559-.297-8.134.355-5.845,1.478-8.139,7.733-9.541,12.965l-4.92,18.365-11.643-11.642h-16.466l9.508-16.466c2.708-4.69,5.509-10.735,2.421-15.913-1.36-2.28-3.481-4.307-5.501-6.002-4.119-3.457-8.784-6.319-13.166-9.462-4.382,3.143-9.046,6.005-13.166,9.462-2.02,1.696-4.141,3.723-5.501,6.002-3.088,5.178-.287,11.223,2.421,15.913l9.508,16.466h-16.466l-11.643,11.642-4.92-18.365c-1.402-5.232-3.696-11.487-9.541-12.965-2.575-.651-5.505-.584-8.134-.355-5.357.468-10.679,1.743-16,2.619-.876,5.321-2.151,10.643-2.619,16-.23,2.63-.297,5.559.354,8.134,1.478,5.845,7.733,8.139,12.965,9.541l18.365,4.92-11.642,11.643h0ZM94.253,180.912c1.344,1.943,2.725,3.851,4.22,5.632.602.718,1.611,1.886,2.503,2.599,1.348-.318,3.717-1.638,4.576-2.134l10.56-6.098-10.56-6.098c-.859-.496-3.227-1.816-4.576-2.134-.892.713-1.901,1.881-2.503,2.599-1.495,1.781-2.876,3.69-4.22,5.632h0ZM139.596,167.351v31.911l12.975,12.976,12.976,12.975h36.7l12.975-12.975,12.975-12.976v-36.7l-12.975-12.975-12.975-12.975h-36.7l-12.976,12.975-12.975,12.975v4.789h0ZM135.965,228.843l-11.778,3.155c-.958.257-3.567.999-4.745,1.727-.127,1.135-.014,2.673.068,3.608.202,2.316.575,4.643.999,6.966,2.324.424,4.65.797,6.966.999.935.082,2.473.194,3.608.068.728-1.178,1.47-3.787,1.727-4.745l3.155-11.778h0ZM183.896,248.697l-6.098,10.56c-.496.859-1.815,3.227-2.134,4.576.713.892,1.881,1.901,2.599,2.503,1.781,1.495,3.69,2.876,5.633,4.22,1.943-1.344,3.851-2.725,5.632-4.22.718-.602,1.886-1.611,2.599-2.503-.318-1.348-1.638-3.717-2.134-4.576l-6.098-10.56h0ZM231.827,228.843l3.155,11.778c.257.958.999,3.567,1.727,4.745,1.135.127,2.673.014,3.608-.068,2.316-.202,4.643-.575,6.967-.999.424-2.324.796-4.65.999-6.966.082-.935.195-2.473.068-3.608-1.178-.728-3.787-1.47-4.745-1.727l-11.778-3.155h0ZM251.681,180.912l10.56,6.098c.859.496,3.227,1.815,4.576,2.134.892-.713,1.901-1.881,2.503-2.599,1.495-1.781,2.876-3.69,4.22-5.632-1.344-1.943-2.725-3.852-4.22-5.632-.603-.718-1.611-1.886-2.503-2.599-1.348.318-3.717,1.638-4.576,2.134l-10.56,6.098h0ZM231.827,132.981l11.778-3.155c.958-.257,3.567-.999,4.745-1.727.127-1.135.014-2.673-.068-3.608-.202-2.316-.575-4.643-.999-6.967-2.324-.424-4.65-.796-6.967-.999-.935-.082-2.473-.195-3.608-.068-.728,1.178-1.47,3.787-1.727,4.745l-3.155,11.778h0ZM183.896,113.127l6.098-10.56c.496-.859,1.815-3.227,2.134-4.576-.713-.892-1.881-1.901-2.599-2.503-1.781-1.495-3.69-2.876-5.632-4.22-1.943,1.344-3.851,2.725-5.633,4.22-.718.603-1.886,1.611-2.599,2.503.318,1.348,1.638,3.717,2.134,4.576l6.098,10.56h0ZM135.965,132.981l-3.155-11.778c-.257-.958-.999-3.567-1.727-4.745-1.135-.127-2.673-.014-3.608.068-2.316.203-4.643.575-6.966.999-.424,2.324-.797,4.65-.999,6.967-.082.935-.195,2.473-.068,3.608,1.178.728,3.787,1.47,4.745,1.727l11.778,3.155h0Z" fill="#d7ab6a" fill-rule="evenodd"/>
        <path d="M95.342,144.232c-1.648-2.436-2.923-5.23-3.733-8.435-1.139-4.506-1.214-9.209-.811-13.816.285-3.266.812-6.501,1.4-9.724.519-2.847,1.101-5.685,1.536-8.546.354-2.326.795-5.498.197-7.813l-1.724-6.675,6.675,1.724c2.315.598,5.487.157,7.813-.197,2.861-.435,5.699-1.017,8.546-1.537,3.223-.588,6.459-1.115,9.724-1.4,4.608-.403,9.31-.328,13.816.811,3.204.81,5.998,2.085,8.435,3.733.557-2.888,1.631-5.766,3.324-8.604,2.382-3.995,5.651-7.368,9.196-10.343,2.511-2.107,5.171-4.023,7.866-5.886,2.38-1.646,4.798-3.241,7.129-4.957,1.895-1.395,4.45-3.325,5.664-5.385l3.5-5.939,3.5,5.939c1.214,2.06,3.769,3.991,5.664,5.385,2.331,1.715,4.749,3.311,7.129,4.957,2.695,1.863,5.355,3.778,7.866,5.886,3.545,2.975,6.813,6.349,9.196,10.343,1.693,2.839,2.767,5.716,3.324,8.604,2.436-1.648,5.23-2.923,8.435-3.733,4.506-1.139,9.209-1.214,13.816-.811,3.265.285,6.501.812,9.724,1.4,2.847.52,5.685,1.101,8.546,1.537,2.327.354,5.498.795,7.813.197l6.675-1.724-1.724,6.675c-.598,2.315-.157,5.487.197,7.813.435,2.861,1.017,5.699,1.536,8.546.588,3.223,1.115,6.459,1.4,9.724.403,4.608.328,9.31-.811,13.816-.81,3.204-2.085,5.998-3.733,8.435,2.888.557,5.766,1.631,8.604,3.324,3.995,2.382,7.368,5.65,10.343,9.196,2.107,2.511,4.023,5.171,5.886,7.866,1.645,2.38,3.241,4.798,4.957,7.129,1.395,1.895,3.325,4.45,5.385,5.664l5.939,3.5-5.939,3.5c-2.06,1.214-3.991,3.769-5.385,5.664-1.715,2.331-3.311,4.749-4.957,7.129-1.863,2.695-3.779,5.355-5.886,7.866-2.975,3.545-6.349,6.814-10.343,9.196-2.839,1.693-5.716,2.767-8.604,3.324,1.648,2.437,2.923,5.23,3.733,8.435,1.139,4.506,1.214,9.209.811,13.816-.285,3.265-.812,6.501-1.4,9.724-.519,2.847-1.101,5.685-1.536,8.546-.354,2.327-.795,5.498-.197,7.813l1.724,6.675-6.675-1.724c-2.315-.598-5.487-.157-7.813.197-2.861.435-5.699,1.017-8.546,1.536-3.223.588-6.459,1.115-9.724,1.4-4.608.403-9.31.328-13.816-.811-3.204-.81-5.998-2.085-8.435-3.733-.557,2.888-1.631,5.766-3.324,8.604-2.382,3.995-5.651,7.368-9.196,10.343-2.511,2.107-5.171,4.023-7.866,5.886-2.38,1.646-4.798,3.241-7.129,4.957-1.895,1.395-4.45,3.325-5.664,5.385l-3.5,5.939-3.5-5.939c-1.214-2.06-3.769-3.991-5.664-5.385-2.331-1.715-4.749-3.311-7.129-4.957-2.695-1.863-5.355-3.779-7.866-5.886-3.545-2.975-6.814-6.349-9.196-10.343-1.693-2.839-2.767-5.716-3.324-8.604-2.436,1.648-5.23,2.923-8.435,3.733-4.506,1.139-9.209,1.214-13.816.811-3.265-.285-6.501-.812-9.724-1.4-2.847-.519-5.685-1.101-8.546-1.536-2.327-.354-5.498-.795-7.813-.197l-6.675,1.724,1.724-6.675c.598-2.315.157-5.487-.197-7.813-.435-2.861-1.017-5.699-1.536-8.546-.588-3.223-1.115-6.459-1.4-9.724-.403-4.608-.328-9.31.811-13.816.81-3.204,2.085-5.998,3.733-8.435-2.888-.557-5.765-1.631-8.604-3.324-3.995-2.382-7.368-5.651-10.343-9.196-2.107-2.511-4.023-5.171-5.886-7.866-1.646-2.38-3.241-4.798-4.957-7.129-1.395-1.895-3.325-4.45-5.385-5.664l-5.939-3.5,5.939-3.5c2.06-1.214,3.991-3.769,5.385-5.664,1.715-2.331,3.311-4.749,4.957-7.129,1.863-2.695,3.779-5.355,5.886-7.866,2.975-3.545,6.349-6.814,10.343-9.196,2.839-1.693,5.716-2.767,8.604-3.324h0ZM121.418,155.033v7.953l-6.776-3.913c-6.971-4.025-14.948-6.85-22.452-2.375-2.937,1.752-5.455,4.291-7.642,6.897-3.813,4.544-6.909,9.687-10.423,14.462-.715.972-1.448,1.93-2.219,2.856.771.926,1.504,1.884,2.219,2.856,3.514,4.775,6.61,9.918,10.423,14.462,2.186,2.606,4.705,5.145,7.642,6.897,7.504,4.475,15.481,1.65,22.452-2.375l6.776-3.913v7.953l5.623,5.623-7.558,2.025c-7.775,2.083-15.414,5.726-17.555,14.197-.839,3.318-.823,6.89-.527,10.28.517,5.909,1.964,11.735,2.856,17.596.182,1.193.341,2.389.45,3.589,1.2.109,2.396.269,3.589.45,5.861.892,11.687,2.339,17.596,2.856,3.39.296,6.962.312,10.28-.527,8.47-2.142,12.114-9.78,14.197-17.555l2.025-7.558,5.623,5.623h7.953l-3.913,6.776c-4.025,6.971-6.85,14.948-2.375,22.452,1.752,2.937,4.291,5.455,6.897,7.642,4.544,3.813,9.687,6.909,14.462,10.423.972.715,1.93,1.448,2.856,2.219.926-.771,1.884-1.504,2.856-2.219,4.775-3.514,9.918-6.61,14.462-10.423,2.606-2.186,5.145-4.705,6.897-7.642,4.475-7.504,1.65-15.481-2.375-22.452l-3.913-6.776h7.953l5.623-5.623,2.025,7.558c2.083,7.775,5.727,15.414,14.197,17.555,3.318.839,6.89.823,10.28.527,5.909-.517,11.735-1.964,17.596-2.856,1.193-.182,2.389-.341,3.589-.45.109-1.2.268-2.396.45-3.589.892-5.861,2.339-11.687,2.856-17.596.296-3.39.312-6.962-.527-10.28-2.142-8.47-9.78-12.114-17.555-14.197l-7.558-2.025,5.623-5.623v-7.953l6.776,3.913c6.971,4.025,14.948,6.85,22.452,2.375,2.937-1.752,5.455-4.291,7.642-6.897,3.813-4.544,6.909-9.687,10.423-14.462.715-.972,1.448-1.93,2.219-2.856-.771-.926-1.504-1.884-2.219-2.856-3.514-4.775-6.61-9.918-10.423-14.462-2.186-2.606-4.705-5.145-7.642-6.897-7.504-4.475-15.481-1.65-22.452,2.375l-6.776,3.913v-7.953l-5.623-5.623,7.558-2.025c7.775-2.083,15.414-5.727,17.555-14.197.839-3.318.823-6.89.527-10.28-.517-5.909-1.964-11.735-2.856-17.596-.182-1.193-.341-2.389-.45-3.589-1.2-.109-2.396-.269-3.589-.45-5.861-.892-11.687-2.339-17.596-2.856-3.39-.296-6.962-.312-10.28.527-8.47,2.142-12.114,9.78-14.197,17.555l-2.025,7.558-5.623-5.623h-7.953l3.913-6.776c4.025-6.971,6.85-14.948,2.375-22.452-1.752-2.937-4.291-5.455-6.897-7.642-4.544-3.813-9.687-6.909-14.462-10.423-.972-.715-1.93-1.448-2.856-2.219-.926.771-1.884,1.504-2.856,2.219-4.775,3.514-9.919,6.61-14.462,10.423-2.606,2.186-5.145,4.705-6.897,7.642-4.475,7.504-1.65,15.481,2.375,22.452l3.913,6.776h-7.953l-5.623,5.623-2.025-7.558c-2.083-7.775-5.726-15.414-14.197-17.555-3.318-.839-6.89-.823-10.28-.527-5.909.517-11.735,1.964-17.596,2.856-1.193.182-2.389.341-3.589.45-.109,1.2-.269,2.395-.45,3.589-.892,5.861-2.339,11.687-2.856,17.596-.296,3.39-.312,6.962.527,10.28,2.142,8.47,9.78,12.114,17.555,14.197l7.558,2.025-5.623,5.623h0Z" fill="#0b526e" fill-rule="evenodd"/>
        <path d="M150.658,101.547h3.462l-.469-.813c-5.753-9.965-9.12-21.082-2.798-31.684,2.378-3.987,5.735-7.376,9.272-10.344,5.525-4.637,11.696-8.357,17.492-12.622,1.849-1.361,3.671-2.784,5.319-4.386l.96-.933.96.933c1.648,1.602,3.47,3.025,5.319,4.386,5.796,4.265,11.967,7.986,17.492,12.622,3.538,2.969,6.895,6.357,9.272,10.344,6.323,10.602,2.956,21.719-2.798,31.684l-.469.813h3.462c6.096-10.824,9.143-22.7,2.383-34.035-2.552-4.28-6.123-7.919-9.921-11.107-2.878-2.415-5.934-4.611-9.023-6.746-2.876-1.988-5.804-3.923-8.62-5.995-2.673-1.967-6.161-4.646-8.058-7.866-1.898,3.22-5.385,5.898-8.058,7.866-2.816,2.072-5.743,4.006-8.62,5.995-3.089,2.135-6.145,4.331-9.023,6.746-3.798,3.187-7.369,6.827-9.921,11.107-6.76,11.335-3.713,23.211,2.383,34.035h0Z" fill="#0b526e" fill-rule="evenodd"/>
        <path d="M216.513,101.29l2.448,2.448.243-.907c2.978-11.115,8.458-21.356,20.426-24.382,4.501-1.138,9.271-1.16,13.871-.758,7.185.628,14.179,2.361,21.294,3.443,2.269.345,4.565.627,6.862.659l1.338.019.019,1.338c.033,2.298.314,4.593.659,6.862,1.082,7.114,2.815,14.109,3.443,21.294.402,4.601.38,9.37-.758,13.871-3.026,11.968-13.267,17.447-24.382,20.426l-.907.243,2.448,2.448c11.965-3.343,22.517-9.586,25.752-22.381,1.221-4.831,1.27-9.93.838-14.869-.327-3.743-.936-7.456-1.61-11.15-.628-3.44-1.33-6.878-1.856-10.334-.499-3.282-1.071-7.642-.136-11.26-3.618.935-7.978.363-11.26-.136-3.457-.526-6.894-1.228-10.334-1.856-3.694-.674-7.407-1.283-11.15-1.61-4.939-.432-10.038-.383-14.869.838-12.795,3.235-19.038,13.787-22.381,25.752h0Z" fill="#0b526e" fill-rule="evenodd"/>
        <path d="M263.261,147.674v3.462l.813-.469c9.965-5.753,21.082-9.12,31.684-2.798,3.987,2.378,7.376,5.735,10.344,9.272,4.637,5.525,8.357,11.696,12.622,17.492,1.361,1.849,2.784,3.671,4.386,5.319l.933.96-.933.96c-1.602,1.648-3.025,3.47-4.386,5.319-4.265,5.796-7.986,11.967-12.622,17.492-2.969,3.538-6.357,6.895-10.344,9.272-10.602,6.323-21.719,2.956-31.684-2.798l-.813-.469v3.462c10.824,6.096,22.7,9.143,34.035,2.383,4.28-2.552,7.919-6.123,11.107-9.921,2.415-2.878,4.611-5.934,6.746-9.023,1.988-2.876,3.923-5.804,5.995-8.62,1.967-2.673,4.646-6.161,7.866-8.058-3.22-1.898-5.898-5.385-7.866-8.058-2.072-2.816-4.006-5.743-5.995-8.62-2.135-3.089-4.331-6.145-6.746-9.023-3.187-3.798-6.827-7.369-11.107-9.921-11.335-6.76-23.211-3.713-34.035,2.383h0Z" fill="#0b526e" fill-rule="evenodd"/>
        <path d="M263.519,213.529l-2.448,2.448.907.243c11.115,2.978,21.356,8.458,24.382,20.426,1.138,4.501,1.16,9.271.758,13.871-.628,7.185-2.361,14.18-3.443,21.294-.345,2.269-.627,4.565-.659,6.862l-.019,1.338-1.338.019c-2.298.033-4.593.314-6.862.659-7.114,1.082-14.109,2.815-21.294,3.443-4.601.402-9.371.38-13.871-.758-11.968-3.026-17.447-13.267-20.426-24.382l-.243-.906-2.448,2.448c3.343,11.965,9.586,22.517,22.381,25.752,4.831,1.221,9.93,1.27,14.869.838,3.743-.327,7.456-.936,11.15-1.61,3.44-.628,6.878-1.33,10.334-1.856,3.281-.499,7.642-1.071,11.26-.136-.935-3.618-.363-7.978.136-11.26.526-3.457,1.228-6.894,1.856-10.334.674-3.694,1.283-7.407,1.61-11.15.432-4.939.383-10.038-.838-14.869-3.235-12.795-13.787-19.038-25.752-22.381h0Z" fill="#0b526e" fill-rule="evenodd"/>
        <path d="M217.134,260.277h-3.462l.469.813c5.753,9.965,9.12,21.082,2.798,31.684-2.378,3.987-5.735,7.376-9.272,10.344-5.525,4.637-11.696,8.357-17.492,12.622-1.849,1.361-3.671,2.784-5.319,4.386l-.96.933-.96-.933c-1.648-1.602-3.47-3.025-5.319-4.386-5.796-4.265-11.967-7.986-17.492-12.622-3.538-2.969-6.895-6.357-9.272-10.344-6.323-10.602-2.956-21.719,2.798-31.684l.469-.813h-3.462c-6.096,10.824-9.143,22.7-2.383,34.035,2.552,4.28,6.123,7.919,9.921,11.107,2.878,2.415,5.934,4.611,9.023,6.746,2.876,1.988,5.804,3.923,8.62,5.995,2.673,1.967,6.161,4.646,8.058,7.866,1.898-3.22,5.385-5.898,8.058-7.866,2.816-2.072,5.743-4.006,8.62-5.995,3.089-2.135,6.145-4.331,9.023-6.746,3.798-3.187,7.369-6.827,9.921-11.107,6.76-11.335,3.713-23.211-2.383-34.035h0Z" fill="#0b526e" fill-rule="evenodd"/>
        <path d="M151.28,260.535l-2.448-2.448-.243.906c-2.978,11.115-8.458,21.357-20.426,24.382-4.501,1.138-9.271,1.16-13.871.758-7.185-.628-14.18-2.361-21.294-3.443-2.269-.345-4.564-.627-6.862-.659l-1.338-.019-.019-1.338c-.033-2.298-.314-4.593-.659-6.862-1.082-7.114-2.815-14.109-3.443-21.294-.402-4.601-.38-9.37.758-13.871,3.026-11.968,13.267-17.447,24.382-20.426l.906-.243-2.448-2.448c-11.965,3.343-22.517,9.586-25.752,22.381-1.221,4.831-1.27,9.93-.838,14.869.327,3.743.936,7.456,1.61,11.15.628,3.44,1.33,6.878,1.856,10.334.499,3.282,1.071,7.642.136,11.26,3.618-.935,7.978-.363,11.26.136,3.457.526,6.894,1.228,10.334,1.856,3.694.674,7.407,1.283,11.15,1.61,4.939.432,10.038.383,14.869-.838,12.795-3.235,19.038-13.787,22.381-25.752h0Z" fill="#0b526e" fill-rule="evenodd"/>
        <path d="M104.531,214.15v-3.462l-.813.469c-9.965,5.753-21.082,9.12-31.684,2.798-3.987-2.378-7.376-5.735-10.344-9.272-4.637-5.525-8.357-11.696-12.622-17.492-1.361-1.849-2.784-3.671-4.386-5.319l-.933-.96.933-.96c1.602-1.648,3.025-3.47,4.386-5.319,4.265-5.796,7.986-11.967,12.622-17.492,2.969-3.538,6.357-6.895,10.344-9.272,10.602-6.323,21.719-2.956,31.684,2.798l.813.469v-3.462c-10.824-6.096-22.7-9.143-34.035-2.383-4.28,2.552-7.919,6.123-11.107,9.921-2.415,2.878-4.611,5.934-6.746,9.023-1.988,2.876-3.923,5.804-5.995,8.62-1.967,2.673-4.646,6.161-7.866,8.058,3.22,1.898,5.898,5.385,7.866,8.058,2.072,2.816,4.006,5.743,5.995,8.62,2.135,3.088,4.331,6.145,6.746,9.023,3.187,3.798,6.827,7.369,11.107,9.921,11.335,6.76,23.211,3.713,34.035-2.383h0Z" fill="#0b526e" fill-rule="evenodd"/>
        <path d="M104.274,148.296l2.448-2.448-.906-.243c-11.115-2.978-21.357-8.458-24.382-20.426-1.138-4.501-1.16-9.271-.758-13.871.628-7.185,2.361-14.179,3.443-21.294.345-2.269.627-4.565.659-6.862l.019-1.338,1.338-.019c2.298-.033,4.593-.314,6.862-.659,7.114-1.082,14.109-2.815,21.294-3.443,4.601-.402,9.37-.38,13.871.758,11.968,3.026,17.447,13.267,20.426,24.382l.243.907,2.448-2.448c-3.343-11.965-9.586-22.517-22.381-25.752-4.831-1.221-9.93-1.27-14.869-.838-3.743.327-7.456.936-11.15,1.61-3.44.628-6.877,1.33-10.334,1.856-3.282.499-7.642,1.071-11.26.136.935,3.618.363,7.978-.136,11.26-.526,3.457-1.228,6.894-1.856,10.334-.674,3.694-1.283,7.407-1.61,11.15-.432,4.939-.383,10.038.838,14.869,3.235,12.795,13.787,19.038,25.752,22.381h0Z" fill="#0b526e" fill-rule="evenodd"/>
      </g>
      <path d="M354.72,384.602c-34.305-20.249-102.267-28.862-158.447-5.526,50.862-38.1,118.304-20.812,119.951-20.645l-18.497-41.478,32.303,8.342,24.691,59.308Z" fill="#0b526e" fill-rule="evenodd"/>
    </g>
  </g>
</svg>