<?xml version="1.0" encoding="UTF-8" standalone="no"?>
<!DOCTYPE svg PUBLIC "-//W3C//DTD SVG 1.1//EN" "http://www.w3.org/Graphics/SVG/1.1/DTD/svg11.dtd">
<svg xmlns="http://www.w3.org/2000/svg" version="1.1" viewBox="0.00 0.00 512.00 512.00">
<path fill="#000000" d="
  M 512.00 135.09
  L 512.00 138.77
  Q 510.56 147.15 504.09 150.60
  Q 405.43 203.23 306.73 255.86
  A 0.16 0.16 0.0 0 0 306.73 256.14
  Q 405.30 308.70 503.95 361.31
  Q 510.54 364.83 512.00 373.17
  L 512.00 376.72
  Q 511.34 379.96 510.64 381.38
  Q 509.25 384.17 504.26 393.41
  Q 500.94 399.56 498.20 401.72
  Q 493.03 405.80 486.52 404.70
  Q 483.32 404.15 476.01 400.25
  Q 388.61 353.60 304.30 308.65
  Q 301.64 307.23 300.62 305.88
  C 296.60 300.56 301.06 293.21 307.53 293.98
  Q 308.96 294.15 312.65 296.11
  Q 400.57 342.97 488.37 389.84
  A 0.70 0.69 27.5 0 0 489.31 389.55
  L 496.71 375.67
  Q 497.22 374.71 496.27 374.20
  L 294.76 266.76
  A 0.29 0.29 0.0 0 0 294.35 266.93
  C 288.17 287.19 268.99 299.20 248.08 295.17
  C 245.06 294.58 239.35 291.80 235.89 293.64
  Q 134.83 347.56 33.75 401.45
  Q 27.77 404.64 24.78 404.89
  Q 19.38 405.34 14.90 402.58
  Q 11.58 400.54 7.72 393.56
  Q 3.26 385.49 0.00 377.21
  L 0.00 373.08
  Q 1.49 364.84 8.06 361.34
  Q 106.71 308.75 205.25 256.15
  A 0.17 0.17 0.0 0 0 205.25 255.85
  Q 106.60 203.19 7.92 150.59
  Q 1.52 147.18 0.00 139.00
  L 0.00 135.14
  Q 0.70 131.84 1.53 130.27
  Q 5.58 122.62 7.74 118.56
  Q 11.20 112.06 13.81 110.26
  Q 18.94 106.73 24.59 107.10
  Q 27.70 107.31 33.91 110.63
  Q 45.60 116.89 60.33 124.73
  A 0.96 0.95 48.6 0 0 61.09 124.78
  Q 80.18 117.79 98.21 111.16
  C 101.97 109.77 104.16 110.51 107.59 112.78
  Q 139.34 133.77 174.64 142.12
  Q 181.80 143.81 209.01 149.68
  Q 220.41 152.14 232.52 157.50
  Q 245.50 163.26 255.52 172.28
  A 0.67 0.67 0.0 0 0 256.41 172.29
  Q 269.31 160.98 285.67 154.91
  C 292.95 152.21 300.54 150.18 308.88 148.40
  Q 329.00 144.10 337.20 142.14
  Q 370.56 134.16 399.47 115.94
  Q 405.06 112.42 407.14 111.13
  Q 409.45 109.71 413.03 110.96
  Q 419.17 113.11 450.90 124.78
  A 0.99 0.96 40.7 0 0 451.69 124.73
  Q 473.76 112.95 481.88 108.63
  Q 486.87 105.98 493.26 107.82
  Q 499.42 109.60 502.59 115.49
  Q 505.76 121.38 510.65 130.62
  Q 511.20 131.67 512.00 135.09
  Z
  M 225.51 230.21
  A 0.29 0.28 -56.4 0 0 225.43 229.77
  Q 138.85 183.58 130.84 179.20
  Q 126.30 176.72 126.71 172.15
  Q 127.17 167.10 131.95 165.43
  Q 134.78 164.44 138.71 166.54
  Q 203.25 200.93 238.34 219.66
  A 1.03 1.01 48.4 0 0 239.20 219.72
  L 248.28 216.39
  Q 248.50 216.31 248.50 216.08
  L 248.50 186.54
  A 1.11 1.11 0.0 0 0 248.14 185.72
  Q 237.39 175.92 225.86 170.97
  Q 214.81 166.22 202.34 163.56
  Q 180.79 158.95 171.93 156.85
  Q 133.92 147.83 101.35 126.58
  A 1.36 1.34 51.2 0 0 100.15 126.44
  L 79.18 134.13
  A 0.36 0.36 0.0 0 0 79.13 134.79
  Q 84.97 137.96 104.62 148.37
  Q 109.49 150.96 109.11 155.53
  C 108.65 161.10 102.93 164.45 97.95 161.80
  Q 39.64 130.68 23.49 122.08
  A 0.53 0.53 0.0 0 0 22.77 122.30
  L 15.16 136.57
  Q 14.79 137.27 15.49 137.64
  L 217.24 245.21
  A 0.30 0.30 0.0 0 0 217.67 245.03
  Q 219.96 236.95 225.51 230.21
  Z
  M 244.26 233.99
  Q 237.26 237.72 233.59 245.10
  C 232.09 248.12 231.27 252.53 229.67 255.57
  Q 226.34 261.87 219.85 265.34
  Q 28.17 367.66 15.41 374.42
  A 0.68 0.67 -28.3 0 0 15.13 375.33
  Q 16.91 378.73 18.91 382.47
  Q 20.90 386.21 22.74 389.58
  A 0.68 0.67 -27.9 0 0 23.64 389.86
  Q 36.37 383.03 228.11 280.83
  Q 234.61 277.38 241.70 278.12
  C 245.11 278.49 249.23 280.26 252.58 280.70
  Q 260.75 281.76 267.75 278.03
  Q 274.75 274.30 278.42 266.92
  C 279.91 263.90 280.73 259.49 282.33 256.45
  Q 285.66 250.15 292.15 246.68
  Q 483.83 144.36 496.59 137.60
  A 0.68 0.67 -28.3 0 0 496.87 136.69
  Q 495.09 133.29 493.10 129.55
  Q 491.10 125.81 489.27 122.44
  A 0.68 0.67 -27.9 0 0 488.36 122.16
  Q 475.64 128.99 283.89 231.18
  Q 277.39 234.64 270.31 233.90
  C 266.89 233.53 262.77 231.76 259.43 231.32
  Q 251.25 230.25 244.26 233.99
  Z
  M 411.67 126.35
  Q 411.26 126.20 410.89 126.44
  Q 377.78 148.05 339.49 156.97
  Q 332.02 158.71 306.34 164.44
  C 290.33 168.01 275.85 174.45 263.90 185.75
  A 1.31 1.28 68.6 0 0 263.50 186.69
  L 263.50 216.23
  Q 263.50 216.70 263.95 216.82
  Q 266.79 217.56 269.77 218.43
  Q 271.47 218.92 272.73 218.98
  Q 274.84 219.07 275.77 218.57
  Q 308.19 201.28 433.03 134.66
  A 0.26 0.26 0.0 0 0 433.00 134.19
  L 411.67 126.35
  Z"
/>
<circle fill="#000000" cx="256.06" cy="255.99" r="7.48"/>
</svg>
