<?xml version="1.0" encoding="UTF-8"?>
<svg xmlns="http://www.w3.org/2000/svg" version="1.1" viewBox="0 0 512 512">
  <defs>
    <style>
      .cls-1 {
        fill: #d7ab6a;
      }

      .cls-2 {
        fill: #fff;
      }

      .cls-3 {
        fill: #0b526e;
      }
    </style>
  </defs>
  <!-- Generator: Adobe Illustrator 28.6.0, SVG Export Plug-In . SVG Version: 1.2.0 Build 709)  -->
  <g>
    <g id="Layer_1">
      <g>
        <path class="cls-3" d="M512,135.09v3.68c-.96,5.587-3.597,9.53-7.91,11.83-65.773,35.087-131.56,70.173-197.36,105.26-.077.043-.105.14-.063.217.015.026.036.048.063.063,65.713,35.04,131.453,70.097,197.22,105.17,4.393,2.347,7.077,6.3,8.05,11.86v3.55c-.44,2.16-.893,3.713-1.36,4.66-.927,1.86-3.053,5.87-6.38,12.03-2.213,4.1-4.233,6.87-6.06,8.31-3.447,2.72-7.34,3.713-11.68,2.98-2.133-.367-5.637-1.85-10.51-4.45-58.267-31.1-115.503-61.633-171.71-91.6-1.773-.947-3-1.87-3.68-2.77-4.02-5.32.44-12.67,6.91-11.9.953.113,2.66.823,5.12,2.13,58.613,31.24,117.187,62.483,175.72,93.73.343.178.764.049.939-.289,0,0,0,0,0-.001l7.4-13.88c.34-.64.193-1.13-.44-1.47l-201.51-107.44c-.142-.074-.317-.018-.391.124-.008.015-.014.03-.019.046-6.18,20.26-25.36,32.27-46.27,28.24-3.02-.59-8.73-3.37-12.19-1.53-67.373,35.947-134.753,71.883-202.14,107.81-3.987,2.127-6.977,3.273-8.97,3.44-3.6.3-6.893-.47-9.88-2.31-2.213-1.36-4.607-4.367-7.18-9.02-2.973-5.38-5.547-10.83-7.72-16.35v-4.13c.993-5.493,3.68-9.407,8.06-11.74,65.767-35.06,131.497-70.123,197.19-105.19.083-.044.114-.147.07-.23-.016-.03-.04-.054-.07-.07C139.483,220.743,73.707,185.657,7.92,150.59c-4.267-2.273-6.907-6.137-7.92-11.59v-3.86c.467-2.2.977-3.823,1.53-4.87,2.7-5.1,4.77-9.003,6.21-11.71,2.307-4.333,4.33-7.1,6.07-8.3,3.42-2.353,7.013-3.407,10.78-3.16,2.073.14,5.18,1.317,9.32,3.53,7.793,4.173,16.6,8.873,26.42,14.1.237.121.512.14.76.05,12.727-4.66,25.1-9.2,37.12-13.62,3.76-1.39,5.95-.65,9.38,1.62,21.167,13.993,43.517,23.773,67.05,29.34,4.773,1.127,16.23,3.647,34.37,7.56,7.6,1.64,15.437,4.247,23.51,7.82,8.653,3.84,16.32,8.767,23,14.78.251.228.634.233.89.01,8.6-7.54,18.353-13.333,29.26-17.38,7.28-2.7,14.87-4.73,23.21-6.51,13.413-2.867,22.853-4.953,28.32-6.26,22.24-5.32,42.997-14.053,62.27-26.2,3.727-2.347,6.283-3.95,7.67-4.81,1.54-.947,3.503-1.003,5.89-.17,4.093,1.433,16.717,6.04,37.87,13.82.262.096.549.077.79-.05,14.713-7.853,24.777-13.22,30.19-16.1,3.327-1.767,7.12-2.037,11.38-.81,4.107,1.187,7.217,3.743,9.33,7.67,2.113,3.927,4.8,8.97,8.06,15.13.367.7.817,2.19,1.35,4.47ZM225.51,230.21c.103-.122.092-.303-.026-.404-.017-.014-.035-.026-.054-.036-57.72-30.793-89.25-47.65-94.59-50.57-3.027-1.653-4.403-4.003-4.13-7.05.307-3.367,2.053-5.607,5.24-6.72,1.887-.66,4.14-.29,6.76,1.11,43.027,22.927,76.237,40.633,99.63,53.12.266.146.581.168.86.06l9.08-3.33c.147-.053.22-.157.22-.31v-29.54c0-.312-.13-.609-.36-.82-7.167-6.533-14.593-11.45-22.28-14.75-7.367-3.167-15.207-5.637-23.52-7.41-14.367-3.073-24.503-5.31-30.41-6.71-25.34-6.013-48.867-16.103-70.58-30.27-.358-.233-.803-.285-1.2-.14l-20.97,7.69c-.188.064-.289.269-.224.457.03.088.092.16.174.203,3.893,2.113,12.39,6.64,25.49,13.58,3.247,1.727,4.743,4.113,4.49,7.16-.46,5.57-6.18,8.92-11.16,6.27-38.873-20.747-63.693-33.987-74.46-39.72-.258-.139-.579-.042-.718.216,0,.001-.001.003-.002.004l-7.61,14.27c-.247.467-.137.823.33,1.07l201.75,107.57c.146.078.328.024.406-.122.01-.018.018-.038.024-.058,1.527-5.387,4.14-10.327,7.84-14.82ZM244.26,233.99c-4.667,2.487-8.223,6.19-10.67,11.11-1.5,3.02-2.32,7.43-3.92,10.47-2.22,4.2-5.493,7.457-9.82,9.77C92.063,333.553,23.917,369.913,15.41,374.42c-.329.178-.454.585-.28.91,1.187,2.267,2.447,4.647,3.78,7.14,1.327,2.493,2.603,4.863,3.83,7.11.171.321.57.445.9.28,8.487-4.553,76.643-40.897,204.47-109.03,4.333-2.3,8.863-3.203,13.59-2.71,3.41.37,7.53,2.14,10.88,2.58,5.447.707,10.503-.183,15.17-2.67,4.667-2.487,8.223-6.19,10.67-11.11,1.49-3.02,2.31-7.43,3.91-10.47,2.22-4.2,5.493-7.457,9.82-9.77,127.787-68.213,195.933-104.573,204.44-109.08.329-.178.454-.585.28-.91-1.187-2.267-2.443-4.647-3.77-7.14-1.333-2.493-2.61-4.863-3.83-7.11-.171-.327-.578-.452-.91-.28-8.48,4.553-76.637,40.893-204.47,109.02-4.333,2.307-8.86,3.213-13.58,2.72-3.42-.37-7.54-2.14-10.88-2.58-5.453-.713-10.51.177-15.17,2.67ZM411.67,126.35c-.273-.1-.533-.07-.78.09-22.073,14.407-45.873,24.583-71.4,30.53-4.98,1.16-16.03,3.65-33.15,7.47-16.01,3.57-30.49,10.01-42.44,21.31-.255.242-.4.582-.4.94v29.54c0,.313.15.51.45.59,1.893.493,3.833,1.03,5.82,1.61,1.133.327,2.12.51,2.96.55,1.407.06,2.42-.077,3.04-.41,21.613-11.527,74.033-39.497,157.26-83.91.126-.069.172-.227.103-.353-.029-.053-.076-.095-.133-.117l-21.33-7.84Z"/>
        <circle class="cls-3" cx="256.06" cy="255.99" r="7.48" transform="translate(-37.641 467.739) rotate(-80.783)"/>
        <path class="cls-1" d="M217.771,245.062c.01-.018.018-.038.024-.058,1.527-5.387,4.14-10.327,7.84-14.82.103-.122.092-.303-.026-.404-.016-.014-.035-.026-.054-.036-42.247-22.539-70.445-37.601-84.631-45.207l-.034.06c-23.843-12.737-37.436-20.019-40.777-21.846-.244-.133-.46-.279-.682-.421-.455-.144-.908-.317-1.356-.555-38.873-20.747-63.693-33.987-74.46-39.72-.258-.139-.579-.042-.718.216,0,.001-.001.003-.002.004l-7.61,14.27c-.247.467-.137.823.33,1.07l201.75,107.57c.146.078.328.024.406-.122Z"/>
        <path class="cls-1" d="M294.494,266.858c-.008.015-.014.03-.019.046-1.759,5.766-4.574,10.862-8.179,15.112,8.647,4.608,16.89,9.001,24.728,13.178.534.258,1.117.553,1.751.891,58.613,31.24,117.187,62.483,175.72,93.73.343.178.764.049.94-.289,0,0,0,0,0-.001l7.4-13.88c.34-.64.193-1.13-.44-1.47l-201.51-107.44c-.142-.074-.317-.018-.391.124Z"/>
        <path class="cls-1" d="M493.225,129.524c-1.333-2.493-2.61-4.863-3.83-7.11-.171-.327-.578-.452-.91-.28-8.48,4.553-76.637,40.893-204.47,109.02-4.333,2.307-8.86,3.213-13.58,2.72-3.42-.37-7.54-2.14-10.88-2.58-5.453-.713-10.51.177-15.17,2.67-4.667,2.487-8.223,6.19-10.67,11.11-1.5,3.02-2.32,7.43-3.92,10.47-2.22,4.2-5.493,7.457-9.82,9.77C92.188,333.527,24.041,369.887,15.535,374.394c-.329.178-.454.585-.28.91,1.187,2.267,2.447,4.647,3.78,7.14,1.327,2.493,2.603,4.863,3.83,7.11.171.321.57.445.9.28,8.487-4.553,76.643-40.897,204.47-109.03,4.333-2.3,8.863-3.203,13.59-2.71,3.41.37,7.53,2.14,10.88,2.58,5.447.707,10.503-.183,15.17-2.67,4.667-2.487,8.223-6.19,10.67-11.11,1.49-3.02,2.31-7.43,3.91-10.47,2.22-4.2,5.493-7.457,9.82-9.77,127.787-68.213,195.933-104.573,204.44-109.08.329-.178.454-.585.28-.91-1.187-2.267-2.443-4.647-3.77-7.14ZM256.185,263.444c-4.131,0-7.48-3.349-7.48-7.48s3.349-7.48,7.48-7.48,7.48,3.349,7.48,7.48-3.349,7.48-7.48,7.48Z"/>
        <path class="cls-2" d="M238.941,219.723l9.08-3.33c.147-.053.22-.157.22-.31v-29.54c0-.312-.13-.609-.36-.82-7.167-6.533-14.593-11.45-22.28-14.75-7.367-3.167-15.207-5.637-23.52-7.41-14.367-3.073-24.503-5.31-30.41-6.71-25.34-6.013-48.867-16.103-70.58-30.27-.358-.233-.803-.285-1.2-.14l-20.97,7.69c-.188.064-.289.269-.224.457.03.088.092.16.174.203,3.893,2.113,12.39,6.64,25.49,13.58,3.247,1.727,4.743,4.113,4.49,7.16-.409,4.948-4.968,8.133-9.472,6.928.154.099.305.2.474.293,3.066,1.677,14.776,7.953,35.113,18.82-2.093-1.126-3.556-1.917-4.386-2.37-3.027-1.653-4.403-4.003-4.13-7.05.307-3.367,2.053-5.607,5.24-6.72,1.887-.66,4.14-.29,6.76,1.11,43.027,22.927,76.237,40.633,99.63,53.12.266.146.581.168.86.06Z"/>
        <path class="cls-2" d="M432.741,134.193l-21.33-7.84c-.273-.1-.533-.07-.78.09-22.073,14.407-45.873,24.583-71.4,30.53-4.98,1.16-16.03,3.65-33.15,7.47-16.01,3.57-30.49,10.01-42.44,21.31-.255.242-.4.582-.4.94v29.54c0,.313.15.51.45.59,1.893.493,3.833,1.03,5.82,1.61,1.133.327,2.12.51,2.96.55,1.407.06,2.42-.077,3.04-.41,21.613-11.527,74.033-39.497,157.26-83.91.126-.069.172-.227.103-.353-.029-.053-.076-.095-.133-.117Z"/>
      </g>
    </g>
  </g>
</svg>