<?xml version="1.0" encoding="UTF-8"?>
<svg xmlns="http://www.w3.org/2000/svg" version="1.1" viewBox="0 0 130 127.1">
  <defs>
    <style>
      .cls-1 {
        fill: #d8ac6b;
      }

      .cls-2 {
        fill: #0b526e;
      }
    </style>
  </defs>
  <!-- Generator: Adobe Illustrator 28.6.0, SVG Export Plug-In . SVG Version: 1.2.0 Build 709)  -->
  <g>
    <g id="Layer_1">
      <g>
        <path class="cls-1" d="M49.3,48.1c2.2,2.1,4.8,3.7,7.8,4.8,2.5,1,5.2,1.4,8.1,1.4,2.8,0,5.5-.5,8-1.5,3.5-1.4,6.5-3.5,8.9-6.2,0,0,0,0,0,0,.4-.4.7-.8,1-1.3,0,0,0,0,0-.1.3-.4.6-.9.9-1.3,0,0,0,0,0,0,1.2-2,2.2-4.1,2.8-6.4,0-.2,0-.3.1-.5,0-.3.1-.6.2-.9-2.4-.3-5,0-7.4,1.1-1.5.7-2.8,1.6-4,2.8-.7.7-1.4,1.6-1.9,2.4-.5-.2-.9-.3-1.4-.5-2.3-.8-4.8-1.1-7.4-1.1-2.6,0-5.1.4-7.4,1.2-.9.3-1.8.7-2.6,1.1-.4-.4-.7-.9-1.1-1.3-1.2-1.2-2.5-2.1-4-2.8-2.3-1-4.7-1.3-7-1.1,0,.1,0,.3.1.4.2.6.4,1.2.6,1.7.1.3.2.6.3.8,0,.2.2.4.3.7.1.3.3.6.4.9.1.2.2.4.3.6.2.3.3.6.5.9.1.2.2.4.4.5.2.3.4.6.6.9.1.2.2.3.3.5.3.3.5.6.8,1,0,.1.2.2.3.3.4.4.7.8,1.1,1.2,0,0,0,0,0,0Z"/>
        <g>
          <path class="cls-2" d="M65,59.7c.6,0,.9,0,1,0,5.2-.7,10.9-2.5,16-1.6,13.5,2.4,23,13.5,23,27.3,0,11.2-.1,17.8-.1,20s.3.6.6.6h16.5c.8,0,1.4.5,1.6,1.2l1.6,6.5c.1.4.4.6.8.6h2c1.2,0,1.8.7,2,2.1,0,0,0,.2,0,.6-.2,1-.8,1.5-1.8,1.5-15.3,0-31.8,0-49.3,0-2.9,0-4.9.3-6.1.9-2.1,1.1-3.2,3-3.5,5.8,0,.8-.7,1.5-1.5,1.6-.7.1-1.6.2-2.8.2s-2.1,0-2.8-.2c-.8-.1-1.4-.8-1.5-1.6-.3-2.8-1.4-4.8-3.5-5.8-1.1-.6-3.2-.9-6.1-.9-17.6,0-34,0-49.3,0-1,0-1.6-.5-1.8-1.5,0-.3,0-.5,0-.5.2-1.4.8-2.1,2-2.1h2c.4,0,.7-.2.8-.6l1.6-6.5c.2-.7.8-1.2,1.6-1.2h16.5c.3,0,.6-.3.6-.6h0c0-2.2,0-8.8-.1-20,0-13.8,9.5-24.9,22.9-27.3,5.1-.9,10.8.9,16,1.6,0,0,.4,0,1,0ZM65,108.7s0,0,.1,0c0,0,0,0,.1,0,2-1.6,4.8-2.4,8.4-2.5,3.1,0,6.4,0,9.8,0,.2,0,.4-.2.4-.4v-18.5c0-1,.9-1.9,2.1-2h0c1.4,0,2.1.7,2.1,2.1v18.5c0,.2.2.3.3.3h11.7c.3,0,.5-.2.5-.6,0-6.6,0-11.4,0-14.2.1-6.5-.3-11.2-1.4-14-2.3-6.3-6.6-10.8-12.9-13.5-6.6-2.8-11.4-1.3-18.8,0-.3,0-.5.3-.5.6,0,7.5,0,18.8,0,33.9,0,2.4-.7,3.6-2.1,3.6-1.4,0-2.1-1.2-2.1-3.6,0-15.1,0-26.4,0-33.9,0-.3-.2-.5-.5-.6-7.4-1.2-12.2-2.8-18.8,0-6.3,2.7-10.6,7.2-12.9,13.5-1,2.9-1.5,7.5-1.4,14,0,2.8,0,7.6,0,14.2,0,.3.2.6.5.6,0,0,0,0,0,0h11.7c.2,0,.3-.2.3-.3v-18.5c0-1.3.7-2,2.1-2.1h0c1.2,0,2.1,1,2.1,2v18.5c0,.2.2.4.4.4,0,0,0,0,0,0,3.4,0,6.6,0,9.8,0,3.6,0,6.4.9,8.4,2.5,0,0,0,0,.1,0,0,0,0,0,.1,0ZM65,122.6c.1,0,.2,0,.2,0,0,0,0,0,0-.2,1.7-5.3,5.3-8,10.9-8,18.3,0,33.2,0,44.6,0,.1,0,.2,0,.2-.2,0,0,0,0,0,0l-.9-3.7c0-.1-.1-.2-.3-.2-27.8,0-43.8,0-48.1,0-1.1,0-2.3.5-3.4,1.5-.4.4-.8,1.2-1,2.6-.3,1.5-1,2.2-2.1,2.2s-1.8-.7-2.1-2.2c-.3-1.3-.6-2.2-1-2.6-1.2-1-2.3-1.5-3.4-1.5-4.3,0-20.3,0-48.1,0-.2,0-.2,0-.3.2l-.9,3.7c0,.1,0,.2.2.2,0,0,0,0,0,0,11.4,0,26.2,0,44.5,0,5.6,0,9.2,2.7,10.9,8,0,0,0,.1,0,.2,0,0,.1,0,.2,0Z"/>
          <path class="cls-2" d="M38.6,28.2c.4-6.1.6-10.3.7-12.4,0-1.7.5-3.4,1.2-4.8,2.2-4.5,7.7-7.7,12.6-9.2,7.2-2.2,14.5-2.4,22-.5,6.5,1.6,14.5,5.9,15.5,13.4.2,1.6.5,6.1,1,13.5,0,.1,0,.2.2.3,3.2,1.2,5.3,3.4,5.8,6.8.3,2-.2,3.8-1.3,5.4-2.1,2.9-4.6,3.4-7.8,3.7-.2,0-.4.1-.4.3-3.7,6.4-9.9,11.1-17.2,12.7-5.6,1.2-11,.7-16.1-1.5-5.4-2.3-9.6-6-12.6-11.2-.1-.2-.4-.4-.6-.4-1.7,0-3.7-.4-5.1-1.2-3.5-2.1-4.8-6.2-3.3-9.9.9-2.3,2.7-3.8,5.4-4.7.1,0,.2-.1.2-.2ZM65,12.9c3.7,0,7.4.5,10.9,1.6,4.3,1.3,8,3.4,11.2,6.3.1.1.2,0,.2,0-.1-1.4-.2-2.8-.3-4-.1-1.7-.3-2.8-.6-3.5-1.4-3.5-5.3-6-8.8-7.4-4.1-1.6-8.4-2.3-12.8-2.3-4.4,0-8.7.8-12.8,2.4-3.4,1.3-7.4,3.9-8.8,7.4-.3.7-.5,1.8-.5,3.5,0,1.2-.2,2.5-.3,4,0,.2,0,.2.2,0,3.2-2.9,6.9-5.1,11.2-6.4,3.6-1.1,7.2-1.7,10.9-1.7ZM65.1,54.2c2.8,0,5.5-.5,8-1.5,9.5-3.7,15.2-12.8,14.6-23-.1-1.8-.7-3.4-1.9-4.8-5-5.9-13.5-8.4-21-8.4-7.5,0-16,2.6-20.9,8.6-1.1,1.4-1.7,3-1.8,4.8-.5,10.2,5.4,19.3,14.9,22.9,2.5,1,5.2,1.4,8.1,1.4ZM36.1,37c.3,1.8,1.9,3.2,3.8,3.5,0,0,.2,0,.2-.1,0,0,0,0,0,0-.5-1.4-.8-2.7-1-3.8-.2-1.1-.4-2.4-.5-3.9,0,0,0-.2-.2-.1,0,0,0,0,0,0-1.6.9-2.6,2.8-2.2,4.6ZM93.8,37c.3-1.8-.6-3.6-2.2-4.6,0,0-.2,0-.2,0,0,0,0,0,0,0-.1,1.5-.3,2.8-.5,3.9s-.5,2.4-1,3.8c0,0,0,.2.1.2,0,0,0,0,0,0,1.8-.3,3.4-1.6,3.8-3.4Z"/>
          <path class="cls-1" d="M54,14.6c3.6-1.1,7.2-1.7,10.9-1.7,3.7,0,7.4.5,10.9,1.6,4.3,1.3,8,3.4,11.2,6.3.1.1.2,0,.2,0-.1-1.4-.2-2.8-.3-4-.1-1.7-.3-2.8-.6-3.5-1.4-3.5-5.3-6-8.8-7.4-4.1-1.6-8.4-2.3-12.8-2.3-4.4,0-8.7.8-12.8,2.4-3.4,1.3-7.4,3.9-8.8,7.4-.3.7-.5,1.8-.5,3.5,0,1.2-.2,2.5-.3,4,0,.2,0,.2.2,0,3.2-2.9,6.9-5.1,11.2-6.4Z"/>
          <path class="cls-1" d="M10,110.5l-.9,3.7c0,.1,0,.2.2.2,0,0,0,0,0,0,11.4,0,26.2,0,44.5,0,5.6,0,9.2,2.7,10.9,8,0,0,0,.1.1.2,0,0,.1,0,.2,0s.2,0,.2,0c0,0,0,0,0-.2,1.7-5.3,5.3-8,10.9-8,18.3,0,33.2,0,44.6,0,.1,0,.2,0,.2-.2,0,0,0,0,0,0l-.9-3.7c0-.1-.1-.2-.3-.2-27.8,0-43.9,0-48.1,0-1.1,0-2.3.5-3.4,1.5-.4.4-.8,1.2-1,2.6-.3,1.5-1,2.2-2.1,2.2s-1.8-.7-2.1-2.2c-.3-1.3-.6-2.2-1-2.6-1.2-1-2.3-1.5-3.4-1.5-4.3,0-20.3,0-48.1,0-.2,0-.2,0-.3.2Z"/>
        </g>
      </g>
    </g>
  </g>
</svg>