<?xml version="1.0" encoding="UTF-8"?>
<svg xmlns="http://www.w3.org/2000/svg" version="1.1" viewBox="0 0 360.475 354.627">
  <defs>
    <style>
      .cls-1 {
        fill: #d7ab6a;
      }

      .cls-2 {
        fill: #d8ac6b;
      }

      .cls-3 {
        fill: #0b526e;
      }

      .cls-4 {
        fill: #0e526e;
      }
    </style>
  </defs>
  <!-- Generator: Adobe Illustrator 28.6.0, SVG Export Plug-In . SVG Version: 1.2.0 Build 709)  -->
  <g>
    <g id="Layer_1">
      <g>
        <g>
          <path class="cls-3" d="M195.021,76.387c1.067-16.827,1.71-28.147,1.93-33.96.187-4.793,1.277-9.217,3.27-13.27,6.09-12.41,21.2-21.21,34.54-25.26,19.833-6.02,39.92-6.49,60.26-1.41,17.74,4.43,39.91,16.29,42.41,36.72.547,4.453,1.423,16.823,2.63,37.11.02.367.203.617.55.75,8.65,3.38,14.56,9.4,15.83,18.58.747,5.453-.42,10.347-3.5,14.68-5.67,7.97-12.63,9.43-21.44,10.14-.508.038-.964.322-1.22.76-10.22,17.63-27.13,30.47-47.06,34.79-15.367,3.327-30.053,2-44.06-3.98-14.88-6.36-26.437-16.573-34.67-30.64-.35-.605-.982-.992-1.68-1.03-4.75-.26-10.09-1.09-14.03-3.42-9.56-5.65-13.22-16.97-9.12-27.08,2.533-6.253,7.483-10.533,14.85-12.84.32-.1.49-.313.51-.64ZM267.321,34.407c10.18-.02,20.187,1.463,30.02,4.45,11.72,3.56,22,9.35,30.84,17.37.38.34.55.257.51-.25-.28-3.953-.523-7.577-.73-10.87-.28-4.56-.793-7.763-1.54-9.61-3.88-9.62-14.67-16.56-24.11-20.22-11.17-4.34-23.04-6.35-35.04-6.32-12,.02-23.87,2.07-35.02,6.45-9.42,3.7-20.19,10.68-24.03,20.31-.74,1.853-1.24,5.06-1.5,9.62-.2,3.293-.43,6.917-.69,10.87-.04.507.13.59.51.25,8.807-8.053,19.063-13.88,30.77-17.48,9.827-3.027,19.83-4.55,30.01-4.57ZM267.721,147.787c7.767-.047,15.113-1.43,22.04-4.15,25.99-10.2,41.68-35.17,40.06-63.19-.287-5-1.997-9.373-5.13-13.12-13.61-16.31-37.05-23.11-57.59-22.99-20.55.13-43.89,7.21-57.31,23.68-3.087,3.787-4.743,8.18-4.97,13.18-1.29,28.04,14.7,52.82,40.81,62.71,6.96,2.633,14.323,3.927,22.09,3.88ZM188.091,100.417c.95,4.99,5.24,8.72,10.33,9.5.235.032.452-.133.484-.368.008-.061.003-.123-.014-.182-1.253-3.96-2.167-7.45-2.74-10.47-.573-3.027-.997-6.61-1.27-10.75-.011-.237-.212-.421-.449-.41-.071.003-.14.024-.201.06-4.45,2.59-7.08,7.63-6.14,12.62ZM346.511,100.597c.96-4.96-1.64-9.98-6.05-12.56-.207-.117-.469-.044-.586.163-.031.054-.049.115-.054.177-.287,4.113-.72,7.67-1.3,10.67s-1.503,6.463-2.77,10.39c-.068.227.06.467.288.536.059.018.121.023.182.014,5.06-.75,9.34-4.44,10.29-9.39Z"/>
          <path class="cls-3" d="M267.321,323.407c16.573.007,33.22.01,49.94.01.37.007.676-.287.683-.657,0-.024,0-.049-.003-.073l-10.06-119.13c-.28-3.267,1.18-5.053,4.38-5.36.107-.013.173-.02.2-.02,3.267-.26,5.03,1.167,5.29,4.28l5.89,69.17c.023.288.247.516.53.54,4.58.353,8.667-.597,12.26-2.85,3.633-2.273,5.453-5.737,5.46-10.39.013-34.313,0-57.98-.04-71-.01-4.1-.74-8.42-2.38-12.18-4.147-9.573-11.477-15.017-21.99-16.33-2.4-.3-3.777-.473-4.13-.52-1.947-.253-3.233-.66-3.86-1.22-2.58-2.33-2.3-6.05.69-7.99.827-.54,2.167-.76,4.02-.66,8.02.433,14.583,2.287,19.69,5.56,8.393,5.387,13.82,12.497,16.28,21.33,1.02,3.687,1.543,9.783,1.57,18.29.02,7.607.033,27.937.04,60.99,0,5.74-.483,9.85-1.45,12.33-1.76,4.533-4.943,8.157-9.55,10.87-4.76,2.8-10.017,3.987-15.77,3.56-.259-.017-.483.174-.501.428-.002.024-.001.048,0,.072,1.653,19.18,2.857,33.357,3.61,42.53.207,2.567.117,4.347-.27,5.34-.793,2.02-2.57,3.033-5.33,3.04-2.64.013-5.453-.003-8.44-.05-.351-.004-.65.248-.7.59-1.37,9.76-8.55,16.77-17.96,18.99-2.02.473-5.3.717-9.84.73h-18.26c-8.967,0-15.053-.003-18.26-.01-4.54-.007-7.82-.247-9.84-.72-9.41-2.22-16.59-9.23-17.96-18.99-.05-.342-.349-.594-.7-.59-2.987.047-5.8.063-8.44.05-2.76-.007-4.537-1.02-5.33-3.04-.387-.993-.477-2.773-.27-5.34.753-9.173,1.957-23.35,3.61-42.53.023-.253-.168-.477-.426-.499-.024-.002-.049-.002-.074,0-5.753.427-11.01-.76-15.77-3.56-4.607-2.713-7.787-6.337-9.54-10.87-.967-2.48-1.45-6.59-1.45-12.33.007-33.053.02-53.383.04-60.99.027-8.507.55-14.603,1.57-18.29,2.46-8.833,7.887-15.943,16.28-21.33,5.107-3.273,11.67-5.127,19.69-5.56,1.853-.1,3.193.12,4.02.66,2.99,1.94,3.27,5.66.69,7.99-.627.56-1.913.967-3.86,1.22-.353.047-1.73.22-4.13.52-10.513,1.313-17.843,6.757-21.99,16.33-1.64,3.76-2.37,8.08-2.38,12.18-.04,13.02-.053,36.687-.04,71,.007,4.653,1.823,8.117,5.45,10.39,3.593,2.253,7.68,3.203,12.26,2.85.283-.024.507-.252.53-.54l5.9-69.17c.26-3.113,2.023-4.54,5.29-4.28.027,0,.093.007.2.02,3.2.307,4.66,2.093,4.38,5.36l-10.07,119.13c-.028.369.249.691.618.718.021.002.041.002.062.002h49.94ZM232.031,333.357c-.44,0-.617.217-.53.65.413,2.047,1.45,3.873,3.11,5.48,2.86,2.74,6.547,4.143,11.06,4.21,6.967.087,12.287.083,15.96-.01.467-.013.7-.253.7-.72v-9.03c0-.315-.251-.57-.56-.57h0l-29.74-.01ZM302.681,333.367h-29.77c-.309,0-.56.255-.56.57h0v9.04c0,.467.233.707.7.72,3.68.093,9.003.097,15.97.01,4.52-.06,8.21-1.463,11.07-4.21,1.667-1.607,2.707-3.433,3.12-5.48.087-.433-.09-.65-.53-.65Z"/>
          <rect class="cls-3" x="257.031" y="182.677" width="20.66" height="9.94" rx="4.71" ry="4.71" transform="translate(-.653 .934) rotate(-.2)"/>
          <rect class="cls-3" x="262.371" y="197.337" width="10" height="20.62" rx="4.75" ry="4.75" transform="translate(59.257 474.655) rotate(-89.9)"/>
          <rect class="cls-3" x="262.361" y="217.317" width="10" height="20.68" rx="4.76" ry="4.76" transform="translate(38.771 494.222) rotate(-89.8)"/>
          <path class="cls-2" d="M237.311,38.977c9.827-3.027,19.83-4.55,30.01-4.57,10.18-.02,20.187,1.463,30.02,4.45,11.72,3.56,22,9.35,30.84,17.37.38.34.55.257.51-.25-.28-3.953-.523-7.577-.73-10.87-.28-4.56-.793-7.763-1.54-9.61-3.88-9.62-14.67-16.56-24.11-20.22-11.17-4.34-23.04-6.35-35.04-6.32-12,.02-23.87,2.07-35.02,6.45-9.42,3.7-20.19,10.68-24.03,20.31-.74,1.853-1.24,5.06-1.5,9.62-.2,3.293-.43,6.917-.69,10.87-.04.507.13.59.51.25,8.807-8.053,19.063-13.88,30.77-17.48Z"/>
        </g>
        <g>
          <path class="cls-4" d="M88.457,2.804c11.98,0,22.887,1.917,32.72,5.75,27.49,10.71,43.32,33.06,51.34,60.64,5.08,17.44,5.27,34.367.57,50.78-3.42,11.94-8.61,23.3-15.57,34.08-.42.647-.327,1.21.28,1.69,6.96,5.42,11.563,12.03,13.81,19.83.893,3.127,1.34,8.8,1.34,17.02,0,17.82-.003,35.633-.01,53.44,0,8.887-.247,14.283-.74,16.19-1.453,5.627-5.003,10.123-10.65,13.49-.319.188-.474.568-.38.93,4.047,14.66,8.313,30.03,12.8,46.11.713,2.573.193,4.513-1.56,5.82-.987.74-2.663,1.113-5.03,1.12-3.26.013-13.893.007-31.9-.02-.278,0-.517.197-.57.47-1.92,9.513-7.08,15.797-15.48,18.85-2.873,1.04-7.513,1.58-13.92,1.62-1.647.007-7.317.01-17.01.01-9.7.007-15.37.003-17.01-.01-6.407-.033-11.047-.57-13.92-1.61-8.407-3.053-13.57-9.337-15.49-18.85-.053-.273-.292-.47-.57-.47-18.007.033-28.64.043-31.9.03-2.367-.007-4.043-.38-5.03-1.12-1.753-1.307-2.273-3.247-1.56-5.82,4.48-16.08,8.743-31.45,12.79-46.11.094-.363-.061-.742-.38-.93-5.647-3.367-9.197-7.863-10.65-13.49-.493-1.907-.743-7.303-.75-16.19-.007-17.807-.013-35.62-.02-53.44,0-8.22.447-13.893,1.34-17.02,2.247-7.8,6.847-14.413,13.8-19.84.607-.48.7-1.043.28-1.69-6.96-10.773-12.15-22.13-15.57-34.07-4.707-16.413-4.52-33.34.56-50.78C12.427,41.634,28.257,19.274,55.737,8.564c9.833-3.84,20.74-5.76,32.72-5.76ZM89.187,200.694c5.17-.03,9.33-2.44,13.81-5.35,22.22-14.413,39.263-32.767,51.13-55.06,4.313-8.113,7.493-15.943,9.54-23.49,4.4-16.273,3.627-32.903-2.32-49.89-3.06-8.727-6.707-16.27-10.94-22.63-9.56-14.347-22.77-23.9-39.63-28.66-7.6-2.14-14.97-2.86-22.88-2.81-7.91.06-15.27.87-22.84,3.12-16.793,4.993-29.87,14.727-39.23,29.2-4.147,6.42-7.69,14.013-10.63,22.78-5.713,17.067-6.26,33.707-1.64,49.92,2.153,7.513,5.44,15.3,9.86,23.36,12.173,22.127,29.467,40.243,51.88,54.35,4.52,2.85,8.71,5.2,13.89,5.16ZM137.027,208.104c3.14-.807,5.117.243,5.93,3.15l15.14,54.28c.054.179.237.286.407.239.041-.012.08-.032.113-.059,3.04-2.527,4.53-5.777,4.47-9.75-.04-2.32-.083-25.487-.13-69.5-.007-9.407-3.593-17.017-10.76-22.83-.324-.258-.793-.208-1.048.111-.008.009-.015.019-.022.029-12.273,16.627-27.06,30.297-44.36,41.01-4.18,2.593-7.507,4.22-9.98,4.88-3.807,1.027-7.557,1.323-11.25.89-3.713-.433-8.62-2.5-14.72-6.2-17.34-10.527-32.18-23.947-44.52-40.26-.38-.5-.813-.55-1.3-.15-4.667,3.873-7.947,8.45-9.84,13.73-.833,2.313-1.25,6.183-1.25,11.61-.027,33.727-.073,55.863-.14,66.41-.027,4.04,1.427,7.327,4.36,9.86.202.18.512.163.692-.039.051-.058.088-.126.108-.201l14.87-53.71c.847-3.073,2.827-4.257,5.94-3.55.14.033.233.057.28.07,3.12.953,4.28,2.877,3.48,5.77l-29.08,105.03c-.105.366.107.748.473.853.061.017.123.026.187.027h147.06c.265-.002.479-.215.478-.475,0-.042-.006-.085-.018-.125l-29.04-104.82c-.873-3.153.223-5.23,3.29-6.23.08-.027.14-.043.18-.05ZM83.507,330.174c0-.333-.167-.5-.5-.5l-30.15.02c-.326-.003-.592.259-.595.585,0,.07.011.139.035.205,2.327,6.507,6.94,9.88,13.84,10.12,4.247.153,9.767.193,16.56.12.454-.005.82-.375.82-.83l-.01-9.72ZM93.437,330.184v9.72c0,.455.366.825.82.83,6.793.067,12.313.023,16.56-.13,6.9-.247,11.51-3.623,13.83-10.13.11-.307-.049-.645-.355-.755-.066-.024-.135-.036-.205-.035h-30.15c-.333,0-.5.167-.5.5Z"/>
          <path class="cls-4" d="M50.127,59.194c3.493-.807,5.51-1.277,6.05-1.41,1.973-.473,4.017-.88,6.13-1.22,21.867-3.513,43.38-2.677,64.54,2.51.647.16.757-.017.33-.53-4.48-5.413-9.657-9.827-15.53-13.24-1.68-.98-2.737-1.763-3.17-2.35-1.86-2.53-1.19-6.36,1.99-7.55,1.673-.627,3.373-.437,5.1.57,15.087,8.787,25.403,21.14,30.95,37.06,2.127,6.1,3.403,12.597,3.83,19.49.433,6.927.097,13.597-1.01,20.01-5.32,30.9-29.85,51.08-61.29,50.78-33.33-.33-59.4-25.47-61.41-58.63-.71-11.71.6-23.51,4.84-34.27,5.63-14.25,15.89-26.39,29.46-34.18,1.613-.933,2.987-1.327,4.12-1.18,3.69.48,5.5,4.05,3.76,7.36-.453.847-1.55,1.77-3.29,2.77-6.447,3.707-11.673,8.237-15.68,13.59-.293.393-.2.533.28.42ZM48.127,134.304c13.307,15.68,30.497,21.667,51.57,17.96,12.04-2.12,21.913-8.017,29.62-17.69,13.4-16.82,14.09-42.72,6.47-61.72-.291-.733-.903-1.293-1.66-1.52-30.127-9.187-60.4-9.217-90.82-.09-1.88.56-2.09,1.61-2.71,3.24-1.907,5.06-3.153,10.36-3.74,15.9-1.69,15.77,1.08,31.91,11.27,43.92Z"/>
          <path class="cls-1" d="M75.125,195.534c4.52,2.85,8.71,5.2,13.89,5.16,5.17-.03,9.33-2.44,13.81-5.35,22.22-14.413,39.263-32.767,51.13-55.06,4.313-8.113,7.493-15.943,9.54-23.49,4.4-16.273,3.627-32.903-2.32-49.89-3.06-8.727-6.707-16.27-10.94-22.63-9.56-14.347-22.77-23.9-39.63-28.66-7.6-2.14-14.97-2.86-22.88-2.81-7.91.06-15.27.87-22.84,3.12-16.793,4.993-29.87,14.727-39.23,29.2-4.147,6.42-7.69,14.013-10.63,22.78-5.713,17.067-6.26,33.707-1.64,49.92,2.153,7.513,5.44,15.3,9.86,23.36,12.173,22.127,29.467,40.243,51.88,54.35ZM26.465,104.684c-.71-11.71.6-23.51,4.84-34.27,5.63-14.25,15.89-26.39,29.46-34.18,1.613-.933,2.987-1.327,4.12-1.18,3.69.48,5.5,4.05,3.76,7.36-.453.847-1.55,1.77-3.29,2.77-6.447,3.707-11.673,8.237-15.68,13.59-.293.393-.2.533.28.42,3.493-.807,5.51-1.277,6.05-1.41,1.973-.473,4.017-.88,6.13-1.22,21.867-3.513,43.38-2.677,64.54,2.51.647.16.757-.017.33-.53-4.48-5.413-9.657-9.827-15.53-13.24-1.68-.98-2.737-1.763-3.17-2.35-1.86-2.53-1.19-6.36,1.99-7.55,1.673-.627,3.373-.437,5.1.57,15.087,8.787,25.403,21.14,30.95,37.06,2.127,6.1,3.403,12.597,3.83,19.49.433,6.927.097,13.597-1.01,20.01-5.32,30.9-29.85,51.08-61.29,50.78-33.33-.33-59.4-25.47-61.41-58.63Z"/>
        </g>
      </g>
    </g>
  </g>
</svg>