<?xml version="1.0" encoding="UTF-8"?>
<svg xmlns="http://www.w3.org/2000/svg" version="1.1" viewBox="0 0 129.953 127.093">
  <defs>
    <style>
      .cls-1 {
        fill: #d8ac6b;
      }

      .cls-2 {
        fill: #0b526e;
      }
    </style>
  </defs>
  <!-- Generator: Adobe Illustrator 28.6.0, SVG Export Plug-In . SVG Version: 1.2.0 Build 709)  -->
  <g>
    <g id="Layer_1">
      <g>
        <path class="cls-2" d="M64.971,59.743c.56,0,.883-.007.97-.02,5.19-.73,10.93-2.51,15.98-1.59,13.49,2.45,23.02,13.55,22.95,27.35-.067,11.16-.1,17.827-.1,20,0,.342.278.62.62.62h16.54c.754,0,1.413.51,1.6,1.24l1.63,6.46c.1.407.36.613.78.62l2,.02c1.153.007,1.823.707,2.01,2.1.007.067-.013.25-.06.55-.16,1.02-.753,1.53-1.78,1.53-15.327.027-31.767.033-49.32.02-2.907,0-4.933.29-6.08.87-2.067,1.06-3.227,3.003-3.48,5.83-.072.806-.681,1.461-1.48,1.59-.66.107-1.587.16-2.78.16-1.187,0-2.11-.053-2.77-.16-.799-.129-1.408-.784-1.48-1.59-.253-2.827-1.413-4.77-3.48-5.83-1.147-.58-3.173-.87-6.08-.87-17.553.013-33.993.01-49.32-.01-1.027,0-1.62-.51-1.78-1.53-.047-.3-.067-.483-.06-.55.18-1.393.847-2.093,2-2.1l2-.02c.42-.007.68-.213.78-.62l1.63-6.46c.187-.73.846-1.241,1.6-1.24l16.54-.01c.342,0,.62-.278.62-.62h0c0-2.173-.033-8.84-.1-20-.07-13.8,9.46-24.9,22.95-27.35,5.05-.92,10.79.86,15.98,1.59.087.013.41.02.97.02ZM64.981,108.673c.04,0,.08-.003.12-.01.047-.007.087-.023.12-.05,2.027-1.58,4.837-2.403,8.43-2.47,3.107-.06,6.357-.067,9.75-.02.232,0,.42-.188.42-.42l-.02-18.48c0-1.049.926-1.921,2.11-1.99l.08-.01c1.38.047,2.07.733,2.07,2.06l.02,18.47c0,.188.148.34.33.34h11.67c.304,0,.55-.246.55-.55-.02-6.62,0-11.353.06-14.2.127-6.493-.333-11.173-1.38-14.04-2.3-6.267-6.593-10.763-12.88-13.49-6.56-2.85-11.43-1.33-18.8-.08-.34.06-.51.26-.51.6-.027,7.473-.033,18.773-.02,33.9.007,2.387-.7,3.58-2.12,3.58-1.427,0-2.137-1.193-2.13-3.58.013-15.127.007-26.427-.02-33.9,0-.34-.17-.54-.51-.6-7.37-1.25-12.25-2.77-18.8.08-6.287,2.733-10.58,7.233-12.88,13.5-1.047,2.867-1.507,7.547-1.38,14.04.06,2.847.08,7.58.06,14.2,0,.304.246.55.55.55.003,0,.007,0,.01,0h11.67c.178-.006.32-.156.32-.34l.02-18.47c0-1.327.69-2.017,2.07-2.07l.08.01c1.184.069,2.109.941,2.11,1.99l-.02,18.48c0,.232.188.42.42.42.003,0,.007,0,.01,0,3.393-.047,6.643-.04,9.75.02,3.593.067,6.403.89,8.43,2.47.033.027.07.043.11.05.04.007.083.01.13.01ZM64.991,122.633c.113,0,.187-.017.22-.05.047-.033.08-.087.1-.16,1.66-5.333,5.283-8.003,10.87-8.01,18.333-.013,33.183-.013,44.55,0,.116-.003.208-.095.206-.206,0-.015-.002-.03-.006-.044l-.93-3.67c-.04-.147-.137-.22-.29-.22-27.807-.027-43.85-.017-48.13.03-1.12.013-2.263.513-3.43,1.5-.42.36-.767,1.213-1.04,2.56-.293,1.453-1,2.18-2.12,2.18-1.113,0-1.817-.727-2.11-2.18-.273-1.347-.62-2.2-1.04-2.56-1.167-.987-2.31-1.487-3.43-1.5-4.28-.047-20.323-.057-48.13-.03-.153,0-.25.073-.29.22l-.93,3.67c-.028.107.041.216.154.244.015.004.031.006.046.006,11.367-.013,26.217-.013,44.55,0,5.587.007,9.21,2.677,10.87,8.01.02.073.053.127.1.16.033.033.103.05.21.05Z"/>
        <path class="cls-2" d="M38.623,28.204c.389-6.133.623-10.258.703-12.377.068-1.747.465-3.359,1.192-4.836,2.22-4.523,7.726-7.73,12.588-9.206,7.228-2.194,14.549-2.365,21.962-.514,6.465,1.615,14.545,5.937,15.456,13.383.199,1.623.519,6.131.959,13.525.007.134.074.225.2.273,3.152,1.232,5.306,3.426,5.769,6.771.272,1.987-.153,3.771-1.276,5.35-2.066,2.905-4.603,3.437-7.814,3.696-.185.014-.351.117-.445.277-3.725,6.425-9.888,11.105-17.151,12.679-5.6,1.212-10.953.729-16.058-1.451-5.423-2.318-9.635-6.04-12.636-11.167-.128-.22-.358-.362-.612-.375-1.731-.095-3.677-.397-5.113-1.246-3.484-2.059-4.818-6.185-3.324-9.869.923-2.279,2.727-3.839,5.412-4.68.117-.036.179-.114.186-.233ZM64.973,12.904c3.71-.007,7.357.533,10.941,1.622,4.271,1.297,8.018,3.408,11.24,6.331.138.124.2.094.186-.091-.102-1.441-.191-2.761-.266-3.962-.102-1.662-.289-2.829-.561-3.502-1.414-3.506-5.347-6.035-8.787-7.369-4.071-1.582-8.397-2.314-12.77-2.303-4.373.007-8.699.754-12.763,2.351-3.433,1.348-7.358,3.892-8.758,7.402-.27.675-.452,1.844-.547,3.506-.073,1.2-.157,2.521-.251,3.962-.015.185.047.215.186.091,3.21-2.935,6.948-5.059,11.214-6.371,3.581-1.103,7.227-1.658,10.937-1.666ZM65.119,54.226c2.831-.017,5.508-.521,8.032-1.512,9.472-3.717,15.19-12.818,14.6-23.03-.104-1.822-.728-3.416-1.87-4.782-4.96-5.944-13.503-8.422-20.989-8.379-7.489.047-15.996,2.628-20.887,8.63-1.125,1.38-1.729,2.981-1.811,4.803-.47,10.219,5.357,19.25,14.873,22.855,2.537.96,5.22,1.431,8.051,1.414ZM36.098,36.962c.346,1.819,1.91,3.178,3.765,3.462.086.012.165-.048.176-.134.003-.022.001-.045-.005-.066-.457-1.443-.79-2.715-.999-3.816-.209-1.103-.363-2.409-.463-3.918-.004-.086-.077-.153-.164-.15-.026.001-.051.009-.073.022-1.622.944-2.58,2.781-2.238,4.599ZM93.834,37.027c.35-1.808-.598-3.637-2.205-4.578-.075-.043-.171-.016-.214.059-.011.02-.018.042-.02.065-.104,1.499-.262,2.795-.474,3.889s-.548,2.356-1.01,3.787c-.025.083.022.17.105.195.022.006.044.008.066.005,1.844-.273,3.404-1.618,3.75-3.422Z"/>
        <path class="cls-1" d="M54.036,14.57c3.581-1.103,7.227-1.658,10.937-1.666,3.71-.007,7.357.533,10.941,1.622,4.271,1.297,8.018,3.408,11.24,6.331.138.124.2.094.186-.091-.102-1.441-.191-2.761-.266-3.962-.102-1.662-.289-2.829-.561-3.502-1.414-3.506-5.347-6.035-8.787-7.369-4.071-1.582-8.397-2.314-12.77-2.303-4.373.007-8.699.754-12.763,2.351-3.433,1.348-7.358,3.892-8.758,7.402-.27.675-.452,1.844-.547,3.506-.073,1.2-.157,2.521-.251,3.962-.015.185.047.215.186.091,3.21-2.935,6.948-5.059,11.214-6.371Z"/>
        <path class="cls-1" d="M9.971,110.493l-.93,3.67c-.028.107.041.216.154.244.015.004.031.006.046.006,11.367-.013,26.217-.013,44.55,0,5.587.007,9.21,2.677,10.87,8.01.02.073.053.127.1.16.033.033.103.05.21.05.113,0,.187-.017.22-.05.047-.033.08-.087.1-.16,1.66-5.333,5.283-8.003,10.87-8.01,18.333-.013,33.183-.013,44.55,0,.116-.003.208-.095.206-.206,0-.015-.002-.03-.006-.044l-.93-3.67c-.04-.147-.137-.22-.29-.22-27.807-.027-43.85-.017-48.13.03-1.12.013-2.263.513-3.43,1.5-.42.36-.767,1.213-1.04,2.56-.293,1.453-1,2.18-2.12,2.18-1.113,0-1.817-.727-2.11-2.18-.273-1.347-.62-2.2-1.04-2.56-1.167-.987-2.31-1.487-3.43-1.5-4.28-.047-20.323-.057-48.13-.03-.153,0-.25.073-.29.22Z"/>
      </g>
    </g>
  </g>
</svg>