<?xml version="1.0" encoding="UTF-8"?>
<svg xmlns="http://www.w3.org/2000/svg" version="1.1" viewBox="0 0 141.665 132.24">
  <defs>
    <style>
      .cls-1 {
        fill: #0e526e;
      }

      .cls-2 {
        fill: #d7ab6a;
      }
    </style>
  </defs>
  <!-- Generator: Adobe Illustrator 28.6.0, SVG Export Plug-In . SVG Version: 1.2.0 Build 709)  -->
  <g>
    <g id="Layer_1">
      <g>
        <path class="cls-2" d="M86.446,110.854c.001.006,0,.012-.002.019-.004.011-.013.01-.027-.002-.017-.014-.026-.039-.029-.075-.004-.047-.026-.09-.061-.121-.234-.212-.427-.396-.577-.552-.48-.503-.753-.789-.82-.856-6.423-6.392-14.843-14.802-25.262-25.231-.61-.611-1.235-.885-1.877-.822-1.548.151-2.598,1.86-1.854,3.287.114.219.391.549.831.99,7.622,7.625,16.883,16.884,27.783,27.777.584.584,1.06,1.326,1.427,2.226.787,1.928.845,3.8.174,5.617-.491,1.328-1.293,2.446-2.406,3.356-3.126,2.554-7.741,1.981-10.542-.822-27.504-27.523-46.239-46.247-56.204-56.17-1.384-1.377-3.132-3.135-5.245-5.276-1.686-1.709-2.783-2.873-3.291-3.494C4.084,55.342,1.403,49.347.419,42.715-.433,36.97.014,31.365,1.76,25.9c1.746-5.467,4.621-10.244,8.624-14.329C16.076,5.761,22.906,2.115,30.874.632c12.17-2.264,24.946,1.63,33.722,10.414.997.997,2.153,2.152,3.467,3.464.05.051.05.133,0,.182,0,0,0,0,0,0-5.16,5.141-9.511,9.479-13.05,13.013-1.382,1.378-2.309,2.417-2.78,3.117-3.843,5.711-3.17,13.255,2.08,17.881,2.764,2.437,5.983,3.577,9.657,3.421,2.621-.113,5.027-.945,7.22-2.496.621-.439,1.648-1.379,3.082-2.82,2.188-2.199,6.522-6.533,13.002-13,.036-.036.094-.036.13,0,17.196,17.204,29.01,29.013,35.442,35.427,1.717,1.713,3.536,3.538,5.456,5.477.318.321.681.843,1.088,1.567,1.387,2.456,1.439,5.724-.121,8.132-2.161,3.333-6.442,4.358-9.996,2.538-.65-.332-1.411-.939-2.282-1.822-1.315-1.332-10.778-10.799-28.388-28.402-.819-.817-1.381-1.291-1.688-1.421-1.297-.542-2.682.197-3.048,1.527-.223.809-.013,1.535.63,2.178,18.014,18.013,29.362,29.364,34.045,34.053,1.483,1.485,2.418,3.042,2.734,5.241.433,3.011-.856,5.847-3.471,7.454-1.702,1.045-3.635,1.339-5.799.883-1.078-.227-2.084-.711-3.019-1.45-.446-.354-.872-.898-1.322-1.345-7.381-7.354-18.71-18.671-33.988-33.95-.63-.629-1.34-.853-2.128-.672-1.416.324-2.186,1.726-1.617,3.075.121.289.766,1.019,1.935,2.19,9.996,10.006,21.044,21.054,33.143,33.145.653.651,1.165,1.316,1.536,1.994,1.492,2.728,1.134,6.364-1.065,8.745-2.01,2.173-4.502,2.915-7.477,2.226-1.674-.387-2.973-1.259-4.236-2.502-1.852-1.82-3.7-3.64-5.542-5.46-.77-.763-1.347-1.357-1.73-1.782-.01-.011-.027-.017-.038-.013-.006.002-.009.007-.008.013Z"/>
        <path class="cls-1" d="M93.601,25.294c-.554-1.061-1.843-1.515-2.912-1.038-.244.109-.676.474-1.297,1.094-10.776,10.767-17.318,17.3-19.626,19.599-4.117,4.103-10.963,3.393-14.094-1.552-2.322-3.663-1.446-8.492,1.607-11.563,4.862-4.89,11.098-11.128,18.707-18.714,1.331-1.326,2.342-2.285,3.034-2.875,3.647-3.109,7.626-5.434,11.935-6.975,10.795-3.858,22.933-2.764,32.731,3.211,5.395,3.29,9.638,7.525,12.73,12.703,7.939,13.293,6.822,30.216-3.006,42.264-.65.798-1.591,1.825-2.822,3.082-.972.994-1.96,1.982-2.964,2.962-.042.043-.111.044-.155.002,0,0-.001-.001-.002-.002l-36.833-36.833c-.057-.057-.057-.149,0-.207.462-.463,1.234-1.244,2.316-2.343.485-.492.772-.911.86-1.255.134-.519.065-1.039-.207-1.561Z"/>
        <path class="cls-1" d="M25.888,84.717c.049.05.049.13,0,.18l-1,.998c-3.086,3.086-8.007,3.17-10.992.186l-.063-.063c-2.983-2.985-2.9-7.906.186-10.992l.998-1c.05-.049.13-.049.18,0l10.691,10.691Z"/>
        <path class="cls-1" d="M39.983,98.793c.045.046.045.12,0,.165l-7.785,7.814c-3.095,3.105-8.039,3.194-11.044.199l-.006-.006c-3.005-2.995-2.933-7.939.161-11.044l7.787-7.812c.045-.046.119-.047.165-.002l10.722,10.686Z"/>
        <path class="cls-1" d="M53.977,112.829c.058.059.058.153,0,.211l-7.709,7.682c-3.151,3.14-8.133,3.25-11.128.245l-.002-.004c-2.994-3.005-2.868-7.986.282-11.126l7.709-7.682c.059-.059.154-.059.213,0,0,0,0,0,0,0l10.634,10.674Z"/>
        <path class="cls-1" d="M68.073,126.906c.05.05.05.132,0,.182l-2.693,2.693c-3.158,3.158-8.145,3.292-11.138.299l-.021-.021c-2.993-2.994-2.859-7.98.299-11.138l2.693-2.693c.05-.05.132-.05.182,0l10.678,10.678Z"/>
      </g>
    </g>
  </g>
</svg>